<svg width="96.000000pt" height="96.000000pt" viewBox="0 0 96.000000 96.000000" xmlns="http://www.w3.org/2000/svg">
  <g transform="translate(0.000000,96.000000) scale(0.100000,-0.100000)" fill="#ccbc9b" stroke="none">
    <path d="M180 949 c0 -5 9 -9 20 -9 11 0 20 -7 20 -15 0 -20 27 -19 38 1 8 14
10 13 15 -5 3 -11 1 -21 -5 -21 -6 0 -8 -9 -5 -20 3 -11 1 -20 -4 -20 -5 0 -9
5 -9 10 0 19 -38 10 -43 -10 -8 -30 -24 -24 -32 10 -13 60 -62 64 -89 6 -9
-20 -21 -36 -26 -36 -13 0 -13 17 0 25 12 7 14 45 3 45 -5 0 -18 3 -30 6 -29
8 -35 -59 -6 -74 14 -9 14 -10 -5 -16 -37 -12 -31 -66 8 -66 20 0 30 5 30 15
0 8 6 15 14 15 9 0 12 -7 9 -20 -4 -14 0 -20 11 -20 13 0 16 -11 16 -54 0 -51
-1 -53 -25 -48 -22 4 -25 10 -25 43 0 37 -2 39 -30 39 -30 0 -30 0 -30 -112 0
-74 4 -108 10 -98 5 8 12 12 15 9 8 -8 -5 -39 -16 -39 -5 0 -9 -9 -9 -20 0
-11 6 -20 13 -20 9 0 9 -2 -1 -8 -8 -6 -12 -31 -11 -78 1 -38 4 -63 6 -56 3 6
11 12 18 12 7 0 15 5 17 11 8 24 198 16 198 -8 0 -25 27 -32 36 -9 3 8 14 11
29 9 17 -4 25 1 30 18 7 21 10 18 27 -25 22 -58 39 -76 70 -76 13 0 30 -5 38
-11 11 -8 4 -9 -27 -5 -40 6 -66 -15 -33 -26 6 -2 5 -9 -1 -18 -8 -11 -12 -12
-16 -2 -10 25 -96 15 -89 -10 3 -13 6 -26 6 -30 0 -16 60 -8 60 7 0 20 16 19
24 -1 12 -32 7 -94 -9 -94 -24 0 -18 -27 8 -34 47 -13 137 -7 137 9 0 8 -5 15
-11 15 -20 0 -37 26 -44 71 -4 24 -11 51 -16 60 -7 13 -3 18 17 23 29 8 64 -1
64 -15 0 -19 27 -8 38 16 18 40 26 105 13 105 -6 0 -11 7 -11 15 0 8 7 15 15
15 8 0 15 -7 15 -15 0 -8 7 -15 15 -15 8 0 15 7 15 15 0 8 -7 15 -15 15 -8 0
-15 6 -15 14 0 7 -15 17 -32 22 -44 13 -49 45 -11 69 15 10 37 28 48 40 23 25
65 42 65 26 0 -6 -9 -11 -20 -11 -11 0 -20 -7 -20 -15 0 -11 13 -15 53 -15 37
0 48 -3 37 -10 -8 -5 -32 -10 -52 -10 -77 0 -55 -67 22 -69 33 0 60 3 60 8 0
5 10 11 23 13 19 3 23 11 31 71 5 37 13 67 18 67 4 0 8 7 8 15 0 8 -4 15 -10
15 -18 0 -10 22 10 27 46 12 3 83 -50 83 -6 0 -18 7 -26 15 -9 8 -26 15 -40
15 -15 0 -24 6 -24 15 0 8 -7 15 -15 15 -8 0 -15 -4 -15 -10 0 -5 -7 -10 -15
-10 -8 0 -15 -4 -15 -10 0 -5 -7 -10 -15 -10 -8 0 -15 5 -15 10 0 6 -7 10 -15
10 -8 0 -15 5 -15 10 0 6 -5 10 -11 10 -17 0 -41 29 -36 43 4 9 6 9 6 0 1 -18
31 -16 31 2 0 8 -7 15 -15 15 -8 0 -15 5 -15 10 0 6 -7 10 -15 10 -8 0 -15 5
-15 10 0 12 -37 14 -42 3 -1 -5 -21 -5 -43 -2 -22 3 -30 7 -17 8 56 3 22 31
-40 32 -35 1 -49 4 -33 6 17 3 35 8 40 13 6 4 37 11 70 15 33 4 65 11 70 15 6
5 23 10 40 12 19 2 31 9 33 21 3 16 -11 17 -202 16 -115 -1 -206 -5 -206 -10z
m510 -339 c12 -8 10 -10 -9 -10 -14 0 -33 -7 -43 -17 -22 -20 -24 -1 -2 21 18
18 33 20 54 6z m-580 -55 c0 -14 4 -25 9 -25 5 0 7 -17 5 -37 -6 -57 4 -90 29
-98 20 -7 20 -8 -8 -12 -16 -3 -31 0 -33 6 -2 6 -11 11 -20 11 -12 0 -17 9
-18 30 -1 19 4 30 12 30 8 0 14 4 14 9 0 21 -13 41 -26 41 -21 0 -18 57 4 63
31 8 32 7 32 -18z m110 -62 c0 -13 -4 -23 -10 -23 -5 0 -10 5 -10 10 0 6 -7
10 -14 10 -12 0 -13 6 -4 32 13 36 38 17 38 -29z m60 -13 c0 -5 -7 -10 -15
-10 -8 0 -15 -7 -15 -15 0 -8 -4 -15 -10 -15 -16 0 -12 22 8 36 21 16 32 17
32 4z m129 -4 c10 -12 8 -19 -9 -36 -27 -27 -34 -21 -25 19 7 34 16 38 34 17z
m-96 -47 c-6 -21 -39 -26 -45 -7 -6 18 13 36 33 31 11 -3 15 -12 12 -24z m214
-89 c3 -11 10 -20 15 -20 5 0 6 -4 3 -10 -17 -27 -72 -11 -67 20 5 35 41 43
49 10z" />
    <path d="M634 788 c8 -42 10 -43 53 -27 66 26 49 58 -31 59 -27 0 -28 -2 -22
-32z" />
    <path d="M952 693 c-1 -29 -6 -53 -12 -53 -14 0 -13 -47 1 -56 7 -4 8 -9 1
-13 -20 -12 -26 -61 -8 -61 24 0 27 16 23 131 -1 57 -4 80 -5 52z" />
    <path d="M878 563 c-16 -4 -45 -59 -36 -69 13 -12 58 9 58 27 0 10 5 19 10 19
6 0 10 7 10 15 0 15 -10 17 -42 8z" />
    <path d="M943 493 c-18 -7 -16 -43 2 -43 9 0 15 9 15 25 0 14 -1 25 -2 24 -2
0 -9 -3 -15 -6z" />
    <path d="M833 424 c-13 -14 -23 -30 -23 -35 0 -5 -7 -9 -15 -9 -8 0 -15 -7
-15 -15 0 -12 -14 -15 -65 -15 -60 0 -104 -28 -47 -31 10 0 12 -3 5 -6 -7 -2
-13 -11 -13 -19 0 -8 -7 -14 -15 -14 -10 0 -15 -11 -15 -35 0 -24 5 -35 15
-35 10 0 15 11 15 35 0 31 3 35 25 35 14 0 25 5 25 11 0 8 14 10 44 6 37 -5
45 -3 49 11 3 12 5 11 6 -5 0 -13 -3 -23 -9 -23 -5 0 -10 -13 -10 -30 0 -16 5
-30 10 -30 6 0 10 -7 10 -15 0 -8 7 -15 15 -15 12 0 15 14 15 70 0 56 -3 70
-15 70 -22 0 -18 27 5 33 13 3 20 0 20 -9 0 -8 7 -14 16 -14 16 0 15 19 -2 64
-3 9 -1 16 4 16 16 0 30 -30 25 -51 -4 -14 0 -19 15 -19 12 0 23 -9 27 -20 13
-40 25 -18 25 45 0 65 0 65 -32 65 -18 0 -42 3 -53 5 -13 4 -28 -3 -42 -21z" />
    <path d="M886 304 c-8 -20 -8 -78 0 -98 7 -17 34 -22 34 -6 0 15 28 0 33 -18
3 -10 5 13 6 49 1 61 -1 67 -24 77 -34 16 -42 15 -49 -4z" />
    <path d="M273 296 c-23 -11 -32 -36 -13 -36 6 0 10 -7 10 -15 0 -8 7 -15 16
-15 9 0 22 -7 29 -16 9 -13 18 -15 41 -7 31 10 46 43 20 43 -10 0 -16 9 -16
24 0 36 -40 46 -87 22z" />
    <path d="M37 273 c-4 -3 -8 -22 -8 -42 -1 -20 -3 -28 -6 -18 -8 30 -23 18 -23
-18 0 -24 5 -35 15 -35 9 0 15 -9 15 -24 0 -46 13 -86 27 -86 12 0 13 11 8 55
-7 55 -7 55 74 55 65 0 81 -3 81 -15 0 -9 9 -15 21 -15 23 0 20 47 -4 62 -8 5
-6 8 6 8 40 0 20 50 -20 51 -86 3 -122 8 -141 18 -24 13 -36 14 -45 4z" />
    <path d="M610 175 c0 -8 -7 -15 -15 -15 -9 0 -15 -9 -15 -25 0 -15 6 -25 15
-25 8 0 17 11 21 25 3 14 10 25 15 25 5 0 9 7 9 15 0 8 -7 15 -15 15 -8 0 -15
-7 -15 -15z" />
    <path d="M90 126 c0 -20 5 -26 21 -26 15 0 20 5 17 22 -5 34 -38 37 -38 4z" />
    <path d="M630 125 c0 -8 9 -15 20 -15 11 0 20 7 20 15 0 8 -9 15 -20 15 -11 0
-20 -7 -20 -15z" />
    <path d="M540 105 c0 -16 6 -25 15 -25 9 0 15 9 15 25 0 16 -6 25 -15 25 -9 0
-15 -9 -15 -25z" />
    <path d="M230 92 c0 -16 13 -23 93 -49 35 -11 16 22 -25 45 -52 27 -68 28 -68
4z" />
    <path d="M720 95 c0 -8 9 -15 20 -15 42 0 17 -17 -55 -38 -115 -34 -96 -42
100 -42 96 0 175 3 175 8 -1 26 -20 35 -69 30 -49 -5 -51 -4 -51 20 0 21 -4
24 -25 20 -16 -3 -25 -1 -25 7 0 7 -7 16 -16 19 -28 11 -54 6 -54 -9z" />
    <path d="M600 75 c0 -8 9 -15 20 -15 11 0 20 7 20 15 0 8 -9 15 -20 15 -11 0
-20 -7 -20 -15z" />
  </g>
  <g transform="translate(0.000000,96.000000) scale(0.100000,-0.100000)" fill="#b0a184" stroke="none">
    <path d="M1 840 c0 -72 4 -120 10 -120 6 0 7 -6 3 -12 -5 -8 -1 -7 10 2 17 13
17 14 -1 21 -16 7 -16 8 0 8 22 1 22 28 0 33 -15 3 -14 6 6 17 14 8 21 9 17 2
-4 -6 -2 -11 3 -11 6 0 11 -7 11 -15 0 -8 9 -15 20 -15 16 0 20 -7 20 -35 0
-39 16 -48 23 -12 2 12 5 -7 6 -43 1 -39 5 -60 10 -52 4 7 6 24 3 38 -3 16 0
24 9 24 12 0 12 2 1 9 -19 12 5 51 26 43 10 -3 13 -1 8 6 -4 7 -2 12 3 12 6 0
11 -16 11 -35 0 -25 -4 -35 -15 -35 -13 0 -14 -2 -3 -14 23 -25 27 -8 31 108
2 70 5 79 22 82 10 2 29 5 41 8 13 4 25 2 28 -3 3 -4 22 -6 42 -4 33 3 35 2
20 -12 -20 -20 -20 -29 -1 -21 9 3 15 0 15 -9 0 -12 4 -13 18 -4 24 15 76 4
65 -14 -4 -8 -1 -7 10 2 9 7 14 17 11 22 -3 5 -1 9 4 9 6 0 12 -7 16 -15 3 -9
0 -15 -9 -15 -21 0 -19 -17 5 -37 16 -14 17 -19 6 -23 -12 -4 -12 -9 5 -30 11
-14 19 -20 18 -15 -4 26 3 39 10 21 8 -20 41 -32 41 -15 0 5 5 9 11 9 5 0 7
-4 4 -10 -3 -5 -3 -10 2 -11 4 0 18 -2 31 -3 14 -2 22 3 23 13 1 9 4 0 8 -19
5 -30 3 -36 -16 -43 -14 -6 -27 -25 -38 -58 -9 -27 -21 -47 -26 -44 -5 4 -6
-1 -2 -10 5 -13 7 -14 14 -3 5 7 9 9 9 3 1 -5 6 1 12 15 6 14 10 29 9 33 -4
21 21 48 35 37 7 -7 11 -16 8 -21 -3 -5 2 -9 10 -9 9 0 16 -5 16 -11 0 -5 -5
-7 -10 -4 -6 3 -13 -1 -16 -10 -5 -12 -9 -13 -20 -4 -15 12 -37 -26 -26 -45 3
-5 0 -6 -6 -2 -15 9 -15 1 0 -41 10 -29 16 -33 36 -28 18 4 22 2 20 -12 -2
-15 3 -17 29 -15 29 3 100 -21 113 -38 3 -4 12 -10 20 -13 12 -4 11 -6 -2 -6
-10 -1 -18 -6 -18 -12 0 -5 -5 -7 -10 -4 -6 4 -8 11 -5 16 4 5 -2 9 -13 9 -10
0 -19 -7 -19 -15 0 -8 6 -15 14 -15 8 0 13 -12 13 -31 0 -17 4 -28 10 -24 5 3
10 -3 10 -14 0 -12 -7 -21 -15 -21 -19 0 -19 -26 0 -34 8 -3 15 -12 15 -21 0
-8 7 -15 15 -15 9 0 15 10 15 26 0 14 -4 23 -10 19 -6 -4 -10 12 -10 40 0 28
4 44 10 40 6 -4 10 5 10 19 0 19 5 26 20 26 11 0 20 7 20 16 0 8 -5 12 -11 9
-6 -4 -5 3 3 14 10 18 14 19 16 6 3 -13 7 -14 18 -4 12 10 16 8 21 -9 3 -12 8
-20 12 -18 3 3 6 -13 6 -34 0 -21 -3 -36 -7 -34 -5 3 -8 -2 -8 -11 0 -10 5
-13 12 -9 7 4 9 3 5 -1 -14 -16 -36 -14 -30 3 4 10 2 13 -5 8 -16 -10 -15 -24
4 -44 11 -10 13 -17 5 -20 -14 -5 -15 -32 -1 -32 6 0 10 -9 10 -19 0 -11 6
-22 13 -24 9 -4 9 -6 -1 -6 -7 -1 -15 6 -18 14 -12 30 -34 16 -34 -20 0 -25 4
-35 16 -35 8 0 12 5 9 10 -3 6 -2 10 4 10 16 0 33 -38 20 -42 -7 -2 -9 -13 -5
-26 15 -45 26 -20 26 58 0 57 -4 80 -12 80 -10 0 -10 2 0 8 15 10 15 179 1
188 -5 3 -7 10 -3 15 3 5 2 9 -3 8 -19 -3 -53 15 -53 28 0 8 5 11 10 8 6 -3
10 0 10 8 0 8 -10 17 -22 21 -34 9 -38 8 -38 -9 0 -8 -9 -15 -20 -15 -11 0
-20 6 -20 14 0 21 -51 37 -94 31 -24 -4 -36 -3 -32 3 3 6 1 12 -6 14 -9 3 -8
10 5 23 18 17 18 17 15 -1 -3 -19 46 -32 57 -15 7 12 56 0 62 -15 11 -30 39
-13 34 21 -1 11 26 -22 32 -39 3 -8 8 -8 16 0 14 13 4 44 -14 44 -8 0 -17 5
-21 12 -4 7 -3 8 4 4 6 -4 21 -2 32 4 11 6 20 7 20 2 0 -5 6 -9 14 -9 13 0 13
4 0 29 -8 15 -11 28 -6 28 5 0 14 -10 20 -22 11 -23 11 -23 11 2 0 29 -29 72
-36 53 -3 -7 -11 -13 -18 -13 -7 0 -15 -7 -19 -15 -6 -16 -26 -21 -26 -6 0 5
7 16 15 25 21 21 19 33 -8 40 -31 7 -67 39 -67 59 0 8 -6 18 -12 20 -8 3 -6 6
5 6 11 1 17 9 17 25 0 13 3 38 6 55 5 24 3 31 -10 31 -9 0 -16 -4 -16 -10 0
-13 -30 -1 -54 22 -21 19 -3 25 57 19 19 -3 24 25 5 32 -8 3 -6 6 5 6 9 1 17
8 17 16 0 8 5 15 10 15 6 0 10 5 10 10 0 21 -61 10 -84 -15 -19 -21 -25 -23
-30 -10 -3 8 -1 15 4 15 6 0 10 4 10 9 0 5 -38 9 -85 9 -47 0 -83 -4 -80 -8 3
-5 1 -12 -5 -15 -6 -4 -9 -1 -8 7 4 16 -54 18 -59 2 -2 -7 7 -10 24 -8 17 2
20 1 8 -2 -11 -4 -26 -11 -34 -18 -12 -8 -13 -8 -7 2 4 7 1 12 -9 12 -9 0 -14
-4 -11 -9 3 -5 -8 -11 -25 -15 -45 -9 -59 -8 -59 5 0 5 4 7 10 4 6 -3 10 -1
10 4 0 19 -17 12 -34 -14 -9 -14 -21 -23 -26 -20 -4 3 -21 0 -36 -5 -31 -12
-49 -1 -28 18 8 7 14 8 14 2 0 -5 5 -10 10 -10 6 0 10 7 10 15 0 13 -12 19
-32 16 -4 0 -12 7 -17 17 -8 15 -27 18 -140 20 -131 3 -131 3 -130 -118z m155
42 c-2 -1 -15 2 -30 8 -15 5 -32 8 -37 4 -5 -3 -9 0 -9 5 0 6 7 11 15 11 8 0
15 4 15 9 0 5 11 0 24 -12 14 -12 23 -23 22 -25z m516 26 c-18 -18 -15 -38 6
-39 16 -1 16 -2 0 -6 -10 -2 -18 -14 -19 -26 0 -22 0 -22 -9 1 -10 23 -36 30
-42 11 -2 -7 -12 -7 -31 0 -16 6 -58 11 -94 11 -37 0 -63 3 -60 6 4 4 36 6 71
6 48 -1 70 3 82 15 9 9 32 20 53 24 54 10 56 10 43 -3z m53 -222 c16 -3 31
-10 33 -16 2 -5 13 -10 23 -10 13 0 18 -4 13 -12 -5 -7 -2 -9 8 -5 9 3 24 -1
35 -9 17 -14 16 -14 -6 -3 -21 10 -23 9 -18 -5 6 -15 4 -15 -18 0 -26 17 -28
15 -28 -28 0 -10 -8 -20 -18 -23 -11 -4 -19 -13 -19 -21 0 -20 -17 -9 -30 19
-10 19 -9 20 2 6 12 -15 16 -15 33 -3 10 8 13 14 7 14 -7 0 -12 6 -12 14 0 9
-7 12 -20 9 -11 -3 -20 -1 -20 5 0 6 8 12 19 14 15 2 17 7 9 27 -8 23 -9 24
-23 5 -13 -16 -14 -16 -9 -1 3 9 1 17 -5 17 -6 0 -11 4 -11 10 0 5 6 7 13 5 6
-2 25 -7 42 -9z m87 -112 c-3 -15 -11 -22 -23 -21 -16 1 -17 3 -4 17 8 9 13
19 10 22 -3 2 1 5 8 5 9 0 12 -9 9 -23z m-17 -149 c0 -12 -8 -21 -20 -22 -11
-2 -14 0 -7 3 6 3 10 10 6 15 -3 5 1 9 8 10 7 0 4 5 -7 10 -20 9 -20 9 0 6 12
-1 20 -10 20 -22z" />
    <path d="M287 946 c-4 -10 0 -14 14 -11 10 2 19 0 19 -5 0 -9 12 -8 48 4 12 4
22 12 22 17 0 6 -10 3 -21 -5 -19 -13 -24 -13 -36 0 -18 18 -39 18 -46 0z" />
    <path d="M455 949 c-4 -6 -14 -8 -22 -4 -13 4 -14 3 -3 -10 14 -17 35 -21 25
-5 -6 9 8 14 28 11 4 0 7 4 7 9 0 13 -27 13 -35 -1z" />
    <path d="M950 940 c0 -11 -4 -20 -10 -20 -5 0 -10 -7 -10 -15 0 -8 6 -15 13
-15 9 0 8 -3 -2 -9 -8 -5 -11 -16 -6 -31 4 -12 7 -49 6 -81 0 -33 4 -59 9 -59
6 0 10 50 10 125 0 69 -2 125 -5 125 -3 0 -5 -9 -5 -20z" />
    <path d="M830 871 c0 -21 13 -41 26 -41 15 0 17 10 8 34 -7 17 -34 22 -34 7z" />
    <path d="M232 832 c-9 -7 -8 -14 8 -32 11 -13 20 -28 20 -33 0 -6 3 -7 6 -4 4
4 -1 18 -10 32 -9 14 -12 25 -6 25 5 0 10 5 10 10 0 12 -10 13 -28 2z" />
    <path d="M94 635 c23 -17 14 -19 -31 -6 -20 6 -35 6 -39 0 -3 -5 -9 -7 -13 -4
-5 2 -8 -7 -8 -20 0 -14 5 -25 11 -25 6 0 5 -4 -3 -9 -9 -6 -4 -10 18 -13 21
-3 31 0 31 9 0 7 -5 13 -10 13 -6 0 -5 8 2 20 11 16 14 17 21 5 4 -8 5 -20 2
-25 -3 -6 3 -10 15 -10 16 0 20 4 15 19 -3 11 -1 22 5 26 19 12 11 35 -12 35
-22 -1 -23 -1 -4 -15z" />
    <path d="M189 596 c-8 -12 -15 -34 -16 -50 -1 -16 -7 -32 -14 -37 -10 -6 -10
-11 -1 -22 7 -7 9 -17 5 -20 -3 -4 0 -13 6 -21 10 -12 9 -14 -6 -11 -10 2 -21
4 -24 4 -7 1 -2 106 6 128 2 7 0 15 -5 18 -6 4 -11 0 -11 -7 -1 -7 -2 -17 -4
-23 -1 -5 -3 -18 -3 -27 -1 -12 -10 -18 -27 -18 -24 0 -30 -17 -11 -31 4 -4
-4 -6 -18 -6 -14 0 -26 3 -26 8 0 16 5 24 13 21 4 -1 7 5 7 14 0 8 -4 13 -9
10 -5 -3 -11 1 -15 9 -3 8 -12 12 -21 9 -18 -7 -20 -55 -2 -73 9 -11 9 -12 0
-7 -9 5 -11 2 -7 -8 3 -9 14 -16 23 -16 13 0 14 -2 1 -9 -8 -6 -17 -8 -21 -6
-3 3 -4 -6 -2 -20 4 -16 10 -22 20 -18 12 5 12 7 1 14 -21 13 6 11 39 -3 15
-7 31 -17 35 -23 6 -10 26 -11 76 -6 7 0 10 6 6 13 -4 7 -3 8 4 4 7 -4 12 -3
12 2 0 5 -9 12 -20 15 -11 3 -20 10 -20 17 0 6 4 9 9 6 4 -3 16 3 26 14 11 13
29 19 47 18 29 -2 37 -13 16 -21 -22 -7 22 -48 46 -42 12 3 15 2 9 -1 -18 -8
-16 -24 2 -24 8 0 15 -4 15 -10 0 -15 -41 -5 -55 13 -7 9 -15 14 -18 11 -3 -4
4 -15 16 -25 27 -23 10 -25 -22 -3 -19 14 -25 14 -32 3 -7 -12 -9 -12 -9 0 0
11 -3 11 -17 0 -9 -8 -18 -13 -20 -11 -3 2 -7 1 -11 -2 -3 -3 11 -6 31 -6 60
0 87 -15 87 -50 0 -25 4 -30 25 -30 14 0 25 -4 25 -10 0 -5 -4 -10 -10 -10 -5
0 -10 -4 -10 -10 0 -14 23 -8 36 9 12 15 38 6 28 -10 -3 -5 -9 -7 -14 -4 -5 3
-13 -2 -18 -10 -13 -25 -96 -17 -100 9 -7 33 -29 46 -80 46 -45 0 -50 3 -56
25 -9 37 -34 31 -42 -10 -3 -19 -10 -35 -16 -35 -5 0 -6 5 -3 10 3 6 -1 10
-11 10 -12 0 -15 -6 -11 -21 7 -27 -2 -51 -17 -42 -6 3 -6 0 2 -8 7 -8 28 -12
52 -10 22 1 40 -2 40 -8 0 -5 -14 -9 -32 -8 -17 1 -33 -3 -35 -10 -3 -8 6 -10
27 -7 24 4 35 0 50 -18 19 -23 19 -23 20 5 0 15 -4 27 -10 27 -5 0 -10 5 -10
10 0 13 100 13 120 0 13 -8 12 -10 -2 -10 -10 0 -18 -7 -18 -16 0 -11 6 -14
21 -9 15 5 19 4 15 -4 -5 -7 8 -11 38 -11 32 0 45 4 44 12 -2 7 4 13 12 13 8
0 14 -6 12 -13 -1 -7 9 -13 23 -13 14 -1 31 -2 38 -3 20 -3 36 14 31 32 -5 15
-4 15 5 1 10 -16 8 -49 -4 -69 -3 -6 1 -10 9 -10 9 0 16 -4 16 -10 0 -5 -6 -7
-13 -4 -8 3 -14 -2 -14 -11 0 -12 7 -15 24 -12 12 2 23 0 23 -4 0 -5 7 -9 16
-9 8 0 12 -4 9 -10 -4 -6 5 -10 19 -10 22 0 27 5 32 40 4 25 12 40 21 40 7 0
16 7 19 15 4 8 12 15 20 15 17 0 18 14 3 42 -8 15 -8 19 0 14 6 -4 14 0 17 8
3 9 17 16 30 16 15 0 24 6 24 16 0 23 -60 15 -82 -11 -16 -20 -17 -20 -38 3
-13 13 -33 22 -51 22 -17 0 -28 4 -25 9 3 4 -18 9 -46 10 -35 0 -55 6 -61 16
-4 8 -16 15 -25 16 -10 0 -12 3 -4 6 17 7 15 33 -3 33 -8 0 -15 -4 -15 -9 0
-5 -14 -14 -31 -20 -27 -9 -30 -9 -19 4 7 8 10 21 7 29 -4 10 4 15 29 18 19 2
34 0 34 -5 0 -5 7 -7 15 -3 8 3 15 1 15 -4 0 -5 7 -7 15 -4 10 4 15 0 15 -14
0 -11 6 -22 13 -25 15 -5 17 30 3 51 -4 7 -5 16 -2 19 3 4 6 0 6 -8 0 -12 2
-12 9 0 11 17 -13 40 -41 41 -27 0 -30 18 -9 39 13 13 23 16 27 10 3 -6 12 -8
19 -5 7 2 17 -6 24 -20 8 -19 8 -24 -4 -24 -8 0 -12 6 -9 13 3 8 -1 14 -9 14
-9 0 -12 -7 -9 -19 6 -23 35 -23 53 -1 12 15 12 16 -1 8 -12 -6 -13 -5 -3 5
10 11 15 11 28 0 20 -16 73 29 60 50 -6 9 -10 8 -17 -4 -13 -24 -36 -4 -44 40
-5 29 -9 32 -24 24 -16 -9 -18 -6 -17 22 3 46 -40 90 -60 62 -19 -26 -16 -36
6 -24 26 13 34 13 25 -2 -5 -7 -3 -8 6 -3 8 5 11 4 6 -3 -3 -6 -19 -9 -34 -8
-34 4 -75 -10 -67 -24 4 -7 13 -7 26 0 11 6 23 9 28 6 13 -9 20 -46 9 -46 -6
0 -5 -6 2 -15 8 -9 8 -15 2 -15 -6 0 -17 -3 -25 -6 -12 -4 -14 0 -10 15 4 15
1 21 -10 21 -9 0 -18 -13 -23 -32 -6 -29 -8 -30 -15 -13 -4 11 -8 16 -8 12 -1
-12 -31 19 -31 32 0 5 -5 13 -12 17 -7 5 -9 2 -5 -9 4 -11 2 -14 -9 -10 -7 3
-14 11 -14 19 0 8 -6 14 -12 15 -7 0 -3 4 10 9 33 14 29 32 -4 19 -24 -8 -25
-8 -14 6 11 13 10 14 -5 9 -13 -5 -16 -4 -11 4 4 7 2 12 -4 12 -7 0 -10 6 -7
13 8 22 -19 16 -34 -7z m61 -90 c0 -8 -4 -18 -10 -21 -5 -3 -10 1 -10 10 0 14
-6 16 -27 11 -21 -5 -24 -4 -13 4 22 15 60 12 60 -4z m-130 -38 c0 -22 -14
-35 -43 -42 -28 -7 -28 -7 -7 14 11 11 25 20 30 20 6 0 10 5 10 10 0 6 2 10 5
10 3 0 5 -6 5 -12z m190 -25 c0 -22 2 -24 15 -13 13 11 14 10 9 -4 -12 -31
-39 -19 -39 18 0 19 3 32 8 29 4 -2 7 -16 7 -30z m76 -61 c-15 -14 -37 -11
-25 4 10 13 6 18 -13 15 -9 -1 -11 13 -2 22 3 3 15 -4 26 -15 11 -11 17 -22
14 -26z m-188 -141 c13 -1 21 -5 18 -10 -4 -5 0 -11 6 -14 7 -2 -6 -6 -29 -8
-42 -4 -59 5 -25 14 9 3 -4 5 -30 6 -37 1 -48 -3 -48 -14 0 -8 -5 -15 -11 -15
-5 0 -8 4 -4 9 3 5 -5 13 -17 17 -29 10 25 21 82 17 19 -1 45 -2 58 -2z m344
-106 c-2 -15 0 -25 6 -23 5 2 9 -1 9 -7 -1 -5 -5 -9 -9 -8 -5 2 -8 -6 -8 -16
0 -18 -17 -38 -24 -30 -15 17 -14 67 1 86 24 30 31 29 25 -2z" />
    <path d="M210 391 c0 -14 5 -18 20 -14 11 3 20 12 20 19 0 8 -9 14 -20 14 -13
0 -20 -7 -20 -19z" />
    <path d="M567 396 c-3 -8 -15 -12 -30 -9 -16 3 -26 -1 -30 -11 -4 -9 -1 -17 6
-17 7 -1 27 -3 45 -5 19 -1 37 -6 40 -10 4 -4 -3 -4 -16 -1 -15 3 -22 1 -19
-6 2 -7 15 -12 28 -13 13 -1 37 -5 53 -9 25 -7 28 -5 23 9 -4 9 -2 16 3 16 6
0 10 7 10 15 0 17 -26 21 -32 4 -8 -24 -58 2 -52 27 7 26 -19 36 -29 10z" />
    <path d="M13 373 c-9 -3 -12 -28 -11 -81 1 -42 3 -60 5 -39 3 24 9 37 19 37
17 0 19 27 2 33 -10 3 -8 9 5 24 26 30 18 42 -20 26z" />
    <path d="M870 266 c0 -56 13 -77 33 -57 8 8 8 11 -1 11 -9 0 -11 14 -7 50 4
41 3 50 -10 50 -12 0 -15 -12 -15 -54z" />
    <path d="M567 293 c-12 -11 -8 -23 8 -23 9 0 12 -6 9 -15 -4 -8 -1 -15 5 -15
14 0 15 27 1 35 -6 4 -8 11 -5 16 7 10 -8 12 -18 2z" />
    <path d="M710 215 c0 -10 10 -15 30 -15 20 0 30 5 30 15 0 10 -10 15 -30 15
-20 0 -30 -5 -30 -15z" />
    <path d="M1 98 c-1 -53 10 -76 22 -45 4 9 6 9 6 0 3 -38 26 -8 28 35 2 37 -1
49 -12 49 -9 0 -15 -11 -16 -26 0 -24 -2 -23 -14 9 -13 35 -13 35 -14 -22z" />
    <path d="M670 116 c0 -12 28 -25 53 -26 18 0 5 28 -15 34 -33 8 -38 8 -38 -8z" />
    <path d="M70 106 c0 -10 9 -16 21 -16 24 0 21 23 -4 28 -10 2 -17 -3 -17 -12z" />
    <path d="M790 74 c0 -11 6 -14 20 -9 11 4 20 2 20 -4 0 -6 -6 -11 -12 -11 -9
0 -8 -4 2 -10 8 -5 11 -10 7 -10 -4 0 -2 -6 5 -13 10 -12 15 -12 26 0 7 7 24
13 38 13 13 0 24 5 24 10 0 6 -11 10 -25 10 -14 0 -25 4 -25 9 0 8 -52 31 -71
31 -5 0 -9 -7 -9 -16z" />
    <path d="M323 56 c0 -16 42 -30 59 -20 7 4 8 3 4 -4 -4 -7 -1 -12 8 -12 31 0
15 27 -23 38 -48 15 -48 15 -48 -2z" />
  </g>
  <g transform="translate(0.000000,96.000000) scale(0.100000,-0.100000)" fill="#877d69" stroke="none">
    <path d="M69 943 c-1 -10 -1 -21 0 -25 0 -5 -5 -8 -11 -8 -9 0 -8 -3 2 -10 12
-7 12 -12 2 -22 -6 -6 -12 -16 -12 -20 0 -13 24 -4 38 15 7 9 19 14 25 11 7
-4 9 -4 5 1 -5 5 4 23 18 42 24 32 24 33 5 33 -12 0 -26 -9 -33 -20 -7 -11
-16 -20 -19 -20 -4 0 -5 9 -2 20 3 11 0 20 -6 20 -6 0 -12 -8 -12 -17z" />
    <path d="M230 915 c-24 -25 -53 -45 -65 -46 -12 0 -15 -3 -7 -6 10 -4 9 -10
-6 -27 -30 -33 -34 -63 -8 -61 16 2 20 8 18 28 -3 29 32 58 41 34 4 -9 6 -9 6
1 1 6 0 13 -1 15 -2 2 22 26 52 55 44 41 51 51 35 52 -12 0 -41 -20 -65 -45z" />
    <path d="M650 943 c0 -19 -5 -21 -52 -18 -29 1 -47 1 -40 -2 6 -3 12 -12 12
-21 0 -15 -2 -15 -10 -2 -9 13 -14 7 -11 -12 2 -11 -17 -10 -24 1 -3 5 -1 12
5 16 5 3 10 12 10 18 0 7 -7 3 -15 -7 -8 -10 -13 -22 -11 -25 2 -3 -15 -6 -39
-7 -23 0 -51 -4 -61 -9 -29 -12 -44 -14 -44 -5 0 4 -10 6 -22 5 -13 -1 -23 -3
-23 -4 0 -1 -20 -4 -43 -6 -95 -8 -48 -15 100 -15 148 0 218 -10 218 -32 0 -5
5 -6 10 -3 16 10 48 -4 53 -23 3 -9 5 0 6 20 1 39 -2 38 65 29 5 0 6 -4 2 -8
-3 -4 8 -12 26 -17 36 -12 54 -76 22 -76 -17 0 -19 -27 -1 -33 6 -2 9 -7 6
-11 -4 -4 -14 0 -22 9 -10 9 -18 11 -22 5 -3 -5 5 -14 19 -20 14 -5 26 -14 26
-20 0 -6 5 -8 12 -4 7 5 9 2 5 -9 -4 -10 -2 -14 6 -11 23 8 50 -20 43 -44 -5
-14 -12 -19 -19 -15 -27 17 -36 11 -19 -12 19 -27 59 -27 78 0 10 14 12 13 17
-4 3 -13 -3 -22 -19 -30 -13 -6 -24 -15 -24 -20 0 -12 54 -3 58 10 2 5 10 16
18 23 19 19 7 51 -12 35 -11 -9 -14 -8 -14 4 0 9 8 22 18 29 17 12 19 29 19
176 1 162 1 162 -61 161 -33 0 -70 -4 -81 -8 -11 -5 -25 -4 -32 1 -16 12 -86
1 -78 -13 11 -17 -28 -9 -41 9 -12 16 -13 15 -14 -5z m238 -281 c-24 -4 -43
12 -34 27 5 7 15 5 31 -6 22 -17 22 -18 3 -21z" />
    <path d="M37 773 c-9 -2 -15 -9 -12 -14 4 -5 -1 -9 -9 -9 -9 0 -16 -7 -16 -15
0 -9 9 -15 24 -15 13 0 26 -6 28 -12 3 -9 9 -8 22 5 24 24 26 22 26 -19 0 -32
-1 -34 -16 -20 -19 19 -30 20 -36 4 -9 -25 4 -38 38 -38 35 0 35 0 32 53 -3
46 -1 52 16 49 11 -2 15 1 11 7 -3 6 -22 11 -41 11 -21 0 -33 4 -29 10 6 10
-6 11 -38 3z" />
    <path d="M687 652 c5 -11 3 -13 -7 -7 -10 6 -11 2 -6 -21 6 -23 5 -27 -5 -16
-22 21 -39 13 -55 -24 -20 -47 -11 -54 24 -21 27 26 28 26 29 6 1 -12 10 -27
20 -34 27 -20 11 -26 -22 -9 -34 17 -52 6 -36 -23 8 -15 7 -20 -5 -20 -8 0
-13 6 -10 13 3 8 1 16 -4 19 -5 3 -10 -7 -12 -22 -2 -19 -8 -27 -18 -25 -8 2
-12 0 -7 -4 4 -4 -9 -24 -29 -45 -36 -36 -36 -36 -9 -43 14 -4 23 -10 21 -15
-3 -5 0 -9 7 -8 33 1 48 -4 41 -14 -4 -8 1 -9 16 -4 15 5 20 4 16 -4 -4 -6 -3
-11 3 -11 5 0 13 5 16 10 3 6 12 10 18 9 9 0 9 -2 0 -6 -21 -8 -15 -33 8 -33
11 0 17 5 14 10 -3 6 -1 10 5 10 6 0 8 5 5 10 -4 6 13 10 42 10 49 0 49 0 45
-33 -3 -26 0 -34 12 -34 11 0 16 9 16 29 0 26 2 28 20 18 12 -6 20 -21 20 -35
0 -14 5 -25 10 -25 6 0 10 12 10 26 0 14 4 23 10 19 9 -6 15 27 11 68 -2 19
15 24 21 5 3 -7 7 -5 11 6 4 10 3 15 -3 11 -6 -3 -10 -1 -10 5 0 6 -4 9 -9 6
-5 -3 -12 1 -15 10 -8 22 -8 26 4 19 14 -9 12 18 -2 34 -10 11 -10 13 0 7 7
-4 12 -1 12 8 0 19 -11 21 -27 5 -9 -9 -16 -8 -27 4 -12 11 -13 18 -5 23 7 4
-1 12 -21 20 -40 17 -48 18 -32 2 20 -20 14 -31 -14 -24 -19 5 -24 4 -19 -6 4
-7 -1 -4 -10 7 -15 19 -15 20 4 23 13 2 18 9 14 18 -3 8 0 14 6 14 6 0 8 7 4
16 -3 9 -1 19 6 23 9 6 7 12 -5 22 -12 9 -15 10 -10 2 4 -8 2 -13 -4 -13 -6 0
-8 -5 -5 -10 8 -14 -4 -52 -15 -45 -5 3 -11 1 -15 -5 -3 -5 -17 -9 -30 -8 -26
2 -31 33 -7 43 7 2 10 0 7 -5 -3 -6 -2 -10 3 -10 5 0 12 10 16 23 9 33 8 37
-11 37 -14 0 -15 2 -5 9 11 6 9 9 -6 13 -16 4 -19 2 -15 -10z m48 -141 c7 -22
39 -33 54 -18 15 15 27 -1 15 -21 -5 -9 -9 -33 -9 -52 0 -33 -1 -35 -21 -26
-12 6 -20 14 -18 18 6 10 1 10 -20 2 -15 -6 -15 -7 0 -18 14 -11 12 -12 -14
-12 -17 1 -34 4 -38 8 -4 4 -13 3 -21 -3 -10 -9 -13 -4 -13 30 0 34 3 41 20
41 12 0 20 -7 20 -17 0 -14 -2 -15 -9 -4 -6 9 -11 10 -15 2 -4 -6 -4 -11 1
-12 4 0 16 -2 25 -4 10 -2 21 2 25 7 3 7 1 8 -5 4 -7 -4 -12 -3 -12 3 0 5 5
13 10 16 21 13 9 21 -26 17 -24 -3 -38 -11 -43 -25 -8 -20 -8 -20 -13 1 -4 15
-2 22 8 22 17 0 17 5 4 31 -8 13 -7 19 1 19 6 0 13 -9 16 -20 5 -21 33 -28 33
-9 0 5 5 7 10 4 6 -4 10 -3 9 2 -6 34 16 46 26 14z m136 -84 c-14 -14 -14 -30
-1 -22 6 3 7 -1 4 -9 -8 -20 -13 -20 -34 -1 -16 15 -17 14 -12 -12 2 -15 2
-25 -2 -22 -14 13 -17 60 -4 58 27 -3 38 2 38 17 0 8 5 12 11 8 8 -4 8 -9 0
-17z" />
    <path d="M23 648 c4 -12 1 -18 -7 -18 -9 0 -13 -10 -12 -25 0 -14 6 -25 12
-25 7 0 11 8 10 18 -1 11 6 16 17 16 20 -2 21 -6 -22 46 -2 3 -1 -3 2 -12z" />
    <path d="M435 610 c3 -6 0 -13 -7 -15 -19 -7 -20 -72 -2 -79 10 -4 13 4 12 31
-1 20 4 39 10 41 18 6 14 32 -4 32 -8 0 -12 -5 -9 -10z" />
    <path d="M206 593 c2 -7 -3 -13 -10 -13 -17 0 -29 -27 -16 -35 6 -4 10 -11 10
-16 0 -6 -4 -7 -10 -4 -5 3 -10 -1 -10 -10 0 -9 -4 -13 -10 -10 -5 3 -10 1
-10 -4 0 -6 5 -11 10 -11 15 0 12 -26 -5 -40 -8 -7 -12 -16 -9 -22 4 -5 11 -5
18 1 7 6 16 8 19 4 4 -3 9 2 13 11 3 9 10 16 15 16 15 0 10 -32 -8 -52 -15
-17 -15 -20 -3 -28 11 -7 16 -5 18 5 2 8 8 15 13 15 6 0 8 -4 4 -9 -11 -18 18
-24 31 -6 9 12 22 16 43 13 22 -3 31 0 34 13 4 15 10 17 36 9 32 -9 37 -5 22
19 -8 12 -12 12 -25 2 -9 -8 -16 -12 -17 -10 -8 38 3 69 13 38 9 -28 81 -15
89 15 10 37 6 42 -15 20 -14 -13 -14 -19 -4 -33 9 -11 6 -10 -10 3 -24 21 -29
31 -9 20 8 -5 8 -3 -1 7 -11 12 -15 11 -26 -3 -7 -10 -16 -15 -19 -11 -10 9
-9 25 1 19 4 -3 13 8 19 24 9 25 9 28 -8 27 -14 -1 -15 -4 -7 -15 6 -7 7 -12
2 -11 -20 3 -35 -2 -29 -10 3 -5 1 -12 -5 -16 -5 -3 -10 -24 -10 -45 0 -21 -5
-42 -11 -46 -7 -4 -10 6 -8 30 2 21 -2 41 -10 48 -11 11 -13 9 -9 -8 3 -13 0
-21 -7 -21 -7 0 -11 6 -8 14 3 8 -2 13 -16 13 -12 0 -21 -4 -21 -10 0 -5 -5
-10 -11 -10 -6 0 -8 13 -5 30 4 25 1 30 -17 30 -20 1 -20 2 -4 11 9 5 23 7 30
4 6 -4 2 3 -11 14 -13 11 -22 23 -22 26 1 3 0 9 -3 13 -2 4 -2 1 -1 -5z" />
    <path d="M96 589 c4 -7 -3 -9 -17 -7 -22 3 -25 -2 -29 -44 -6 -46 16 -54 41
-15 4 5 6 -4 5 -22 -1 -26 -4 -30 -20 -25 -15 5 -18 3 -13 -10 5 -13 0 -15
-28 -11 -30 3 -35 1 -35 -16 0 -11 4 -18 9 -15 5 4 12 0 15 -6 3 -10 9 -8 19
5 13 15 16 15 27 2 7 -8 17 -12 23 -8 6 3 7 1 3 -6 -6 -9 -11 -9 -22 0 -13 10
-18 6 -15 -13 0 -4 -6 -5 -13 -2 -10 4 -14 0 -12 -12 3 -21 26 -32 26 -13 0 7
3 10 6 6 4 -3 13 1 22 9 10 11 17 12 22 4 11 -18 57 -22 57 -5 0 8 -9 17 -19
21 -18 5 -22 14 -18 47 1 10 -4 26 -12 35 -11 13 -11 14 0 8 13 -8 13 1 3 85
-1 4 -8 10 -17 13 -9 3 -12 2 -8 -5z" />
    <path d="M447 566 c-3 -9 15 -36 25 -36 2 0 4 11 4 23 2 24 -22 34 -29 13z" />
    <path d="M9 556 c8 -10 9 -16 1 -21 -16 -10 -12 -55 5 -55 15 0 16 4 19 60 1
23 -3 30 -18 30 -15 0 -16 -3 -7 -14z" />
    <path d="M494 440 c0 -23 2 -27 13 -18 7 6 13 18 13 26 0 13 3 12 15 -4 8 -10
15 -14 15 -7 0 13 -17 26 -41 30 -11 2 -15 -6 -15 -27z" />
    <path d="M417 370 c-16 -5 -36 -15 -45 -22 -9 -7 -13 -8 -9 -2 4 7 -6 10 -28
10 -27 -1 -31 -3 -22 -15 13 -15 -27 -13 -65 4 -13 5 -18 3 -18 -10 0 -12 5
-15 21 -10 18 6 20 5 10 -14 -10 -18 -9 -21 9 -21 11 0 20 4 20 9 0 4 11 6 25
3 30 -5 52 -37 31 -45 -16 -6 -29 -47 -13 -44 21 4 49 40 51 63 0 13 6 24 12
24 14 0 25 47 12 54 -5 2 -3 3 4 2 8 -2 13 -18 13 -39 0 -30 2 -34 13 -23 9 9
10 19 3 39 -10 25 -7 31 12 28 5 -1 6 3 2 9 -3 5 -7 10 -8 9 -1 0 -15 -5 -30
-9z" />
    <path d="M138 360 c-4 -12 -63 -16 -109 -7 -23 4 -26 1 -26 -19 0 -14 5 -24
14 -24 8 0 11 -4 8 -10 -3 -5 2 -10 12 -11 10 0 13 -3 6 -6 -22 -8 -14 -20 12
-20 13 0 23 4 22 10 -1 6 21 12 48 14 92 6 106 30 23 36 -53 3 -53 3 10 5 60
2 91 22 34 22 -15 0 -33 5 -39 11 -8 8 -12 7 -15 -1z" />
    <path d="M830 261 c0 -22 5 -42 13 -44 10 -4 10 -6 0 -6 -7 -1 -13 -11 -14
-23 0 -22 -1 -22 -8 -3 -5 11 -6 24 -3 29 7 13 -16 24 -42 19 -30 -6 -30 -33
0 -33 24 0 44 -45 44 -97 0 -14 6 -23 15 -23 11 0 15 12 15 49 0 50 0 50 37
53 39 3 55 21 28 32 -11 4 -14 2 -10 -7 4 -6 -2 -2 -13 11 -11 12 -25 22 -31
22 -6 0 -11 14 -11 30 0 17 -4 30 -10 30 -5 0 -10 -18 -10 -39z" />
    <path d="M3 235 c0 -37 2 -40 29 -42 17 -1 26 2 23 8 -4 5 -11 7 -16 4 -5 -3
-6 1 -3 9 4 10 1 16 -9 16 -9 0 -18 10 -20 23 -2 12 -4 4 -4 -18z" />
    <path d="M200 267 c0 -18 38 -45 44 -31 10 27 7 34 -19 34 -14 0 -25 -2 -25
-3z" />
    <path d="M653 215 c0 -11 11 -15 37 -15 26 0 37 4 37 15 0 11 -11 15 -37 15
-26 0 -37 -4 -37 -15z" />
    <path d="M440 208 c0 -9 4 -19 10 -23 5 -3 7 -13 4 -23 -4 -11 2 -9 17 8 15
17 20 19 16 8 -4 -10 -3 -18 2 -18 4 0 8 -7 8 -15 0 -10 -4 -12 -12 -5 -9 7
-17 5 -26 -7 -12 -15 -12 -16 3 -10 13 4 15 2 11 -10 -4 -11 -2 -14 5 -9 16
10 15 -7 0 -23 -11 -10 -9 -11 5 -5 10 3 17 3 16 -2 -4 -23 3 -33 32 -43 47
-16 62 5 55 74 -6 58 -1 64 30 39 10 -8 13 -12 5 -8 -9 5 -12 3 -7 -5 5 -7 16
-9 28 -5 15 4 18 3 13 -7 -6 -9 -2 -11 13 -7 14 4 20 2 15 -5 -4 -6 2 -8 15
-5 14 4 20 2 16 -4 -4 -6 -1 -9 6 -6 29 9 18 24 -29 41 -40 14 -48 21 -44 37
5 20 0 22 -72 33 -28 5 -29 4 -10 -10 11 -8 30 -12 43 -10 12 2 22 0 22 -4 0
-5 -20 -8 -44 -7 -26 0 -44 6 -43 12 1 6 -17 12 -43 14 -24 2 -48 9 -52 15 -5
8 -8 6 -8 -5z" />
    <path d="M367 203 c-9 -2 -15 -9 -11 -14 3 -5 10 -7 15 -4 5 4 9 0 9 -7 0 -10
-18 -12 -75 -10 -46 1 -75 -1 -75 -8 0 -5 12 -10 26 -10 14 0 23 -4 19 -10 -3
-5 1 -10 10 -10 9 0 13 5 10 10 -4 6 16 10 52 9 32 0 52 -3 46 -6 -18 -7 -16
-23 1 -23 11 0 14 11 13 42 -2 42 -9 49 -40 41z" />
    <path d="M925 181 c-3 -6 -15 -11 -27 -11 -16 0 -19 -5 -14 -22 3 -13 6 -29 6
-35 0 -7 7 -13 16 -13 8 0 12 -4 9 -10 -3 -5 0 -10 7 -11 7 0 2 -5 -12 -10
-13 -6 -34 -8 -46 -5 -15 4 -24 0 -28 -10 -6 -15 -4 -15 11 -3 15 13 16 12 11
-8 -4 -13 -2 -23 3 -23 5 0 9 5 9 10 0 13 37 13 45 0 4 -6 11 -8 16 -5 5 4 9
1 9 -4 0 -47 17 4 18 54 1 36 -3 65 -8 65 -6 0 -10 5 -10 11 0 5 5 7 11 3 7
-4 10 1 7 11 -4 22 -23 31 -33 16z" />
    <path d="M120 150 c0 -18 7 -20 56 -20 47 0 55 3 50 16 -3 9 -6 18 -6 20 0 2
-22 4 -50 4 -43 0 -50 -3 -50 -20z" />
    <path d="M3 85 c0 -44 2 -72 4 -63 3 10 11 18 18 18 9 0 13 14 13 45 0 31 -4
45 -13 45 -7 0 -15 8 -18 18 -2 9 -4 -19 -4 -63z" />
    <path d="M50 104 c0 -11 21 -14 96 -14 61 0 93 4 89 10 -9 15 11 12 24 -3 6
-8 7 -17 3 -22 -4 -4 3 -4 15 -1 12 4 24 2 29 -5 5 -8 3 -9 -6 -4 -9 5 -11 4
-6 -4 5 -7 16 -9 28 -5 15 4 18 3 13 -7 -6 -9 -2 -11 13 -7 14 4 20 2 16 -4
-4 -6 -1 -9 6 -6 25 8 21 26 -7 33 -15 3 -42 18 -60 31 -38 29 -253 36 -253 8z" />
    <path d="M753 98 c5 -27 47 -39 47 -14 0 8 -7 17 -16 20 -24 9 -34 7 -31 -6z" />
  </g>
  <g transform="translate(0.000000,96.000000) scale(0.100000,-0.100000)" fill="#ecdfbc" stroke="none">
    <path d="M0 792 c0 -10 58 -22 105 -21 25 0 27 2 10 8 -34 14 -115 23 -115 13z" />
    <path d="M246 551 c-4 -5 0 -11 6 -14 10 -4 10 -7 0 -18 -11 -12 -14 -12 -21
0 -10 15 -31 7 -31 -12 0 -21 54 -14 63 7 7 19 8 19 22 0 17 -22 20 -48 5 -39
-6 4 -9 1 -8 -6 2 -7 -9 -19 -25 -26 -15 -8 -25 -18 -22 -24 4 -5 16 -2 29 6
12 8 26 12 30 8 4 -5 7 -3 6 2 -5 21 0 36 10 30 13 -8 13 -4 -5 38 -15 37 -49
64 -59 48z" />
    <path d="M366 552 c-2 -4 -1 -14 5 -22 5 -8 9 -19 9 -25 0 -5 -4 -4 -9 4 -11
17 -39 23 -46 11 -3 -5 4 -7 16 -5 12 2 19 2 16 -2 -4 -3 -2 -14 4 -24 6 -13
6 -19 -1 -19 -5 0 -10 7 -10 15 0 8 -5 15 -10 15 -7 0 -7 -7 0 -20 6 -11 8
-26 4 -32 -4 -6 -3 -8 4 -4 6 3 14 1 18 -5 10 -17 25 12 18 35 -5 13 -3 16 7
11 8 -6 11 -4 7 7 -4 8 -2 21 4 29 8 11 9 10 4 -3 -6 -20 2 -23 24 -7 11 8 12
12 2 16 -6 2 -10 8 -7 13 3 4 -2 11 -10 14 -9 3 -18 -1 -21 -9 -4 -8 -10 -12
-15 -9 -5 3 -7 10 -4 15 4 5 4 9 1 9 -3 0 -7 -4 -10 -8z" />
    <path d="M122 518 c-2 -22 -7 -28 -25 -28 -13 0 -27 -4 -33 -10 -5 -5 -22 -11
-36 -12 -18 -2 -26 -8 -25 -19 1 -9 7 -15 14 -12 7 3 10 9 7 14 -7 12 9 11 24
-1 6 -6 10 -7 7 -3 -3 3 4 12 14 20 26 18 54 6 47 -20 -3 -13 -2 -17 5 -10 6
6 8 32 6 59 -2 27 -4 37 -5 22z" />
    <path d="M460 521 c0 -11 5 -23 12 -27 7 -5 9 -2 5 8 -8 22 3 30 19 13 16 -16
19 -29 4 -20 -5 3 -10 -1 -10 -9 0 -8 5 -18 10 -21 8 -5 7 -11 -1 -21 -6 -7
-15 -12 -19 -9 -9 5 -23 -25 -16 -33 9 -8 37 8 31 17 -3 6 2 14 12 19 14 9 15
13 4 26 -11 14 -11 16 3 16 22 0 20 13 -7 38 -29 27 -47 28 -47 3z" />
    <path d="M886 525 c6 -15 4 -16 -14 -6 -26 14 -42 14 -42 0 0 -5 5 -7 11 -3 7
4 20 -4 31 -17 11 -13 17 -17 13 -9 -4 9 0 8 8 -3 11 -14 13 -26 7 -49 -8 -25
-7 -28 5 -18 8 7 20 10 27 7 8 -4 7 -6 -4 -6 -10 -1 -18 -8 -18 -17 0 -8 4
-13 9 -9 5 3 12 1 16 -5 15 -24 25 5 25 70 0 59 -3 69 -17 69 -10 -1 -28 2
-41 6 -18 6 -21 4 -16 -10z" />
    <path d="M770 494 c0 -7 -10 -14 -22 -17 -13 -2 -2 -4 24 -3 30 1 48 5 48 13
0 7 -7 10 -17 6 -10 -4 -14 -2 -10 4 3 5 0 10 -8 10 -8 0 -15 -6 -15 -13z" />
    <path d="M175 471 c3 -2 -2 -15 -10 -27 -13 -20 35 3 61 29 2 1 -11 2 -26 2
-16 1 -27 -1 -25 -4z" />
    <path d="M436 451 c-4 -6 -5 -15 -2 -20 4 -5 0 -11 -6 -14 -7 -2 -10 -7 -7
-11 13 -14 42 21 32 39 -7 12 -13 14 -17 6z" />
    <path d="M60 409 c-19 -10 -28 -18 -20 -19 13 0 13 -1 0 -10 -21 -14 -28 -12
-33 8 -3 9 -4 5 -4 -10 1 -15 4 -25 8 -22 4 2 10 0 14 -6 3 -5 20 -10 36 -10
18 0 28 4 24 10 -4 6 -15 8 -25 5 -10 -3 -21 -1 -25 4 -4 7 1 8 11 4 13 -5 15
-3 9 7 -6 10 -4 12 9 7 10 -4 15 -3 11 3 -3 6 -1 10 6 10 7 0 9 3 6 7 -4 3 -2
12 4 20 14 16 13 16 -31 -8z" />
    <path d="M394 420 c5 -11 -2 -16 -26 -17 -17 -1 -35 -8 -39 -14 -4 -6 -11 -9
-16 -6 -6 4 -18 0 -28 -7 -13 -9 -15 -15 -7 -20 7 -4 12 -2 12 3 0 6 9 11 20
11 12 0 34 7 50 15 17 9 30 12 30 8 0 -4 5 -2 12 5 9 9 9 15 -1 25 -10 10 -11
9 -7 -3z" />
    <path d="M153 398 c-12 -20 -14 -48 -3 -48 6 0 10 3 10 8 0 4 11 12 24 18 25
12 44 -5 30 -27 -3 -5 2 -9 11 -9 9 0 13 5 10 10 -3 6 1 13 10 16 8 4 20 16
26 28 9 19 9 20 -4 3 -12 -14 -20 -15 -40 -8 -17 7 -28 7 -32 1 -4 -6 -16 -10
-28 -9 -20 0 -21 1 -3 8 13 5 16 10 9 14 -7 4 -15 2 -20 -5z" />
    <path d="M860 371 c0 -5 7 -14 15 -21 8 -7 15 -24 16 -39 0 -14 3 -21 5 -14 6
13 34 6 34 -9 0 -5 -5 -6 -11 -2 -9 5 -10 -3 -5 -30 4 -21 3 -36 -3 -36 -5 0
-8 -8 -6 -17 2 -10 4 -24 4 -30 1 -21 29 -15 41 8 9 17 8 23 -7 36 -10 8 -13
12 -7 9 8 -4 12 6 11 32 -1 20 2 53 6 72 5 22 5 30 -1 22 -7 -11 -11 -9 -15 8
-5 21 -6 21 -31 5 -24 -16 -26 -16 -26 -1 0 9 -4 16 -10 16 -5 0 -10 -4 -10
-9z" />
    <path d="M458 363 c21 -8 15 -42 -7 -38 -14 2 -18 -1 -14 -11 3 -7 10 -11 15
-8 6 4 9 1 6 -7 -3 -8 -14 -14 -25 -15 -11 -1 -27 -5 -34 -10 -8 -5 -17 -9
-21 -9 -37 -1 4 -20 44 -21 29 -1 38 1 21 3 -43 6 -43 21 0 18 89 -7 85 -6 57
-15 -21 -7 -18 -8 18 -9 30 -1 41 -5 36 -13 -4 -7 -3 -8 4 -4 7 4 12 16 12 27
0 10 5 19 10 19 13 0 13 -4 -4 -45 -16 -37 -15 -38 62 -35 4 0 7 17 6 38 -1
20 1 27 3 15 4 -19 11 -22 81 -25 77 -3 77 -3 77 55 0 38 -4 57 -12 57 -7 0
-10 -6 -8 -12 4 -10 -10 -12 -55 -10 -33 2 -58 8 -54 13 5 9 -8 13 -40 9 -10
-1 -15 3 -12 8 10 17 -38 1 -53 -17 -12 -14 -12 -13 -6 6 5 19 1 25 -20 33
-26 10 -112 13 -87 3z" />
    <path d="M300 333 c-44 -8 -49 -25 -5 -19 26 4 33 3 21 -2 -19 -8 -18 -9 4
-15 13 -3 27 -2 30 4 11 16 39 -1 33 -19 -4 -11 2 -9 17 7 39 40 -8 60 -100
44z" />
    <path d="M115 299 c3 -4 -2 -10 -11 -13 -8 -3 -12 -2 -9 4 3 6 -1 7 -9 4 -9
-3 -13 -11 -9 -17 4 -6 0 -8 -10 -4 -10 4 -14 2 -11 -6 3 -8 31 -11 95 -9 58
2 89 0 85 -6 -3 -6 -1 -12 6 -14 6 -2 9 -12 5 -21 -7 -19 -217 -26 -217 -7 0
5 -7 7 -15 4 -46 -18 6 -24 193 -22 114 0 192 3 174 5 -20 3 -30 8 -26 15 5 7
1 9 -9 5 -11 -4 -21 1 -28 14 -6 11 -17 18 -24 15 -11 -4 -13 2 -9 23 5 25 3
29 -26 35 -45 8 -72 8 -66 -2 3 -5 -15 -6 -39 -2 -24 4 -42 3 -40 -1z" />
    <path d="M227 153 c-3 -5 23 -7 56 -5 111 5 124 9 35 10 -48 1 -89 -1 -91 -5z" />
    <path d="M600 127 c0 -9 -5 -19 -12 -23 -7 -5 -8 -3 -3 6 5 8 4 11 -2 7 -6 -4
-9 -18 -7 -33 5 -46 -22 -64 -98 -64 -58 0 -68 3 -68 18 0 10 3 13 8 7 4 -6
20 -8 37 -4 30 7 30 7 -1 8 -16 0 -35 6 -42 13 -9 9 -12 7 -12 -11 0 -17 -4
-22 -16 -17 -9 3 -18 6 -20 6 -3 0 -2 5 1 10 4 7 -3 8 -21 4 -21 -5 -25 -4
-19 6 5 8 4 11 -2 7 -10 -6 -74 12 -83 25 -5 7 -64 10 -141 9 -40 -1 -45 -4
-45 -22 1 -28 -31 -34 -39 -8 -4 10 -3 24 1 30 4 7 3 9 -3 6 -6 -4 -11 -30
-11 -57 -1 -50 -1 -50 318 -50 175 1 320 5 322 10 2 4 40 19 86 32 74 21 113
47 61 41 -13 -2 -18 1 -13 9 4 7 3 8 -5 4 -17 -11 -63 2 -55 15 4 8 -1 9 -16
4 -14 -4 -20 -3 -17 2 4 6 -6 10 -21 10 -15 0 -35 3 -44 7 -13 6 -18 4 -18 -7z" />
    <path d="M815 20 c-4 -6 -10 -8 -15 -5 -5 3 -11 2 -14 -3 -2 -4 6 -8 19 -8 13
0 21 4 18 9 -4 6 5 8 21 5 14 -3 26 -1 26 3 0 13 -47 11 -55 -1z" />
  </g>
  <g transform="translate(0.000000,96.000000) scale(0.100000,-0.100000)" fill="#544f43" stroke="none">
    <path d="M73 928 c1 -26 -6 -45 -21 -61 -51 -54 -17 -35 39 22 60 61 77 102
20 47 -29 -28 -29 -28 -34 0 -3 22 -4 20 -4 -8z" />
    <path d="M239 917 c-77 -74 -115 -121 -59 -72 62 53 113 105 108 110 -2 3 -24
-14 -49 -38z" />
    <path d="M768 853 c29 -2 74 -2 100 0 26 2 2 3 -53 3 -55 0 -76 -1 -47 -3z" />
    <path d="M933 751 c9 -12 9 -13 0 -7 -7 4 -13 3 -13 -3 0 -5 5 -13 11 -16 7
-5 4 -14 -7 -26 -16 -18 -18 -18 -36 -2 -19 17 -19 18 -1 24 16 7 15 8 -4 8
-13 1 -26 1 -30 2 -4 0 -9 -5 -11 -13 -2 -9 0 -8 7 2 8 11 11 11 11 2 0 -19
-31 -27 -41 -11 -5 8 -9 9 -9 3 0 -6 11 -24 24 -39 14 -16 22 -34 19 -39 -3
-6 0 -5 8 2 24 22 46 14 47 -18 0 -17 3 -39 7 -49 4 -14 0 -21 -14 -26 -10 -3
-32 -22 -48 -43 -28 -37 -28 -37 -34 -2 -6 31 -7 29 -8 -17 -1 -58 7 -70 35
-47 10 9 12 12 4 8 -13 -7 -13 -6 -1 10 24 29 34 3 26 -69 -7 -70 -16 -74 -34
-15 -7 27 -9 2 -6 -103 4 -146 1 -162 -15 -94 -11 42 -11 42 -96 39 -46 -2
-84 -8 -84 -13 0 -5 0 -12 1 -15 0 -3 -7 -11 -16 -18 -20 -14 -4 -23 105 -61
36 -13 97 -34 135 -49 70 -25 70 -25 73 41 2 46 -1 69 -10 74 -7 4 -9 11 -5
15 4 4 14 -1 22 -12 14 -18 14 -17 15 11 0 17 -4 26 -8 20 -4 -5 -22 -10 -39
-11 -39 0 -42 15 -32 154 1 12 5 22 10 22 8 0 6 25 -6 118 -5 33 -3 42 9 42
26 0 70 46 51 54 -16 6 -12 44 5 56 4 3 6 16 4 30 -1 14 -3 41 -3 61 -1 24 -6
36 -16 36 -12 0 -12 -3 -2 -16z m-16 -626 c10 -30 9 -35 -5 -35 -8 0 -13 3
-10 6 4 3 2 19 -2 35 -12 42 4 36 17 -6z" />
    <path d="M35 751 c-19 -8 -19 -8 0 -18 13 -8 19 -23 20 -49 1 -36 3 -39 30
-39 17 1 30 6 29 13 -1 7 -2 32 -2 57 -2 48 -22 57 -77 36z" />
    <path d="M430 585 c0 -9 -7 -18 -15 -21 -8 -4 -12 -10 -9 -15 10 -17 22 -9 33
21 6 18 6 30 0 30 -5 0 -9 -7 -9 -15z" />
    <path d="M58 573 c-14 -32 -1 -68 25 -71 24 -3 27 0 27 27 0 18 -5 31 -12 31
-9 0 -8 4 2 10 12 8 9 10 -12 10 -15 0 -28 -3 -30 -7z" />
    <path d="M194 515 c-4 -8 -9 -13 -13 -11 -4 3 -7 -5 -8 -17 0 -12 1 -16 4 -9
8 21 21 13 15 -10 -3 -14 -2 -19 7 -14 6 4 9 12 6 17 -4 5 -1 9 5 9 22 0 28
-43 9 -64 -10 -10 -16 -23 -13 -28 7 -11 31 -10 39 2 3 6 -1 7 -9 4 -22 -8
-20 12 2 28 9 7 17 19 18 26 2 30 5 34 19 28 20 -7 19 1 -5 26 -20 21 -20 21
-20 2 0 -28 -10 -36 -26 -19 -17 17 -18 32 -1 38 7 3 5 6 -6 6 -10 1 -20 -6
-23 -14z" />
    <path d="M385 474 c-19 -46 -19 -54 1 -54 8 0 13 4 9 9 -3 5 4 16 15 24 18 13
19 15 4 21 -9 3 -14 12 -10 21 12 32 -5 13 -19 -21z" />
    <path d="M97 473 c-13 -12 -7 -51 9 -57 9 -4 14 -13 10 -21 -3 -8 -1 -15 3
-15 5 0 11 6 14 13 6 15 -17 50 -26 40 -10 -10 -8 6 3 28 10 18 1 27 -13 12z" />
    <path d="M310 460 c0 -11 -4 -20 -10 -20 -5 0 -10 -7 -10 -15 0 -8 7 -15 15
-15 10 0 15 11 15 35 0 19 -2 35 -5 35 -3 0 -5 -9 -5 -20z" />
    <path d="M3 436 c-3 -5 -1 -6 5 -2 6 3 14 2 17 -4 5 -8 11 -8 19 -1 7 6 15 8
18 5 3 -3 9 -1 12 4 3 6 -9 10 -30 9 -19 -1 -38 -5 -41 -11z" />
    <path d="M639 404 c0 -33 -3 -43 -8 -30 -7 18 -8 18 -14 2 -10 -24 -11 -23 24
-40 36 -18 49 -14 49 15 0 10 5 19 12 19 6 0 9 2 6 5 -12 13 -38 -8 -33 -26 4
-11 2 -19 -4 -19 -6 0 -11 1 -11 3 -1 1 -3 27 -6 57 -8 71 -14 77 -15 14z" />
    <path d="M66 393 c-29 -12 -41 -13 -44 -5 -7 21 -22 13 -22 -13 0 -24 0 -24
51 -1 74 35 85 48 15 19z" />
    <path d="M720 365 c-22 -13 -23 -14 -5 -14 11 0 31 6 45 14 22 13 23 14 5 14
-11 0 -31 -6 -45 -14z" />
    <path d="M40 340 c8 -5 23 -10 32 -10 9 0 18 -5 20 -10 5 -16 158 -23 158 -7
0 27 -19 32 -120 34 -68 1 -100 -1 -90 -7z" />
    <path d="M728 323 c18 -2 45 -2 60 0 15 2 0 4 -33 4 -33 0 -45 -2 -27 -4z" />
    <path d="M0 261 c0 -26 5 -41 15 -45 17 -6 31 17 20 34 -4 6 9 17 29 25 48 20
45 25 -14 25 -50 0 -50 0 -50 -39z" />
    <path d="M356 282 c-3 -6 0 -13 6 -15 8 -4 7 -6 -4 -6 -18 -1 -28 -19 -20 -38
7 -20 22 -15 22 6 0 11 5 21 12 23 8 3 8 9 1 22 -6 11 -13 14 -17 8z" />
    <path d="M0 141 c0 -32 15 -49 24 -29 3 7 3 2 0 -12 -4 -14 -11 -27 -15 -28
-5 -2 -7 -8 -3 -13 12 -20 34 22 34 65 0 39 -3 46 -20 46 -15 0 -20 -7 -20
-29z" />
    <path d="M57 163 c-19 -18 -7 -53 18 -53 21 0 25 5 25 30 0 29 -25 42 -43 23z" />
    <path d="M173 142 c-38 -2 -53 -7 -53 -18 0 -16 3 -16 82 -14 46 1 64 -3 90
-23 83 -60 118 -61 118 -3 0 53 0 53 -87 55 -48 1 -89 3 -92 4 -3 1 -30 1 -58
-1z" />
  </g>
</svg>