<svg width="960.000000pt" height="687.000000pt" viewBox="0 0 960.000000 687.000000" xmlns="http://www.w3.org/2000/svg">
  <g transform="translate(0.000000,687.000000) scale(0.100000,-0.100000)" fill="#fec94d" stroke="none">
    
    <path d="M6260 1495 l0 -15 540 0 540 0 0 15 0 15 -540 0 -540 0 0 -15z" />
  </g>
  <g transform="translate(0.000000,687.000000) scale(0.100000,-0.100000)" fill="#43c4e4" stroke="none">
    <path d="M2634 4603 l-24 -22 -10 -26 -10 -26 0 -1369 0 -1369 10 -26 10 -27
14 -14 15 -14 15 0 16 0 0 -15 0 -15 14 0 15 0 6 10 6 10 2305 0 2304 0 21
-13 22 -12 4 13 5 12 15 0 14 0 15 14 14 15 3 1415 2 1416 -7 0 -7 0 -3 23 -3
22 -22 3 -23 3 0 7 0 7 -2356 0 -2356 0 -24 -22z m3150 -575 l8 -293 -7 -27
-7 -28 16 0 16 0 0 10 0 10 163 0 162 0 14 -22 14 -23 5 -562 5 -562 -16 -15
-16 -16 -165 0 -166 0 0 10 0 10 -15 0 -16 0 -6 -17 -7 -17 12 -4 12 -4 0
-208 0 -208 -16 -6 -16 -6 -1282 0 -1282 0 -12 12 -12 12 0 1123 0 1123 1304
0 1303 0 7 -292z" />
  </g>
  <g transform="translate(0.000000,687.000000) scale(0.100000,-0.100000)" fill="#000000" stroke="none">
    <path d="M2590 4789 l-45 -20 -53 -55 -52 -56 6 -9 5 -9 -10 0 -11 0 1 -7 1
-8 -2 -5 -2 -5 -6 -20 -6 -20 -1 -1415 0 -1415 7 -22 6 -21 17 -34 17 -33 32
-33 31 -34 55 -26 55 -27 2380 0 2380 0 23 7 24 7 44 26 43 25 25 33 25 33 20
44 20 45 1 1422 0 1421 -12 29 -11 28 1 8 2 7 -11 0 -10 0 6 10 6 10 -15 6
-16 6 5 8 5 8 -40 36 -40 36 -15 0 -15 0 0 12 0 11 -6 -5 -5 -6 -27 14 -27 14
-2380 0 -2380 0 -45 -21z m4787 -179 l32 -19 16 -30 15 -30 0 -1370 0 -1370
-12 -28 -13 -28 -10 -10 -11 -10 -22 -12 -22 -13 -2333 0 -2333 0 -36 30 -37
31 -11 37 -10 37 0 1335 0 1335 10 34 10 34 22 25 23 24 20 8 20 9 2325 0
2325 1 32 -20z" />
    <path d="M4800 3115 l0 -15 10 0 10 0 0 -90 0 -90 -10 0 -10 0 0 -18 0 -19 90
1 90 1 0 33 0 32 -20 0 -20 0 0 -15 0 -15 -40 0 -40 0 0 35 0 35 45 0 45 0 0
20 0 20 -45 0 -45 0 0 30 0 30 40 0 40 0 0 -15 0 -15 20 0 20 0 0 35 0 35 -90
0 -90 0 0 -15z" />
    <path d="M4990 3115 l0 -15 10 0 10 0 0 -90 0 -90 -10 0 -10 0 0 -18 0 -19 45
0 45 0 0 19 0 18 -10 0 -10 0 0 30 0 30 8 0 8 0 37 -50 37 -50 25 0 25 0 0 14
0 13 -36 38 -35 38 20 21 21 22 0 36 0 35 -18 16 -19 17 -71 0 -72 0 0 -15z
m128 -37 l12 -10 0 -9 0 -8 -16 -15 -15 -16 -20 0 -19 0 0 41 0 40 23 -7 22
-6 13 -10z" />
    <path d="M5210 3115 l0 -15 10 0 10 0 0 -90 0 -90 -10 0 -10 0 0 -18 0 -19 45
0 45 0 0 19 0 18 -10 0 -10 0 0 31 0 31 9 -4 9 -3 34 -45 34 -45 27 -3 27 -3
0 20 0 21 -12 0 -13 0 -22 34 -22 34 20 18 19 17 0 37 0 37 -18 16 -19 17 -71
0 -72 0 0 -15z m128 -37 l12 -10 0 -9 0 -8 -16 -15 -15 -16 -25 0 -24 0 0 33
0 34 7 6 7 7 20 -6 21 -6 13 -10z" />
    <path d="M5467 3110 l-26 -20 -11 -35 -12 -35 7 -40 7 -39 23 -25 23 -25 37
-7 37 -7 39 12 39 12 17 26 18 27 0 59 0 59 -33 29 -32 29 -54 0 -53 0 -26
-20z m132 -46 l21 -27 0 -31 -1 -31 -12 -16 -12 -16 -23 -12 -23 -12 -20 6
-20 7 -19 21 -20 21 0 32 0 31 21 27 20 26 34 0 34 0 20 -26z" />
    <path d="M5670 3115 l0 -15 15 0 15 0 0 -90 0 -90 -15 0 -15 0 0 -15 0 -15 50
0 50 0 0 15 0 15 -15 0 -15 0 0 30 0 30 9 0 9 0 33 -42 33 -43 1 -2 1 -3 32
-6 32 -6 0 21 0 21 -14 0 -14 0 -22 34 -21 35 20 20 21 21 0 34 0 35 -22 15
-22 16 -73 0 -73 0 0 -15z m138 -49 l4 -17 -12 -14 -12 -15 -24 0 -24 0 0 33
0 34 6 5 5 6 27 -7 27 -7 3 -18z" />
    <path d="M2143 1409 l5 -60 27 -54 26 -54 46 -41 46 -40 50 -15 51 -15 2623 0
2624 0 44 11 43 11 19 16 19 17 20 11 19 11 10 21 10 22 7 0 8 0 20 40 20 40
-5 0 -6 0 10 18 9 17 7 53 6 52 -2882 0 -2882 0 6 -61z" />
  </g>
  <g transform="translate(0.000000,687.000000) scale(0.100000,-0.100000)" fill="#e3edf2" stroke="none">
    <path d="M3240 3054 l0 -929 1240 0 1240 0 0 198 0 197 -970 0 -971 0 3 465 3
465 -7 0 -8 0 0 108 0 109 19 17 18 16 957 -2 956 -3 0 138 0 137 -1217 0
-1218 0 -22 6 -23 6 0 -928z" />
    <path d="M4970 3100 l0 -20 10 0 10 0 0 20 0 20 -10 0 -10 0 0 -20z" />
    <path d="M5362 3108 l4 -12 12 -4 12 -4 0 16 0 16 -16 0 -16 0 4 -12z" />
    <path d="M4940 3065 l0 -15 15 0 15 0 0 9 0 9 -15 6 -15 5 0 -14z" />
    <path d="M5600 3055 l0 -15 15 0 14 0 -5 15 -6 15 -9 0 -9 0 0 -15z" />
    <path d="M4932 3028 l4 -12 12 -4 12 -4 0 16 0 16 -16 0 -16 0 4 -12z" />
    <path d="M5100 3025 l0 -14 15 5 15 6 0 9 0 9 -15 0 -15 0 0 -15z" />
    <path d="M5660 3010 l0 -20 10 0 10 0 0 20 0 20 -10 0 -10 0 0 -20z" />
    <path d="M5050 2980 l0 -10 20 0 20 0 0 10 0 10 -20 0 -20 0 0 -10z" />
    <path d="M5356 2955 l6 -15 9 0 9 0 0 15 0 15 -15 0 -14 0 5 -15z" />
    <path d="M5646 2955 l-5 -15 14 0 15 0 0 15 0 15 -9 0 -9 0 -6 -15z" />
    <path d="M4970 2915 l0 -15 10 0 10 0 0 15 0 15 -10 0 -10 0 0 -15z" />
    <path d="M5670 2915 l0 -14 15 5 15 6 0 9 0 9 -15 0 -15 0 0 -15z" />
    <path d="M5860 2921 l0 -9 15 -6 15 -5 0 14 0 15 -15 0 -15 0 0 -9z" />
  </g>
  <g transform="translate(0.000000,687.000000) scale(0.100000,-0.100000)" fill="#fefefe" stroke="none">
    <path d="M3777 3692 l-17 -19 0 -116 0 -117 10 0 9 0 1 -462 0 -462 3 -2 2 -2
1190 -3 1190 -4 3 473 2 472 -1190 0 -1190 0 0 115 0 115 965 0 965 0 0 15 0
15 -963 0 -964 0 -16 -18z m761 -767 l149 -260 -158 -3 -158 -2 -165 2 -166 3
162 283 162 284 12 -24 13 -23 149 -260z m437 185 l6 -10 -13 -22 -13 -23 -3
23 -3 22 -50 0 -49 0 0 -41 0 -41 49 4 48 3 -4 -12 -5 -13 -44 0 -44 0 0 -45
0 -45 50 0 50 0 0 15 0 15 9 0 9 0 5 -13 5 -14 -6 -9 -7 -9 -77 0 -78 0 0 7 0
8 10 0 10 0 0 99 0 99 -12 5 -13 5 82 1 82 1 6 -10z m167 -7 l18 -16 0 -28 0
-28 -26 -20 -26 -21 32 -40 32 -40 9 0 9 0 0 -8 0 -9 -16 0 -16 0 -35 46 -35
46 -16 0 -17 0 -3 -37 -3 -38 10 0 11 0 0 -7 0 -8 -35 0 -35 0 0 8 0 7 10 0
10 0 0 99 0 99 -12 5 -13 5 64 1 64 1 19 -17z m213 7 l6 -10 8 4 7 5 2 -39 3
-38 -28 -22 -28 -22 23 -18 23 -19 -1 -3 -1 -3 6 -17 7 -18 14 0 14 0 0 -9 0
-9 -17 2 -18 3 -35 46 -35 47 -21 0 -21 0 2 -37 3 -37 11 -4 11 -4 0 -6 0 -7
-35 0 -35 0 0 8 0 7 10 0 10 0 0 99 0 99 -12 5 -13 5 67 1 67 1 6 -10z m264
-16 l31 -26 0 -17 0 -17 12 -12 11 -11 -12 -15 -13 -15 5 -13 4 -13 -27 -26
-28 -27 -31 -7 -31 -7 -34 12 -34 11 -15 22 -14 22 -7 29 -7 28 11 34 11 34
26 20 26 20 43 0 42 0 31 -26z m209 10 l22 -15 0 -25 0 -25 -26 -24 -25 -23
27 -42 27 -41 14 5 13 5 0 -15 0 -15 -22 7 -23 6 -1 2 0 1 -33 43 -33 42 -19
0 -19 0 0 -39 0 -40 18 -4 17 -5 -42 -1 -43 -1 0 10 0 9 15 -5 15 -6 0 100 0
101 -17 4 -18 5 65 1 66 1 22 -16z" />
    <path d="M4323 3023 l7 -98 0 -52 0 -53 19 0 19 0 6 58 5 57 7 93 6 92 -37 0
-38 0 6 -97z" />
    <path d="M4327 2804 l-7 -7 0 -23 0 -23 20 -6 21 -7 15 13 15 12 -3 21 -3 21
-25 3 -26 3 -7 -7z" />
    <path d="M5050 3061 l0 -51 30 0 30 0 0 11 0 10 10 -6 9 -6 7 26 7 27 -14 14
-14 14 -33 6 -32 7 0 -52z" />
    <path d="M5267 3104 l-7 -7 0 -44 0 -43 34 0 35 0 15 16 16 15 0 18 0 19 -13
11 -14 11 -29 6 -29 6 -8 -8z" />
    <path d="M5481 3074 l-21 -27 0 -41 0 -42 20 -21 19 -21 21 -7 21 -7 24 6 24
6 21 22 20 22 0 43 0 43 -12 0 -11 0 6 7 7 6 -17 19 -16 18 -43 0 -43 0 -20
-26z" />
    <path d="M5737 3104 l-7 -7 0 -44 0 -43 35 0 35 0 15 24 16 25 -11 20 -11 21
-12 0 -12 0 -20 6 -21 5 -7 -7z" />
  </g>
  <g transform="translate(0.000000,687.000000) scale(0.100000,-0.100000)" fill="#374850" stroke="none">
    <path d="M3160 4166 l0 -158 16 6 16 6 1299 0 1299 0 0 153 0 152 -1315 0
-1315 0 0 -159z m229 98 l31 -26 0 -19 0 -19 10 0 10 0 0 -20 0 -20 -10 0 -10
0 0 -17 0 -16 -17 -19 -16 -18 -19 0 -18 0 0 -10 0 -10 -20 0 -20 0 0 10 0 10
-19 0 -19 0 -26 31 -26 31 0 30 0 30 39 39 39 39 30 0 30 0 31 -26z" />
    <path d="M3790 3565 l0 -115 1185 0 1185 0 0 115 0 115 -1185 0 -1185 0 0
-115z m139 10 l23 -25 -6 -16 -6 -16 -20 -5 -20 -5 0 -10 0 -9 -20 11 -20 11
0 34 0 35 15 0 15 0 0 10 0 10 8 0 7 0 24 -25z m289 -32 l-3 -18 -108 -3 -107
-3 0 21 0 20 111 0 110 0 -3 -17z" />
    <path d="M5806 3087 l6 -18 6 6 6 5 -13 13 -12 12 7 -18z" />
    <path d="M5126 3077 l6 -18 6 6 6 5 -13 13 -12 12 7 -18z" />
    <path d="M5381 3064 l1 -19 5 13 5 13 -6 6 -6 6 1 -19z" />
    <path d="M5651 3044 l1 -19 5 13 5 13 -6 6 -6 6 1 -19z" />
    <path d="M5431 2974 l1 -19 5 13 5 13 -6 6 -6 6 1 -19z" />
    <path d="M5100 2956 l0 -4 18 -13 17 -14 -14 18 -13 17 -4 0 -4 0 0 -4z" />
    <path d="M5847 2919 l13 -13 5 6 6 6 -18 6 -18 7 12 -12z" />
    <path d="M5470 2906 l0 -4 16 -6 15 -6 -6 10 -6 10 -10 0 -9 0 0 -4z" />
  </g>
  <g transform="translate(0.000000,687.000000) scale(0.100000,-0.100000)" fill="#c9d6de" stroke="none">
    <path d="M3180 3041 l0 -959 -12 -5 -13 -5 19 -18 18 -19 5 13 5 12 1278 0
1278 0 5 -12 5 -13 8 10 9 10 -3 228 -3 227 -34 0 -35 0 0 -187 0 -188 -1232
2 -1233 3 0 910 0 910 8 0 7 0 1225 0 1225 0 0 -136 0 -136 16 6 16 6 19 0 19
0 0 150 0 150 -1300 0 -1300 0 0 -959z" />
    <path d="M3776 3692 l-6 -11 11 -6 10 -7 6 6 7 6 -11 11 -11 11 -6 -10z" />
  </g>
  <g transform="translate(0.000000,687.000000) scale(0.100000,-0.100000)" fill="#ffde55" stroke="none">
    <path d="M2650 4813 l0 -13 2365 0 2365 0 0 13 0 12 -2365 0 -2365 0 0 -12z" />
    <path d="M2620 4810 l0 -12 -15 6 -15 5 0 -10 0 -10 -10 6 -10 6 0 -10 0 -11
-14 0 -15 0 -6 -19 -6 -20 -12 5 -12 4 -15 -21 -15 -22 -17 -19 -18 -18 8 0 7
0 -15 -10 -15 -10 13 0 13 0 50 54 49 54 45 19 45 18 0 7 0 7 -10 6 -10 6 0
-11z m-130 -105 l0 -5 -5 0 -5 0 0 5 0 5 5 0 5 0 0 -5z" />
    <path d="M7395 4809 l-7 -10 3 -3 4 -4 23 -6 22 -7 0 16 0 16 -10 -6 -10 -6 0
10 0 11 -9 0 -10 0 -6 -11z" />
    <path d="M7451 4788 l-1 -17 23 -12 22 -12 35 -31 35 -31 1 -10 0 -10 20 -2
19 -3 -12 6 -13 6 0 8 0 8 -41 41 -41 41 -9 0 -9 0 0 13 0 12 -9 -14 -9 -14
-5 19 -5 19 -1 -17z" />
    <path d="M7588 4643 l13 -5 6 6 6 6 -19 -1 -19 -1 13 -5z" />
    <path d="M2428 4633 l13 -5 6 6 6 6 -19 -1 -19 -1 13 -5z" />
    <path d="M7596 4613 l9 -18 3 -1422 2 -1423 13 0 12 0 0 1410 0 1410 -8 0 -8
0 6 20 6 20 -11 0 -11 0 6 10 6 10 -16 0 -17 0 8 -17z" />
    <path d="M2415 4610 l6 -10 10 0 9 0 0 10 0 10 -16 0 -15 0 6 -10z" />
    <path d="M2406 4565 l6 -25 -11 0 -11 0 0 -1380 0 -1380 11 0 11 0 -6 -25 -6
-25 12 0 13 0 0 1430 0 1430 -13 0 -12 0 6 -25z" />
    <path d="M7592 1706 l-12 -34 -30 -40 -29 -41 -48 -27 -48 -28 -4 -3 -5 -3 12
-12 12 -12 0 14 0 13 6 -6 6 -6 13 12 13 12 46 35 45 35 1 13 0 13 15 5 15 6
-6 9 -5 9 11 0 11 0 -6 10 -6 10 11 0 11 0 -6 9 -5 10 10 6 10 6 -5 10 -6 9
-8 0 -7 0 -12 -34z" />
    <path d="M2415 1710 l-6 -10 11 0 11 0 -6 -10 -6 -10 11 0 11 0 -6 -10 -6 -10
10 0 11 0 0 -14 0 -14 9 -4 10 -3 49 -47 50 -48 5 13 5 12 1 -20 1 -20 10 15
10 15 0 -18 0 -18 9 6 10 5 5 -9 6 -9 19 5 19 5 6 -11 7 -11 -269 0 -269 0
-13 -40 -13 -39 12 -14 11 -14 -6 -17 -6 -16 12 0 11 0 -6 -10 -6 -10 12 0 12
0 -6 -6 -6 -7 28 -41 29 -41 26 -24 25 -24 -5 -8 -5 -9 15 0 16 0 0 6 0 7 -41
44 -41 44 -19 45 -20 44 -6 50 -6 50 2872 0 2871 0 0 -17 0 -17 11 11 11 11
-14 21 -13 21 -263 0 -263 0 6 10 7 11 19 -6 19 -6 0 13 0 13 -2387 0 -2388 0
-51 27 -50 26 -35 39 -35 38 -13 33 -13 32 -9 0 -8 0 -6 -10z m4653 -217
l-268 -3 -267 3 -268 2 535 0 535 0 -267 -2z" />
    <path d="M7880 1403 l0 -18 -6 -22 -6 -23 17 0 17 0 -5 14 -5 14 9 9 10 10 -7
16 -6 17 -9 0 -9 0 0 -17z" />
    <path d="M7850 1301 l-12 -30 -36 -40 -37 -40 -2 -11 -3 -10 16 0 15 0 -5 9
-6 9 30 25 30 26 0 10 0 9 8 4 7 3 17 33 17 32 -13 0 -14 0 -12 -29z m-20 -56
l0 -5 -5 0 -5 0 0 5 0 5 5 0 5 0 0 -5z" />
  </g>
  <g transform="translate(0.000000,687.000000) scale(0.100000,-0.100000)" fill="#fe0101" stroke="none">
    <path d="M3850 3585 l-8 -10 3 -34 3 -33 13 -9 14 -9 25 2 25 2 13 9 12 9 0
40 0 39 -10 -6 -10 -6 0 11 0 11 -35 -3 -36 -2 -9 -11z" />
    <path d="M4190 2958 l-165 -291 -3 -9 -4 -8 341 0 341 0 0 10 0 10 -166 290
-166 290 -6 0 -7 -1 -165 -291z m186 75 l-7 -78 -5 -62 -6 -63 -9 0 -9 0 0 58
0 57 -7 83 -6 82 27 0 28 0 -6 -77z m0 -244 l6 -11 -13 -14 -14 -13 -14 8 -14
9 6 16 6 16 15 0 15 0 7 -11z" />
  </g>
  <g transform="translate(0.000000,687.000000) scale(0.100000,-0.100000)" fill="#4de0fe" stroke="none">
    <path d="M2665 4630 l-20 -8 -23 -24 -22 -25 -10 -34 -10 -34 0 -1345 0 -1345
10 -37 11 -37 30 -25 31 -26 9 0 9 0 0 15 0 15 -16 0 -15 0 -14 14 -14 14 6 6
6 6 -12 0 -12 0 6 9 5 10 -10 6 -10 6 0 1369 0 1369 10 6 10 6 -5 8 -5 8 24
26 24 26 6 -6 6 -6 0 9 0 9 2345 0 2345 0 0 -7 0 -7 23 -3 22 -3 3 -22 3 -23
7 0 7 0 0 -1390 0 -1390 -8 0 -8 0 4 -7 4 -8 -22 -22 -23 -22 -6 6 -6 6 0 -16
0 -17 8 0 8 0 22 16 22 15 15 29 15 29 0 1381 0 1381 -15 30 -16 30 -32 19
-32 20 -2335 -1 -2335 0 -20 -9z m4755 -2895 l0 -5 -5 0 -5 0 0 5 0 5 5 0 5 0
0 -5z m-20 -20 l0 -5 -5 0 -5 0 0 5 0 5 5 0 5 0 0 -5z" />
    <path d="M5770 4006 l0 -16 16 0 16 0 -4 12 -4 12 -12 4 -12 4 0 -16z" />
    <path d="M5770 3695 l0 -15 195 0 194 0 -5 15 -6 15 -189 0 -189 0 0 -15z m30
0 l0 -5 -5 0 -5 0 0 5 0 5 5 0 5 0 0 -5z" />
    <path d="M2697 1703 l-7 -6 0 -9 0 -8 2331 0 2331 0 -4 13 -5 12 -2320 3
-2320 2 -6 -7z" />
  </g>
  <g transform="translate(0.000000,687.000000) scale(0.100000,-0.100000)" fill="#42bfde" stroke="none">
    <path d="M7364 4625 l20 -15 -14 0 -13 0 6 -6 5 -6 17 9 16 9 -28 12 -28 12
19 -15z" />
    <path d="M2616 4589 l-26 -31 0 -19 0 -19 4 0 4 0 13 17 14 17 -12 -8 -13 -7
0 8 0 8 10 15 9 15 12 0 12 0 3 18 2 17 -3 0 -3 0 -26 -31z m24 6 l0 -5 -5 0
-5 0 0 5 0 5 5 0 5 0 0 -5z" />
    <path d="M3852 4613 l1168 -3 1167 3 1168 2 -2335 0 -2335 0 1167 -2z" />
    <path d="M2660 4605 l0 -5 5 0 5 0 0 5 0 5 -5 0 -5 0 0 -5z" />
    <path d="M7416 4574 l-6 -17 5 -5 5 -5 0 13 0 14 16 -20 15 -19 -12 25 -12 25
-2 3 -3 3 -6 -17z" />
    <path d="M7425 3165 l0 -1380 2 687 3 686 -3 694 -2 693 0 -1380z" />
    <path d="M3165 4320 l6 -10 1304 0 1304 0 6 10 6 10 -1316 0 -1316 0 6 -10z" />
    <path d="M5790 3708 l0 -8 183 2 182 2 -60 3 -60 3 -123 2 -122 3 0 -7z" />
    <path d="M6150 3601 l0 -91 10 0 10 0 0 84 0 85 -10 6 -10 6 0 -90z" />
    <path d="M6150 3455 l0 -15 15 0 14 0 -5 15 -6 15 -9 0 -9 0 0 -15z" />
    <path d="M2590 1784 l0 -19 10 -15 11 -15 -7 30 -7 30 -3 4 -4 4 0 -19z" />
    <path d="M2610 1775 l0 -5 5 0 5 0 0 5 0 5 -5 0 -5 0 0 -5z" />
    <path d="M7410 1765 l0 -5 5 0 5 0 0 5 0 5 -5 0 -5 0 0 -5z" />
    <path d="M2620 1755 l0 -5 5 0 5 0 0 5 0 5 -5 0 -5 0 0 -5z" />
    <path d="M7400 1740 l0 -13 7 6 6 7 -6 7 -7 6 0 -13z" />
    <path d="M2624 1728 l-7 -11 11 7 12 7 0 5 0 4 -4 0 -5 0 -7 -12z" />
    <path d="M7380 1725 l0 -5 5 0 5 0 0 5 0 5 -5 0 -5 0 0 -5z" />
    <path d="M2652 1711 l-14 -8 17 -6 16 -7 -6 9 -5 9 12 5 13 5 -10 1 -10 1 -13
-9z" />
    <path d="M7360 1715 l0 -5 5 0 5 0 0 5 0 5 -5 0 -5 0 0 -5z" />
    <path d="M3858 1703 l1162 -3 1163 3 1162 2 -2325 0 -2325 0 1163 -2z" />
  </g>
  <g transform="translate(0.000000,687.000000) scale(0.100000,-0.100000)" fill="#f9c24b" stroke="none">
    <path d="M2658 4823 l13 -5 6 6 6 6 -19 -1 -19 -1 13 -5z" />
    <path d="M7358 4823 l13 -5 6 6 6 6 -19 -1 -19 -1 13 -5z" />
    <path d="M2620 4815 l0 -5 5 0 5 0 0 5 0 5 -5 0 -5 0 0 -5z" />
    <path d="M7403 4813 l7 -6 7 6 6 7 -13 0 -13 0 6 -7z" />
    <path d="M2590 4805 l0 -5 5 0 5 0 0 5 0 5 -5 0 -5 0 0 -5z" />
    <path d="M7430 4805 l0 -5 5 0 5 0 0 5 0 5 -5 0 -5 0 0 -5z" />
    <path d="M2570 4795 l0 -5 5 0 5 0 0 5 0 5 -5 0 -5 0 0 -5z" />
    <path d="M2605 4790 l-6 -10 15 6 16 6 0 4 0 4 -9 0 -10 0 -6 -10z" />
    <path d="M7450 4795 l0 -5 5 0 5 0 0 5 0 5 -5 0 -5 0 0 -5z" />
    <path d="M7470 4785 l0 -5 5 0 5 0 0 5 0 5 -5 0 -5 0 0 -5z" />
    <path d="M2545 4770 l6 -10 5 0 5 0 -6 10 -6 10 -5 0 -5 0 6 -10z" />
    <path d="M7494 4758 l-7 -11 11 7 12 7 0 5 0 4 -4 0 -5 0 -7 -12z" />
    <path d="M2503 4737 l2 -12 -13 3 -13 2 6 -10 6 -10 20 10 19 11 0 3 0 4 -15
6 -15 5 3 -12z" />
    <path d="M7570 4695 l0 -5 5 0 5 0 0 5 0 5 -5 0 -5 0 0 -5z" />
    <path d="M2440 4675 l0 -5 5 0 5 0 0 5 0 5 -5 0 -5 0 0 -5z" />
    <path d="M7590 4665 l0 -5 5 0 5 0 0 5 0 5 -5 0 -5 0 0 -5z" />
    <path d="M2430 4655 l0 -5 5 0 5 0 0 5 0 5 -5 0 -5 0 0 -5z" />
    <path d="M7600 4645 l0 -5 5 0 5 0 0 5 0 5 -5 0 -5 0 0 -5z" />
    <path d="M2420 4635 l0 -5 5 0 5 0 0 5 0 5 -5 0 -5 0 0 -5z" />
    <path d="M7610 4625 l0 -5 5 0 5 0 0 5 0 5 -5 0 -5 0 0 -5z" />
    <path d="M2410 4615 l0 -5 5 0 5 0 0 5 0 5 -5 0 -5 0 0 -5z" />
    <path d="M7620 4600 l0 -13 7 6 6 7 -6 7 -7 6 0 -13z" />
    <path d="M2400 4580 l0 -13 7 6 6 7 -6 7 -7 6 0 -13z" />
    <path d="M7606 4577 l6 -18 6 6 6 5 -13 13 -12 12 7 -18z" />
    <path d="M7631 4554 l1 -19 5 13 5 13 -6 6 -6 6 1 -19z" />
    <path d="M2410 4540 l0 -13 7 6 6 7 -6 7 -7 6 0 -13z" />
    <path d="M2395 3160 l0 -1385 2 693 3 692 -3 693 -2 692 0 -1385z" />
    <path d="M7632 1770 l0 -25 5 13 5 12 -5 13 -5 12 0 -25z" />
    <path d="M2400 1740 l0 -13 7 6 6 7 -6 7 -7 6 0 -13z" />
    <path d="M7620 1725 l0 -5 5 0 5 0 0 5 0 5 -5 0 -5 0 0 -5z" />
    <path d="M2410 1705 l0 -5 5 0 5 0 0 5 0 5 -5 0 -5 0 0 -5z" />
    <path d="M7610 1695 l0 -5 5 0 5 0 0 5 0 5 -5 0 -5 0 0 -5z" />
    <path d="M2420 1685 l0 -5 5 0 5 0 0 5 0 5 -5 0 -5 0 0 -5z" />
    <path d="M7600 1675 l0 -5 5 0 5 0 0 5 0 5 -5 0 -5 0 0 -5z" />
    <path d="M2430 1665 l0 -5 5 0 5 0 0 5 0 5 -5 0 -5 0 0 -5z" />
    <path d="M7590 1655 l0 -5 5 0 5 0 0 5 0 5 -5 0 -5 0 0 -5z" />
    <path d="M2454 1638 l-7 -11 11 7 12 7 0 5 0 4 -4 0 -5 0 -7 -12z" />
    <path d="M7555 1620 l6 -10 5 0 5 0 -6 10 -6 10 -5 0 -5 0 6 -10z" />
    <path d="M2560 1535 l0 -5 5 0 5 0 0 5 0 5 -5 0 -5 0 0 -5z" />
    <path d="M2580 1525 l0 -5 5 0 5 0 0 5 0 5 -5 0 -5 0 0 -5z" />
    <path d="M7450 1525 l0 -5 5 0 5 0 0 5 0 5 -5 0 -5 0 0 -5z" />
    <path d="M2600 1515 l0 -5 5 0 5 0 0 5 0 5 -5 0 -5 0 0 -5z" />
    <path d="M7430 1515 l0 -5 5 0 5 0 0 5 0 5 -5 0 -5 0 0 -5z" />
    <path d="M2630 1505 l0 -5 5 0 5 0 0 5 0 5 -5 0 -5 0 0 -5z" />
    <path d="M7393 1503 l7 -6 7 6 6 7 -13 0 -13 0 6 -7z" />
    <path d="M2410 1491 l-275 -6 2879 -3 2879 -2 -5 5 -5 6 -2599 3 -2599 3 -275
-6z" />
    <path d="M2122 1420 l0 -25 5 13 5 12 -5 13 -5 12 0 -25z" />
    <path d="M7900 1390 l0 -13 7 6 6 7 -6 7 -7 6 0 -13z" />
    <path d="M2130 1360 l0 -13 7 6 6 7 -6 7 -7 6 0 -13z" />
    <path d="M7890 1350 l0 -13 7 6 6 7 -6 7 -7 6 0 -13z" />
    <path d="M2140 1335 l0 -5 5 0 5 0 0 5 0 5 -5 0 -5 0 0 -5z" />
    <path d="M2157 1327 l-5 -14 13 0 13 0 -5 14 -5 13 -3 0 -3 0 -5 -13z" />
    <path d="M7880 1325 l0 -5 5 0 5 0 0 5 0 5 -5 0 -5 0 0 -5z" />
    <path d="M7845 1270 l6 -10 5 0 5 0 -6 10 -6 10 -5 0 -5 0 6 -10z" />
    <path d="M7830 1235 l0 -5 5 0 5 0 0 5 0 5 -5 0 -5 0 0 -5z" />
    <path d="M2015 1170 l-6 -10 20 0 21 0 0 10 0 10 -14 0 -15 0 -6 -10z" />
    <path d="M8060 1170 l0 -10 21 0 20 0 -6 10 -6 10 -15 0 -14 0 0 -10z" />
    <path d="M1825 1160 l-6 -10 15 0 16 0 0 10 0 10 -9 0 -10 0 -6 -10z" />
    <path d="M8270 1150 l0 -22 13 5 12 4 0 13 0 13 -12 5 -13 4 0 -22z" />
    <path d="M1760 1150 l0 -10 10 0 10 0 0 10 0 10 -10 0 -10 0 0 -10z" />
    <path d="M8360 1150 l0 -10 10 0 10 0 0 10 0 10 -10 0 -10 0 0 -10z" />
    <path d="M1865 1140 l6 -10 10 0 9 0 0 10 0 10 -16 0 -15 0 6 -10z" />
    <path d="M2105 1130 l6 -10 15 0 14 0 0 10 0 10 -21 0 -20 0 6 -10z" />
    <path d="M8040 1130 l0 -10 14 0 15 0 6 10 6 10 -20 0 -21 0 0 -10z" />
    <path d="M2505 1120 l6 -10 20 0 19 0 0 10 0 10 -26 0 -25 0 6 -10z" />
    <path d="M7630 1120 l0 -10 19 0 20 0 6 10 6 10 -25 0 -26 0 0 -10z" />
    <path d="M3235 1110 l6 -10 30 0 29 0 0 10 0 10 -36 0 -35 0 6 -10z" />
    <path d="M6850 1110 l0 -10 54 0 55 0 6 10 6 10 -60 0 -61 0 0 -10z" />
  </g>
  <g transform="translate(0.000000,687.000000) scale(0.100000,-0.100000)" fill="#dde8ed" stroke="none">
    <path d="M3160 4005 l0 -15 1313 0 1314 0 0 15 0 15 -1314 0 -1313 0 0 -15z" />
    <path d="M3230 3050 l0 -920 10 0 10 0 0 920 0 920 -10 0 -10 0 0 -920z" />
    <path d="M3695 3963 l440 -3 793 -2 792 -3 0 8 0 7 -1232 -2 -1233 -3 440 -2z" />
    <path d="M3776 3691 l-17 -18 4 -119 3 -119 2 121 2 122 13 11 14 11 954 3
954 2 -956 3 -956 2 -17 -19z" />
    <path d="M5710 3695 l-12 -15 44 0 45 0 0 15 0 15 -32 0 -33 0 -12 -15z" />
    <path d="M3770 2970 l0 -460 10 0 10 0 0 460 0 460 -10 0 -10 0 0 -460z" />
    <path d="M4965 3120 l6 -10 5 0 4 0 0 10 0 10 -11 0 -10 0 6 -10z" />
    <path d="M4990 3111 l0 -11 10 0 9 0 4 -87 3 -88 2 86 2 87 -15 12 -15 12 0
-11z" />
    <path d="M5140 3111 l0 -10 10 -6 10 -6 0 10 0 10 -10 6 -10 6 0 -10z" />
    <path d="M4940 3080 l0 -13 7 6 6 7 -6 7 -7 6 0 -13z" />
    <path d="M4966 3073 l-7 -18 12 12 13 13 -6 5 -6 6 -6 -18z" />
    <path d="M5846 3043 l-7 -18 12 12 13 13 -6 5 -6 6 -6 -18z" />
    <path d="M4850 3030 l0 -10 15 0 15 0 0 4 0 4 -15 6 -15 5 0 -9z" />
    <path d="M5330 3025 l-13 -15 17 6 16 6 0 9 0 9 -4 0 -4 0 -12 -15z" />
    <path d="M5288 2983 l13 -5 6 6 6 6 -19 -1 -19 -1 13 -5z" />
    <path d="M5090 2971 l0 -10 10 -6 10 -6 -6 15 -6 16 -4 0 -4 0 0 -9z" />
    <path d="M5790 2951 l0 -10 10 -6 10 -6 -6 15 -6 16 -4 0 -4 0 0 -9z" />
    <path d="M4966 2935 l6 -15 4 0 4 0 0 15 0 15 -10 0 -9 0 5 -15z" />
    <path d="M5480 2941 l0 -9 16 -6 17 -6 -13 15 -12 15 -4 0 -4 0 0 -9z" />
    <path d="M5226 2925 l-5 -15 9 0 10 0 0 15 0 15 -4 0 -4 0 -6 -15z" />
    <path d="M5610 2910 l-15 -10 12 0 12 0 6 10 6 10 -3 0 -3 0 -15 -10z" />
    <path d="M4970 2900 l0 -13 7 6 6 7 -6 7 -7 6 0 -13z" />
    <path d="M5360 2900 l0 -10 11 0 10 0 -6 10 -6 10 -5 0 -4 0 0 -10z" />
    <path d="M3868 2133 l612 -3 613 3 612 2 -1225 0 -1225 0 613 -2z" />
  </g>
  <g transform="translate(0.000000,687.000000) scale(0.100000,-0.100000)" fill="#bb9438" stroke="none">
    <path d="M2565 4770 l-6 -10 15 6 16 6 0 4 0 4 -9 0 -10 0 -6 -10z" />
    <path d="M7460 4766 l0 -4 16 -6 15 -6 -6 10 -6 10 -10 0 -9 0 0 -4z" />
    <path d="M7565 4670 l6 -10 5 0 5 0 -6 10 -6 10 -5 0 -5 0 6 -10z" />
    <path d="M2430 4610 l0 -13 7 6 6 7 -6 7 -7 6 0 -13z" />
    <path d="M2420 4580 l0 -13 7 6 6 7 -6 7 -7 6 0 -13z" />
    <path d="M7610 4560 l0 -13 7 6 6 7 -6 7 -7 6 0 -13z" />
    <path d="M2415 3155 l0 -1380 2 687 3 686 -3 694 -2 693 0 -1380z" />
    <path d="M7581 1683 l-11 -28 15 19 15 20 0 8 0 8 -3 0 -4 0 -12 -27z" />
    <path d="M2440 1694 l0 -9 20 -32 20 -33 5 0 4 0 -21 38 -22 37 -3 4 -3 4 0
-9z" />
    <path d="M7524 1598 l-19 -23 23 19 22 19 0 4 0 3 -3 0 -4 0 -19 -22z" />
    <path d="M2539 1571 l23 -21 11 0 10 0 -4 3 -4 3 -30 18 -30 17 24 -20z" />
    <path d="M7450 1550 l-15 -10 12 0 12 0 6 10 6 10 -3 0 -3 0 -15 -10z" />
    <path d="M2597 1539 l13 -13 5 6 6 6 -18 6 -18 7 12 -12z" />
    <path d="M7393 1523 l7 -6 7 6 6 7 -13 0 -13 0 6 -7z" />
    <path d="M2141 1404 l1 -19 5 13 5 13 -6 6 -6 6 1 -19z" />
    <path d="M7881 1384 l1 -19 5 13 5 13 -6 6 -6 6 1 -19z" />
    <path d="M7789 1213 l-24 -28 28 24 27 24 0 4 0 3 -3 0 -4 0 -24 -27z" />
    <path d="M1923 1170 l-123 -7 -7 -6 -6 -7 5 -5 5 -6 204 -9 204 -10 78 0 77 0
0 13 0 13 -35 17 -36 17 -122 -2 -122 -1 -122 -7z" />
    <path d="M7702 1160 l-42 -19 -5 -1 -5 0 -15 0 -15 0 0 -12 0 -11 318 6 317 7
38 6 37 7 0 7 0 7 -38 7 -38 6 -255 5 -254 5 -43 -20z" />
    <path d="M2380 1134 l0 -14 25 0 25 0 0 9 0 9 -25 4 -25 5 0 -13z" />
    <path d="M2570 1130 l0 -7 358 -9 357 -9 1932 0 1931 0 8 8 7 7 -4 4 -4 4
-2292 4 -2293 4 0 -6z" />
  </g>
  <g transform="translate(0.000000,687.000000) scale(0.100000,-0.100000)" fill="#8b6c29" stroke="none">
    <path d="M2658 4803 l13 -5 6 6 6 6 -19 -1 -19 -1 13 -5z" />
    <path d="M7358 4803 l13 -5 6 6 6 6 -19 -1 -19 -1 13 -5z" />
    <path d="M2623 4793 l7 -6 7 6 6 7 -13 0 -13 0 6 -7z" />
    <path d="M7405 4790 l20 -9 10 0 10 -1 -15 10 -15 10 -15 -1 -15 0 20 -9z" />
    <path d="M7455 4770 l6 -10 5 0 5 0 -6 10 -6 10 -5 0 -5 0 6 -10z" />
    <path d="M2539 4753 l-14 -18 18 14 17 13 0 4 0 4 -4 0 -4 0 -13 -17z" />
    <path d="M7500 4747 l0 -3 33 -30 32 -29 -29 33 -30 32 -3 0 -3 0 0 -3z" />
    <path d="M2473 4688 l-10 -13 -7 -12 -7 -13 4 0 5 0 16 25 16 25 -4 0 -4 0 -9
-12z" />
    <path d="M7580 4645 l0 -5 5 0 5 0 0 5 0 5 -5 0 -5 0 0 -5z" />
    <path d="M2440 4635 l0 -5 5 0 5 0 0 5 0 5 -5 0 -5 0 0 -5z" />
    <path d="M7591 4625 l0 -10 9 -20 9 -20 0 15 1 15 -10 15 -10 15 1 -10z" />
    <path d="M2420 4570 l0 -13 7 6 6 7 -6 7 -7 6 0 -13z" />
    <path d="M7610 4550 l0 -13 7 6 6 7 -6 7 -7 6 0 -13z" />
    <path d="M7612 1770 l0 -25 5 13 5 12 -5 13 -5 12 0 -25z" />
    <path d="M2421 1744 l1 -19 5 13 5 13 -6 6 -6 6 1 -19z" />
    <path d="M7601 1724 l1 -19 5 13 5 13 -6 6 -6 6 1 -19z" />
    <path d="M2485 1620 l6 -10 5 0 5 0 -6 10 -6 10 -5 0 -5 0 6 -10z" />
    <path d="M7479 1563 l-14 -18 18 14 17 13 0 4 0 4 -4 0 -4 0 -13 -17z" />
    <path d="M2577 1549 l13 -13 5 6 6 6 -18 6 -18 7 12 -12z" />
    <path d="M2628 1523 l13 -5 6 6 6 6 -19 -1 -19 -1 13 -5z" />
    <path d="M2788 1513 l122 -4 123 4 122 3 -245 0 -245 0 123 -3z" />
    <path d="M7338 1513 l12 -5 13 5 12 5 -25 0 -25 0 13 -5z" />
    <path d="M2140 1463 l0 -8 2880 0 2880 0 0 8 0 7 -2880 0 -2880 0 0 -7z" />
    <path d="M2141 1424 l1 -19 5 13 5 13 -6 6 -6 6 1 -19z" />
    <path d="M2151 1370 l-1 -15 10 -15 10 -15 -1 10 0 10 -9 20 -9 20 0 -15z" />
    <path d="M7860 1320 l0 -13 7 6 6 7 -6 7 -7 6 0 -13z" />
    <path d="M2200 1260 l21 -30 5 0 5 0 -21 30 -21 30 -5 0 -5 0 21 -30z" />
    <path d="M7829 1263 l-14 -18 18 14 17 13 0 4 0 4 -4 0 -4 0 -13 -17z" />
    <path d="M2250 1206 l0 -4 18 -13 17 -14 -14 18 -13 17 -4 0 -4 0 0 -4z" />
    <path d="M7740 1180 l-14 -9 7 -7 7 -8 12 12 12 12 -5 4 -5 5 -14 -9z" />
    <path d="M2342 1148 l4 -12 12 -4 12 -4 0 10 0 10 -16 6 -16 6 4 -12z" />
    <path d="M7690 1150 l0 -10 16 0 15 0 -6 10 -6 10 -10 0 -9 0 0 -10z" />
    <path d="M2415 1130 l-6 -10 91 0 91 0 -6 10 -6 10 -79 0 -79 0 -6 -10z" />
    <path d="M3415 1130 l-6 -10 2116 0 2116 0 -6 10 -6 10 -2104 0 -2104 0 -6
-10z" />
  </g>
  <g transform="translate(0.000000,687.000000) scale(0.100000,-0.100000)" fill="#c5d1d9" stroke="none">
    <path d="M3160 3034 l0 -970 12 -12 12 -12 1296 0 1297 0 0 15 0 15 -1294 0
-1293 0 0 960 0 960 1295 -2 1295 -3 0 7 0 8 -1310 2 -1310 3 0 -971z m25
-974 l6 -10 -5 0 -5 0 -6 10 -6 10 5 0 5 0 6 -10z" />
    <path d="M3235 3050 l0 -925 2 463 3 462 -3 463 -2 462 0 -925z" />
    <path d="M5717 3708 l4 -8 30 0 29 0 0 8 0 7 -34 0 -34 0 5 -7z" />
    <path d="M5323 3123 l7 -6 7 6 6 7 -13 0 -13 0 6 -7z" />
    <path d="M5570 3126 l0 -4 16 -6 15 -6 -6 10 -6 10 -10 0 -9 0 0 -4z" />
    <path d="M4940 3090 l0 -13 7 6 6 7 -6 7 -7 6 0 -13z" />
    <path d="M5234 3015 l-1 -90 4 42 4 42 -4 48 -3 48 0 -90z" />
    <path d="M5323 3093 l7 -6 7 6 6 7 -13 0 -13 0 6 -7z" />
    <path d="M5435 3059 l-7 -10 5 -5 5 -5 5 16 6 15 -4 0 -4 0 -6 -11z" />
    <path d="M5156 3033 l-7 -18 12 12 13 13 -6 5 -6 6 -6 -18z" />
    <path d="M5622 3005 l0 -30 5 18 5 17 -5 13 -5 12 0 -30z" />
    <path d="M5063 3013 l17 -5 13 5 12 5 -30 0 -30 0 18 -5z" />
    <path d="M5283 3013 l17 -5 13 5 12 5 -30 0 -30 0 18 -5z" />
    <path d="M5748 3013 l12 -5 13 5 12 5 -25 0 -25 0 13 -5z" />
    <path d="M5461 2994 l1 -19 5 13 5 13 -6 6 -6 6 1 -19z" />
    <path d="M4936 2925 l-5 -15 9 0 10 0 0 15 0 15 -4 0 -4 0 -6 -15z" />
    <path d="M5120 2931 l0 -10 10 -6 10 -6 -6 15 -6 16 -4 0 -4 0 0 -9z" />
    <path d="M4810 2915 l-13 -15 17 6 16 6 0 9 0 9 -4 0 -4 0 -12 -15z" />
    <path d="M5450 2926 l0 -4 18 -13 17 -14 -14 18 -13 17 -4 0 -4 0 0 -4z" />
    <path d="M4995 2910 l-6 -10 15 6 16 6 0 4 0 4 -9 0 -10 0 -6 -10z" />
    <path d="M5215 2910 l-6 -10 15 6 16 6 0 4 0 4 -9 0 -10 0 -6 -10z" />
    <path d="M5590 2900 l-15 -10 12 0 12 0 6 10 6 10 -3 0 -3 0 -15 -10z" />
    <path d="M5538 2883 l13 -5 6 6 6 6 -19 -1 -19 -1 13 -5z" />
    <path d="M5710 2494 l0 -15 10 6 10 6 -5 10 -6 9 -5 0 -4 0 0 -16z" />
  </g>
  <g transform="translate(0.000000,687.000000) scale(0.100000,-0.100000)" fill="#308ea5" stroke="none">
    <path d="M2663 4630 l-23 -9 0 -6 0 -6 13 8 12 8 2340 5 2340 5 -2330 2 -2330
2 -22 -9z" />
    <path d="M2604 4578 l-7 -11 11 7 12 7 0 5 0 4 -4 0 -5 0 -7 -12z" />
    <path d="M2590 4551 l0 -10 10 -6 10 -6 -6 15 -6 16 -4 0 -4 0 0 -9z" />
    <path d="M7445 3165 l0 -1380 2 687 3 686 -3 694 -2 693 0 -1380z" />
    <path d="M3167 4023 l-7 -6 0 -11 0 -10 12 12 12 12 -5 5 -6 5 -6 -7z" />
    <path d="M5770 4021 l0 -9 14 -5 15 -6 -6 15 -5 14 -9 0 -9 0 0 -9z" />
    <path d="M5770 3680 l0 -10 195 0 195 0 0 10 0 10 -195 0 -195 0 0 -10z" />
    <path d="M2590 1770 l0 -13 7 6 6 7 -6 7 -7 6 0 -13z" />
    <path d="M7430 1759 l-12 -21 5 -4 4 -4 11 25 12 25 -5 0 -4 0 -11 -21z" />
    <path d="M2620 1725 l23 -25 5 0 5 0 -23 25 -23 25 -5 0 -5 0 23 -25z" />
    <path d="M7370 1700 l-15 -10 10 0 10 0 15 10 15 10 -10 0 -10 0 -15 -10z" />
    <path d="M2663 1693 l7 -6 7 6 6 7 -13 0 -13 0 6 -7z" />
  </g>
  <g transform="translate(0.000000,687.000000) scale(0.100000,-0.100000)" fill="#26363e" stroke="none">
    <path d="M2590 4555 l0 -5 5 0 5 0 0 5 0 5 -5 0 -5 0 0 -5z" />
    <path d="M3170 4020 l0 -10 1304 0 1305 0 6 10 6 10 -1310 0 -1311 0 0 -10z" />
    <path d="M3784 3677 l-5 -13 3 -110 3 -109 1191 -3 1191 -2 0 12 0 13 -1184
-3 -1183 -2 0 105 0 105 996 0 995 0 -6 10 -6 10 -995 0 -995 0 -5 -13z" />
    <path d="M5490 3120 l-15 -10 12 0 12 0 6 10 6 10 -3 0 -3 0 -15 -10z" />
    <path d="M5533 3123 l17 -5 13 5 12 5 -30 0 -30 0 18 -5z" />
    <path d="M5593 3113 l7 -6 7 6 6 7 -13 0 -13 0 6 -7z" />
    <path d="M4815 3100 l6 -10 5 0 4 0 0 10 0 10 -11 0 -10 0 6 -10z" />
    <path d="M4850 3090 l0 -13 7 6 6 7 -6 7 -7 6 0 -13z" />
    <path d="M5793 3093 l7 -6 7 6 6 7 -13 0 -13 0 6 -7z" />
    <path d="M4851 3034 l1 -19 5 13 5 13 -6 6 -6 6 1 -19z" />
    <path d="M5430 3040 l0 -13 7 6 6 7 -6 7 -7 6 0 -13z" />
    <path d="M5120 3025 l0 -5 5 0 5 0 0 5 0 5 -5 0 -5 0 0 -5z" />
    <path d="M5359 3013 l-14 -18 18 14 17 13 0 4 0 4 -4 0 -4 0 -13 -17z" />
    <path d="M4850 2985 l0 -15 4 0 4 0 6 15 5 15 -9 0 -10 0 0 -15z" />
    <path d="M5110 2991 l0 -10 8 -5 9 -5 0 14 0 15 -9 0 -8 0 0 -9z" />
    <path d="M5785 2960 l6 -10 5 0 5 0 -6 10 -6 10 -5 0 -5 0 6 -10z" />
    <path d="M5365 2940 l6 -10 5 0 5 0 -6 10 -6 10 -5 0 -5 0 6 -10z" />
    <path d="M4850 2925 l0 -15 10 0 9 0 -5 15 -6 15 -4 0 -4 0 0 -15z" />
    <path d="M5136 2905 l6 -15 10 0 10 0 -12 15 -12 15 -4 0 -3 0 5 -15z" />
    <path d="M2590 1765 l0 -5 5 0 5 0 0 5 0 5 -5 0 -5 0 0 -5z" />
    <path d="M7430 1755 l0 -5 5 0 5 0 0 5 0 5 -5 0 -5 0 0 -5z" />
    <path d="M7403 1723 l0 -13 14 11 13 11 0 3 0 2 -13 0 -14 0 0 -14z" />
    <path d="M2640 1705 l0 -5 5 0 5 0 0 5 0 5 -5 0 -5 0 0 -5z" />
  </g>
  <g transform="translate(0.000000,687.000000) scale(0.100000,-0.100000)" fill="#3ac3e4" stroke="none">
    <path d="M3165 4008 l-5 -13 2 -970 3 -970 5 983 5 982 -3 0 -3 0 -4 -12z" />
    <path d="M5787 4003 l-7 -6 0 -149 0 -148 10 0 10 0 0 155 0 155 -3 0 -4 0 -6
-7z" />
    <path d="M6160 2980 l0 -470 -182 -1 -183 -1 -7 1 -8 1 1 -8 1 -7 -1 -222 -1
-223 -1302 -2 -1303 -3 1290 -3 1290 -2 23 5 22 5 0 220 0 220 176 0 175 0 15
14 14 15 0 465 0 466 -10 0 -10 0 0 -470z" />
  </g>
  <g transform="translate(0.000000,687.000000) scale(0.100000,-0.100000)" fill="#131008" stroke="none">
    <path d="M3393 4803 l709 -3 701 3 702 2 -1410 0 -1410 0 708 -2z" />
    <path d="M7415 4790 l6 -10 5 0 5 0 -6 10 -6 10 -5 0 -5 0 6 -10z" />
    <path d="M7460 4765 l0 -5 5 0 5 0 0 5 0 5 -5 0 -5 0 0 -5z" />
    <path d="M2506 4725 l-26 -24 0 -7 0 -8 30 29 30 29 0 3 0 3 -4 0 -3 0 -27
-25z" />
    <path d="M2460 4670 l0 -13 7 6 6 7 -6 7 -7 6 0 -13z" />
    <path d="M7595 4610 l6 -10 5 0 5 0 -6 10 -6 10 -5 0 -5 0 6 -10z" />
    <path d="M7600 4585 l0 -5 5 0 5 0 0 5 0 5 -5 0 -5 0 0 -5z" />
    <path d="M7615 3275 l0 -1260 2 633 3 634 -3 626 -2 627 0 -1260z" />
    <path d="M4800 3115 l0 -15 8 0 9 0 0 15 0 15 -9 0 -8 0 0 -15z" />
    <path d="M5145 3100 l18 -20 4 0 3 0 -12 20 -13 20 -9 0 -9 0 18 -20z" />
    <path d="M5350 3116 l0 -4 18 -13 17 -14 -14 18 -13 17 -4 0 -4 0 0 -4z" />
    <path d="M5058 3103 l12 -5 13 5 12 5 -25 0 -25 0 13 -5z" />
    <path d="M5267 3103 l-7 -6 0 -44 0 -43 8 0 7 0 -3 44 -4 44 24 5 23 4 -21 2
-21 1 -6 -7z" />
    <path d="M5736 3101 l-6 -9 20 5 20 5 0 4 0 4 -14 0 -15 0 -5 -9z" />
    <path d="M5650 3035 l0 -5 5 0 5 0 0 5 0 5 -5 0 -5 0 0 -5z" />
    <path d="M5805 3000 l-6 -10 15 6 16 6 0 4 0 4 -9 0 -10 0 -6 -10z" />
    <path d="M5260 2979 l0 -10 10 6 10 6 0 5 0 4 -10 0 -10 0 0 -11z" />
    <path d="M5306 2977 l6 -18 6 6 6 5 -13 13 -12 12 7 -18z" />
    <path d="M5650 2980 l0 -13 7 6 6 7 -6 7 -7 6 0 -13z" />
    <path d="M5460 2971 l0 -10 10 -6 10 -6 -6 15 -6 16 -4 0 -4 0 0 -9z" />
    <path d="M5616 2963 l-7 -18 12 12 13 13 -6 5 -6 6 -6 -18z" />
    <path d="M5446 2937 l6 -18 6 6 6 5 -13 13 -12 12 7 -18z" />
    <path d="M5120 2935 l0 -5 5 0 5 0 0 5 0 5 -5 0 -5 0 0 -5z" />
    <path d="M5840 2930 l0 -13 7 6 6 7 -6 7 -7 6 0 -13z" />
    <path d="M5265 2920 l6 -10 5 0 5 0 -6 10 -6 10 -5 0 -5 0 6 -10z" />
    <path d="M5380 2920 l0 -10 11 0 10 0 -6 10 -6 10 -5 0 -4 0 0 -10z" />
    <path d="M5820 2913 l11 -23 17 1 17 1 -15 5 -15 6 -13 16 -13 16 11 -22z" />
    <path d="M4853 2913 l7 -6 7 6 6 7 -13 0 -13 0 6 -7z" />
    <path d="M4820 2895 l0 -5 5 0 5 0 0 5 0 5 -5 0 -5 0 0 -5z" />
    <path d="M4873 2893 l27 -4 28 4 27 4 -55 0 -55 0 28 -4z" />
    <path d="M5023 2893 l17 -5 13 5 12 5 -30 0 -30 0 18 -5z" />
    <path d="M5170 2895 l0 -5 5 0 5 0 0 5 0 5 -5 0 -5 0 0 -5z" />
    <path d="M5243 2893 l17 -5 13 5 12 5 -30 0 -30 0 18 -5z" />
    <path d="M5390 2895 l0 -5 5 0 5 0 0 5 0 5 -5 0 -5 0 0 -5z" />
    <path d="M5565 2890 l-6 -10 15 6 16 6 0 4 0 4 -9 0 -10 0 -6 -10z" />
    <path d="M5698 2893 l22 -4 23 4 22 4 -45 0 -45 0 23 -4z" />
    <path d="M7440 1780 l0 -13 7 6 6 7 -6 7 -7 6 0 -13z" />
    <path d="M7394 1708 l-7 -11 11 7 12 7 0 5 0 4 -4 0 -5 0 -7 -12z" />
    <path d="M2435 1700 l6 -10 5 0 5 0 -6 10 -6 10 -5 0 -5 0 6 -10z" />
    <path d="M7580 1685 l0 -5 5 0 5 0 0 5 0 5 -5 0 -5 0 0 -5z" />
    <path d="M2450 1675 l0 -5 5 0 5 0 0 5 0 5 -5 0 -5 0 0 -5z" />
    <path d="M7562 1650 l-12 -20 0 -7 0 -7 16 22 16 23 -4 4 -4 4 -12 -19z" />
    <path d="M2570 1555 l0 -5 5 0 5 0 0 5 0 5 -5 0 -5 0 0 -5z" />
    <path d="M2590 1545 l0 -5 5 0 5 0 0 5 0 5 -5 0 -5 0 0 -5z" />
    <path d="M2640 1526 l0 -4 16 -6 15 -6 -6 10 -6 10 -10 0 -9 0 0 -4z" />
    <path d="M7375 1520 l-6 -10 15 6 16 6 0 4 0 4 -9 0 -10 0 -6 -10z" />
    <path d="M2140 1450 l0 -13 7 6 6 7 -6 7 -7 6 0 -13z" />
    <path d="M7880 1410 l0 -13 7 6 6 7 -6 7 -7 6 0 -13z" />
    <path d="M2146 1387 l6 -18 6 6 6 5 -13 13 -12 12 7 -18z" />
    <path d="M7875 1369 l-7 -10 5 -5 5 -5 5 16 6 15 -4 0 -4 0 -6 -11z" />
    <path d="M2155 1350 l6 -10 5 0 5 0 -6 10 -6 10 -5 0 -5 0 6 -10z" />
    <path d="M2200 1260 l0 -13 7 6 6 7 -6 7 -7 6 0 -13z" />
    <path d="M7815 1249 l-7 -10 5 -5 5 -5 5 16 6 15 -4 0 -4 0 -6 -11z" />
    <path d="M7755 1190 l-6 -10 15 6 16 6 0 4 0 4 -9 0 -10 0 -6 -10z" />
    <path d="M2270 1180 l0 -10 16 0 15 0 -6 10 -6 10 -10 0 -9 0 0 -10z" />
    <path d="M7725 1170 l-6 -10 16 0 16 0 -6 10 -6 10 -4 0 -4 0 -6 -10z" />
    <path d="M2330 1150 l0 -10 10 0 10 0 0 10 0 10 -10 0 -10 0 0 -10z" />
    <path d="M7690 1150 l0 -10 11 0 10 0 -6 10 -6 10 -5 0 -4 0 0 -10z" />
    <path d="M2370 1140 l0 -10 10 0 10 0 0 10 0 10 -10 0 -10 0 0 -10z" />
    <path d="M7650 1140 l0 -10 10 0 10 0 0 10 0 10 -10 0 -10 0 0 -10z" />
  </g>
  <g transform="translate(0.000000,687.000000) scale(0.100000,-0.100000)" fill="#cfd7de" stroke="none">
    <path d="M3182 3033 l-2 -973 1305 -2 1306 -3 -1 228 -1 227 -10 0 -9 0 0
-220 0 -220 -1290 0 -1290 0 -3 968 -2 967 -3 -972z" />
    <path d="M5770 3850 l0 -150 10 0 10 0 0 150 0 150 -10 0 -10 0 0 -150z" />
    <path d="M5714 3840 l0 -135 3 68 4 67 -4 68 -3 67 0 -135z" />
    <path d="M5503 3123 l7 -6 7 6 6 7 -13 0 -13 0 6 -7z" />
    <path d="M5790 3126 l0 -4 16 -6 15 -6 -6 10 -6 10 -10 0 -9 0 0 -4z" />
    <path d="M5210 3111 l0 -9 15 -6 15 -5 0 8 0 9 -15 6 -15 5 0 -8z" />
    <path d="M5103 3093 l7 -6 7 6 6 7 -13 0 -13 0 6 -7z" />
    <path d="M5513 3093 l7 -6 7 6 6 7 -13 0 -13 0 6 -7z" />
    <path d="M5563 3093 l7 -6 7 6 6 7 -13 0 -13 0 6 -7z" />
    <path d="M5850 3070 l0 -13 7 6 6 7 -6 7 -7 6 0 -13z" />
    <path d="M5376 3033 l-7 -18 12 12 13 13 -6 5 -6 6 -6 -18z" />
    <path d="M4903 3023 l39 -4 -6 -15 -5 -14 10 0 10 0 -3 18 -3 17 -40 1 -40 1
38 -4z" />
    <path d="M5265 3020 l6 -10 5 0 5 0 -6 10 -6 10 -5 0 -5 0 6 -10z" />
    <path d="M5461 3014 l1 -19 5 13 5 13 -6 6 -6 6 1 -19z" />
    <path d="M5730 3020 l0 -10 11 0 10 0 -6 10 -6 10 -5 0 -4 0 0 -10z" />
    <path d="M5620 3005 l0 -5 5 0 5 0 0 5 0 5 -5 0 -5 0 0 -5z" />
    <path d="M5136 2957 l6 -18 6 6 6 5 -13 13 -12 12 7 -18z" />
    <path d="M5315 2960 l6 -10 5 0 5 0 -6 10 -6 10 -5 0 -5 0 6 -10z" />
    <path d="M5835 2940 l6 -10 5 0 5 0 -6 10 -6 10 -5 0 -5 0 6 -10z" />
    <path d="M5010 2935 l0 -5 5 0 5 0 0 5 0 5 -5 0 -5 0 0 -5z" />
    <path d="M5450 2925 l0 -5 5 0 5 0 0 5 0 5 -5 0 -5 0 0 -5z" />
    <path d="M5050 2916 l0 -4 16 -6 15 -6 -6 10 -6 10 -10 0 -9 0 0 -4z" />
    <path d="M5170 2916 l0 -4 16 -6 15 -6 -6 10 -6 10 -10 0 -9 0 0 -4z" />
    <path d="M5270 2916 l0 -4 16 -6 15 -6 -6 10 -6 10 -10 0 -9 0 0 -4z" />
    <path d="M5390 2916 l0 -4 16 -6 15 -6 -6 10 -6 10 -10 0 -9 0 0 -4z" />
    <path d="M5825 2900 l6 -10 5 0 5 0 -6 10 -6 10 -5 0 -5 0 6 -10z" />
    <path d="M5493 2893 l7 -6 7 6 6 7 -13 0 -13 0 6 -7z" />
    <path d="M5523 2883 l7 -6 7 6 6 7 -13 0 -13 0 6 -7z" />
    <path d="M5553 2883 l7 -6 7 6 6 7 -13 0 -13 0 6 -7z" />
    <path d="M5714 2320 l0 -195 3 98 4 97 -4 98 -3 97 0 -195z" />
  </g>
  <g transform="translate(0.000000,687.000000) scale(0.100000,-0.100000)" fill="#cea23d" stroke="none">
    <path d="M2650 4805 l0 -5 5 0 5 0 0 5 0 5 -5 0 -5 0 0 -5z" />
    <path d="M2460 4675 l0 -5 5 0 5 0 0 5 0 5 -5 0 -5 0 0 -5z" />
    <path d="M7600 4605 l0 -5 5 0 5 0 0 5 0 5 -5 0 -5 0 0 -5z" />
    <path d="M2410 1780 l0 -13 7 6 6 7 -6 7 -7 6 0 -13z" />
    <path d="M7610 1755 l0 -5 5 0 5 0 0 5 0 5 -5 0 -5 0 0 -5z" />
    <path d="M2430 1710 l0 -13 7 6 6 7 -6 7 -7 6 0 -13z" />
    <path d="M7564 1648 l-7 -11 11 7 12 7 0 5 0 4 -4 0 -5 0 -7 -12z" />
    <path d="M7504 1578 l-7 -11 11 7 12 7 0 5 0 4 -4 0 -5 0 -7 -12z" />
    <path d="M7891 1454 l1 -19 5 13 5 13 -6 6 -6 6 1 -19z" />
    <path d="M2200 1255 l0 -5 5 0 5 0 0 5 0 5 -5 0 -5 0 0 -5z" />
    <path d="M7810 1235 l0 -5 5 0 5 0 0 5 0 5 -5 0 -5 0 0 -5z" />
    <path d="M2225 1179 l-50 -6 55 -2 55 -2 19 -14 20 -15 14 0 13 0 -6 10 -6 10
-10 -5 -9 -6 0 12 0 12 -7 -6 -6 -7 -16 13 -16 12 -50 -6z" />
    <path d="M7741 1173 l-13 -14 4 -4 3 -3 18 13 18 13 -8 5 -8 5 -14 -15z" />
    <path d="M7853 1173 l27 -4 28 4 27 4 -55 0 -55 0 28 -4z" />
    <path d="M1913 1163 l17 -4 18 4 17 5 -35 0 -35 0 18 -5z" />
    <path d="M8173 1163 l17 -4 18 4 17 5 -35 0 -35 0 18 -5z" />
    <path d="M1770 1150 l0 -10 33 1 32 0 -20 9 -20 9 -12 0 -13 1 0 -10z" />
    <path d="M8320 1150 l0 -10 25 0 25 0 0 10 0 10 -25 0 -25 0 0 -10z" />
    <path d="M2355 1141 l-10 -9 -25 -5 -25 -4 95 0 95 0 -45 4 -45 4 -9 10 -10 9
-6 0 -6 0 -9 -9z" />
    <path d="M7649 1134 l-11 -13 33 9 32 9 4 4 4 5 -25 0 -26 0 -11 -14z" />
    <path d="M1988 1133 l22 -4 18 4 17 5 -40 -1 -40 0 23 -4z" />
    <path d="M8148 1133 l22 -4 18 4 17 5 -40 -1 -40 0 23 -4z" />
    <path d="M2810 1120 l0 -10 80 0 80 0 0 10 0 10 -80 0 -80 0 0 -10z" />
    <path d="M3200 1123 l95 -3 2048 -2 2047 -3 0 8 0 7 -2142 -2 -2143 -2 95 -3z" />
    <path d="M7550 1120 l0 -10 40 0 40 0 0 10 0 10 -40 0 -40 0 0 -10z" />
    <path d="M7803 1123 l27 -4 28 4 27 4 -55 0 -55 0 28 -4z" />
    <path d="M4003 1103 l117 -4 118 4 117 3 -235 0 -235 0 118 -3z" />
    <path d="M5978 1103 l112 -4 113 4 112 3 -225 0 -225 0 113 -3z" />
  </g>
  <g transform="translate(0.000000,687.000000) scale(0.100000,-0.100000)" fill="#214b54" stroke="none">
    <path d="M2674 4628 l-7 -11 11 7 12 7 0 5 0 4 -4 0 -5 0 -7 -12z" />
    <path d="M7338 4633 l13 -5 6 6 6 6 -19 -1 -19 -1 13 -5z" />
    <path d="M7370 4625 l0 -5 5 0 5 0 0 5 0 5 -5 0 -5 0 0 -5z" />
    <path d="M7405 4600 l18 -20 5 0 5 0 -18 20 -18 20 -5 0 -5 0 18 -20z" />
    <path d="M2600 4575 l0 -5 5 0 5 0 0 5 0 5 -5 0 -5 0 0 -5z" />
    <path d="M7430 4565 l0 -5 5 0 5 0 0 5 0 5 -5 0 -5 0 0 -5z" />
    <path d="M7440 4540 l0 -13 7 6 6 7 -6 7 -7 6 0 -13z" />
    <path d="M3249 4261 l-39 -39 0 -42 0 -42 39 -39 39 -39 42 0 42 0 39 39 39
39 0 42 0 42 -39 39 -39 39 -42 0 -42 0 -39 -39z m147 -15 l33 -33 3 3 3 2 0
-38 0 -38 -3 3 -3 2 -32 -31 -33 -31 2 -5 2 -5 -38 0 -38 0 3 3 2 3 -33 33
-34 34 0 32 0 32 34 34 34 34 32 0 32 0 34 -34z" />
    <path d="M3880 3600 l0 -10 23 -1 22 -1 8 1 7 1 0 -34 0 -35 -10 -6 -10 -6 0
-11 0 -11 20 18 20 18 0 24 0 23 -20 20 -20 20 -20 0 -20 0 0 -10z" />
    <path d="M3850 3585 l-13 -15 5 -5 5 -5 13 15 13 15 -5 5 -5 5 -13 -15z" />
    <path d="M3833 3543 l7 -6 7 6 6 7 -13 0 -13 0 6 -7z" />
    <path d="M3840 3521 l0 -10 22 -15 22 -16 13 0 13 0 0 9 0 9 -25 6 -25 6 0 10
0 10 -10 0 -10 0 0 -9z" />
    <path d="M7440 1790 l0 -13 7 6 6 7 -6 7 -7 6 0 -13z" />
    <path d="M2660 1695 l0 -5 5 0 5 0 0 5 0 5 -5 0 -5 0 0 -5z" />
    <path d="M3852 1683 l1168 -3 1167 3 1168 2 -2335 0 -2335 0 1167 -2z" />
  </g>
  <g transform="translate(0.000000,687.000000) scale(0.100000,-0.100000)" fill="#524018" stroke="none">
    <path d="M2673 4803 l7 -6 7 6 6 7 -13 0 -13 0 6 -7z" />
    <path d="M7338 4803 l13 -5 6 6 6 6 -19 -1 -19 -1 13 -5z" />
    <path d="M2593 4783 l7 -6 7 6 6 7 -13 0 -13 0 6 -7z" />
    <path d="M2553 4763 l7 -6 7 6 6 7 -13 0 -13 0 6 -7z" />
    <path d="M2530 4745 l0 -5 5 0 5 0 0 5 0 5 -5 0 -5 0 0 -5z" />
    <path d="M2430 4605 l0 -5 5 0 5 0 0 5 0 5 -5 0 -5 0 0 -5z" />
    <path d="M7610 4540 l0 -13 7 6 6 7 -6 7 -7 6 0 -13z" />
    <path d="M3900 3596 l0 -4 16 -6 15 -6 -6 10 -6 10 -10 0 -9 0 0 -4z" />
    <path d="M3936 3523 l-7 -18 12 12 13 13 -6 5 -6 6 -6 -18z" />
    <path d="M3893 3493 l7 -6 7 6 6 7 -13 0 -13 0 6 -7z" />
    <path d="M7610 1790 l0 -13 7 6 6 7 -6 7 -7 6 0 -13z" />
    <path d="M2430 1715 l0 -5 5 0 5 0 0 5 0 5 -5 0 -5 0 0 -5z" />
    <path d="M7560 1645 l0 -5 5 0 5 0 0 5 0 5 -5 0 -5 0 0 -5z" />
    <path d="M2505 1600 l18 -20 5 0 5 0 -18 20 -18 20 -5 0 -5 0 18 -20z" />
    <path d="M7423 1533 l7 -6 7 6 6 7 -13 0 -13 0 6 -7z" />
    <path d="M2640 1525 l0 -5 5 0 5 0 0 5 0 5 -5 0 -5 0 0 -5z" />
    <path d="M7390 1525 l0 -5 5 0 5 0 0 5 0 5 -5 0 -5 0 0 -5z" />
    <path d="M4187 1513 l1053 -3 1052 3 1053 2 -2105 0 -2105 0 1052 -2z" />
    <path d="M2140 1440 l0 -13 7 6 6 7 -6 7 -7 6 0 -13z" />
    <path d="M7880 1400 l0 -13 7 6 6 7 -6 7 -7 6 0 -13z" />
    <path d="M2150 1375 l0 -5 5 0 5 0 0 5 0 5 -5 0 -5 0 0 -5z" />
    <path d="M7870 1350 l0 -13 7 6 6 7 -6 7 -7 6 0 -13z" />
    <path d="M2170 1315 l0 -10 10 -15 10 -15 0 10 0 10 -10 15 -10 15 0 -10z" />
    <path d="M7850 1299 l-12 -21 5 -4 4 -4 11 25 12 25 -5 0 -4 0 -11 -21z" />
    <path d="M2235 1220 l18 -20 5 0 5 0 -18 20 -18 20 -5 0 -5 0 18 -20z" />
    <path d="M7750 1180 l0 -13 7 6 6 7 -6 7 -7 6 0 -13z" />
    <path d="M2280 1170 l0 -10 10 0 10 0 0 10 0 10 -10 0 -10 0 0 -10z" />
    <path d="M7720 1160 l0 -10 10 0 10 0 0 10 0 10 -10 0 -10 0 0 -10z" />
    <path d="M2330 1150 l0 -13 7 6 6 7 -6 7 -7 6 0 -13z" />
    <path d="M2355 1140 l-6 -10 15 6 16 6 0 4 0 4 -9 0 -10 0 -6 -10z" />
    <path d="M7665 1140 l6 -10 10 0 10 0 -6 10 -6 10 -10 0 -10 0 6 -10z" />
  </g>
  <g transform="translate(0.000000,687.000000) scale(0.100000,-0.100000)" fill="#373f44" stroke="none">
    <path d="M3172 4178 l2 -143 3 138 4 137 1294 0 1294 0 4 -137 3 -138 2 143 2
142 -1305 0 -1305 0 2 -142z" />
    <path d="M5774 4018 l-7 -11 11 7 12 7 0 5 0 4 -4 0 -5 0 -7 -12z" />
    <path d="M5777 3678 l4 -8 185 0 184 0 0 -105 0 -105 11 0 12 0 -7 46 -6 47 0
63 0 63 -194 3 -194 3 5 -7z" />
    <path d="M3854 3578 l-7 -11 11 7 12 7 0 5 0 4 -4 0 -5 0 -7 -12z" />
    <path d="M3982 3554 l-13 -14 15 -15 15 -15 110 0 110 0 6 10 6 10 -120 0
-121 0 0 10 0 10 120 0 120 0 0 10 0 10 -117 0 -118 -1 -13 -15z" />
    <path d="M3840 3545 l0 -5 5 0 5 0 0 5 0 5 -5 0 -5 0 0 -5z" />
    <path d="M3850 3521 l0 -10 21 -11 21 -12 6 6 5 6 -11 0 -11 0 -15 16 -16 15
0 -10z" />
    <path d="M5212 3118 l4 -12 12 -2 13 -2 -11 5 -10 5 6 9 5 9 -11 0 -12 0 4
-12z" />
    <path d="M5620 3095 l23 -25 5 0 5 0 -23 25 -23 25 -5 0 -5 0 23 -25z" />
    <path d="M5005 3100 l6 -10 5 0 4 0 0 10 0 10 -11 0 -10 0 6 -10z" />
    <path d="M5459 3093 l-14 -18 18 14 17 13 0 4 0 4 -4 0 -4 0 -13 -17z" />
    <path d="M5346 3077 l6 -18 6 6 6 5 -13 13 -12 12 7 -18z" />
    <path d="M5162 3060 l0 -25 5 13 5 12 -5 13 -5 12 0 -25z" />
    <path d="M5465 3049 l-7 -10 5 -5 5 -5 5 16 6 15 -4 0 -4 0 -6 -11z" />
    <path d="M5620 3040 l0 -13 7 6 6 7 -6 7 -7 6 0 -13z" />
    <path d="M5144 3018 l-7 -11 11 7 12 7 0 5 0 4 -4 0 -5 0 -7 -12z" />
    <path d="M5790 3020 l-15 -10 12 0 12 0 6 10 6 10 -3 0 -3 0 -15 -10z" />
    <path d="M5330 2991 l0 -10 10 -6 10 -6 -6 15 -6 16 -4 0 -4 0 0 -9z" />
    <path d="M5300 2985 l0 -5 5 0 5 0 0 5 0 5 -5 0 -5 0 0 -5z" />
    <path d="M5125 2970 l6 -10 5 0 5 0 -6 10 -6 10 -5 0 -5 0 6 -10z" />
    <path d="M5650 2970 l0 -13 7 6 6 7 -6 7 -7 6 0 -13z" />
    <path d="M5326 2947 l6 -18 6 6 6 5 -13 13 -12 12 7 -18z" />
    <path d="M5825 2950 l6 -10 5 0 5 0 -6 10 -6 10 -5 0 -5 0 6 -10z" />
    <path d="M5695 2920 l-6 -10 10 0 11 0 0 10 0 10 -4 0 -5 0 -6 -10z" />
    <path d="M5730 2920 l0 -10 11 0 10 0 -6 10 -6 10 -5 0 -4 0 0 -10z" />
    <path d="M4933 2913 l7 -6 7 6 6 7 -13 0 -13 0 6 -7z" />
    <path d="M5523 2913 l7 -6 7 6 6 7 -13 0 -13 0 6 -7z" />
    <path d="M5553 2913 l7 -6 7 6 6 7 -13 0 -13 0 6 -7z" />
    <path d="M4800 2900 l0 -13 7 6 6 7 -6 7 -7 6 0 -13z" />
    <path d="M5600 2905 l0 -5 5 0 5 0 0 5 0 5 -5 0 -5 0 0 -5z" />
  </g>
  <g transform="translate(0.000000,687.000000) scale(0.100000,-0.100000)" fill="#fe3333" stroke="none">
    <path d="M3254 4256 l-34 -34 0 -41 0 -41 29 -32 29 -33 51 0 51 0 27 28 28
27 0 51 0 51 -33 29 -32 29 -41 0 -41 0 -34 -34z" />
    <path d="M4370 3231 l0 -10 10 -6 10 -6 -6 15 -6 16 -4 0 -4 0 0 -9z" />
    <path d="M4336 3213 l-7 -18 12 12 13 13 -6 5 -6 6 -6 -18z" />
    <path d="M4410 3161 l0 -10 10 -6 10 -6 -6 15 -6 16 -4 0 -4 0 0 -9z" />
    <path d="M4296 3143 l-7 -18 12 12 13 13 -6 5 -6 6 -6 -18z" />
    <path d="M4320 3112 l0 -9 29 5 29 4 5 -16 5 -16 -2 17 -1 18 -33 3 -32 3 0
-9z" />
    <path d="M4450 3091 l0 -10 10 -6 10 -6 -6 15 -6 16 -4 0 -4 0 0 -9z" />
    <path d="M4256 3073 l-7 -18 12 12 13 13 -6 5 -6 6 -6 -18z" />
    <path d="M4322 3050 l0 -25 5 13 5 12 -5 13 -5 12 0 -25z" />
    <path d="M4490 3021 l0 -10 10 -6 10 -6 -6 15 -6 16 -4 0 -4 0 0 -9z" />
    <path d="M4216 3003 l-7 -18 12 12 13 13 -6 5 -6 6 -6 -18z" />
    <path d="M4372 2940 l0 -25 5 13 5 12 -5 13 -5 12 0 -25z" />
    <path d="M4530 2951 l0 -10 10 -6 10 -6 -6 15 -6 16 -4 0 -4 0 0 -9z" />
    <path d="M4176 2933 l-7 -18 12 12 13 13 -6 5 -6 6 -6 -18z" />
    <path d="M4332 2880 l0 -25 5 13 5 12 -5 13 -5 12 0 -25z" />
    <path d="M4570 2881 l0 -10 10 -6 10 -6 -6 15 -6 16 -4 0 -4 0 0 -9z" />
    <path d="M4136 2863 l-7 -18 12 12 13 13 -6 5 -6 6 -6 -18z" />
    <path d="M4610 2811 l0 -10 10 -6 10 -6 -6 15 -6 16 -4 0 -4 0 0 -9z" />
    <path d="M4096 2793 l-7 -18 12 12 13 13 -6 5 -6 6 -6 -18z" />
    <path d="M4320 2771 l0 -10 10 -6 10 -6 -6 15 -6 16 -4 0 -4 0 0 -9z" />
    <path d="M4370 2765 l-12 -15 10 0 10 0 6 15 5 15 -3 0 -4 0 -12 -15z" />
    <path d="M4650 2741 l0 -10 10 -6 10 -6 -6 15 -6 16 -4 0 -4 0 0 -9z" />
    <path d="M4056 2723 l-7 -18 12 12 13 13 -6 5 -6 6 -6 -18z" />
  </g>
  <g transform="translate(0.000000,687.000000) scale(0.100000,-0.100000)" fill="#a6a6a6" stroke="none">
    <path d="M3823 4013 l659 -3 651 3 652 2 -1310 0 -1310 0 658 -2z" />
    <path d="M5728 3683 l22 -4 18 4 17 5 -40 -1 -40 0 23 -4z" />
    <path d="M3987 3553 l-7 -6 0 -9 0 -8 15 0 15 0 0 15 0 15 -8 0 -9 0 -6 -7z" />
    <path d="M4990 3119 l0 -10 10 6 10 6 0 5 0 4 -10 0 -10 0 0 -11z" />
    <path d="M5213 3123 l7 -6 7 6 6 7 -13 0 -13 0 6 -7z" />
    <path d="M5783 3123 l7 -6 7 6 6 7 -13 0 -13 0 6 -7z" />
    <path d="M5810 3116 l0 -4 16 -6 15 -6 -6 10 -6 10 -10 0 -9 0 0 -4z" />
    <path d="M4820 3017 l5 -92 3 84 3 84 -8 8 -8 8 5 -92z" />
    <path d="M5683 3103 l7 -6 7 6 6 7 -13 0 -13 0 6 -7z" />
    <path d="M4940 3095 l0 -5 5 0 5 0 0 5 0 5 -5 0 -5 0 0 -5z" />
    <path d="M5335 3090 l6 -10 5 0 5 0 -6 10 -6 10 -5 0 -5 0 6 -10z" />
    <path d="M5160 3080 l0 -13 7 6 6 7 -6 7 -7 6 0 -13z" />
    <path d="M5590 3086 l0 -4 18 -13 17 -14 -14 18 -13 17 -4 0 -4 0 0 -4z" />
    <path d="M5650 3055 l0 -5 5 0 5 0 0 5 0 5 -5 0 -5 0 0 -5z" />
    <path d="M5804 3028 l-7 -11 11 7 12 7 0 5 0 4 -4 0 -5 0 -7 -12z" />
    <path d="M5093 3013 l7 -6 7 6 6 7 -13 0 -13 0 6 -7z" />
    <path d="M5313 3013 l7 -6 7 6 6 7 -13 0 -13 0 6 -7z" />
    <path d="M5824 3008 l-7 -11 11 7 12 7 0 5 0 4 -4 0 -5 0 -7 -12z" />
    <path d="M4930 3000 l-15 -10 12 0 12 0 6 10 6 10 -3 0 -3 0 -15 -10z" />
    <path d="M5460 2980 l0 -13 7 6 6 7 -6 7 -7 6 0 -13z" />
    <path d="M5620 2980 l0 -13 7 6 6 7 -6 7 -7 6 0 -13z" />
    <path d="M5345 2970 l6 -10 5 0 5 0 -6 10 -6 10 -5 0 -5 0 6 -10z" />
    <path d="M5430 2965 l0 -5 5 0 5 0 0 5 0 5 -5 0 -5 0 0 -5z" />
    <path d="M5100 2955 l0 -5 5 0 5 0 0 5 0 5 -5 0 -5 0 0 -5z" />
    <path d="M5475 2950 l6 -10 5 0 5 0 -6 10 -6 10 -5 0 -5 0 6 -10z" />
    <path d="M5610 2955 l0 -5 5 0 5 0 0 5 0 5 -5 0 -5 0 0 -5z" />
    <path d="M5805 2930 l6 -10 5 0 5 0 -6 10 -6 10 -5 0 -5 0 6 -10z" />
    <path d="M5165 2920 l6 -10 5 0 5 0 -6 10 -6 10 -5 0 -5 0 6 -10z" />
    <path d="M5385 2920 l6 -10 5 0 5 0 -6 10 -6 10 -5 0 -5 0 6 -10z" />
    <path d="M5270 2915 l0 -5 5 0 5 0 0 5 0 5 -5 0 -5 0 0 -5z" />
    <path d="M5070 2900 l0 -13 7 6 6 7 -6 7 -7 6 0 -13z" />
    <path d="M5410 2900 l0 -13 7 6 6 7 -6 7 -7 6 0 -13z" />
  </g>
  <g transform="translate(0.000000,687.000000) scale(0.100000,-0.100000)" fill="#c49b3a" stroke="none">
    <path d="M7370 4805 l0 -5 5 0 5 0 0 5 0 5 -5 0 -5 0 0 -5z" />
    <path d="M2584 4778 l-7 -11 11 7 12 7 0 5 0 4 -4 0 -5 0 -7 -12z" />
    <path d="M7495 4750 l6 -10 5 0 5 0 -6 10 -6 10 -5 0 -5 0 6 -10z" />
    <path d="M7550 4695 l0 -5 5 0 5 0 0 5 0 5 -5 0 -5 0 0 -5z" />
    <path d="M2410 4530 l0 -13 7 6 6 7 -6 7 -7 6 0 -13z" />
    <path d="M2420 1735 l0 -5 5 0 5 0 0 5 0 5 -5 0 -5 0 0 -5z" />
    <path d="M7544 1618 l-7 -11 11 7 12 7 0 5 0 4 -4 0 -5 0 -7 -12z" />
    <path d="M7434 1538 l-7 -11 11 7 12 7 0 5 0 4 -4 0 -5 0 -7 -12z" />
    <path d="M2663 1513 l7 -6 7 6 6 7 -13 0 -13 0 6 -7z" />
    <path d="M7363 1513 l7 -6 7 6 6 7 -13 0 -13 0 6 -7z" />
    <path d="M7870 1345 l0 -5 5 0 5 0 0 5 0 5 -5 0 -5 0 0 -5z" />
    <path d="M2270 1170 l15 -10 8 0 8 0 -6 10 -6 10 -17 0 -17 0 15 -10z" />
    <path d="M7793 1173 l17 -4 18 4 17 5 -35 0 -35 0 18 -5z" />
    <path d="M1958 1163 l13 -5 6 6 6 6 -19 -1 -19 -1 13 -5z" />
    <path d="M7716 1154 l-20 -14 10 0 9 0 15 10 14 9 -4 5 -5 4 -19 -14z" />
    <path d="M8138 1163 l12 -5 13 5 12 5 -25 0 -25 0 13 -5z" />
    <path d="M1784 1148 l-7 -11 11 7 12 7 0 5 0 4 -4 0 -5 0 -7 -12z" />
    <path d="M2133 1153 l17 -4 18 4 17 5 -35 0 -35 0 18 -5z" />
    <path d="M8320 1150 l0 -10 11 0 10 0 -6 10 -6 10 -5 0 -4 0 0 -10z" />
    <path d="M1823 1143 l7 -6 7 6 6 7 -13 0 -13 0 6 -7z" />
    <path d="M2273 1143 l7 -6 7 6 6 7 -13 0 -13 0 6 -7z" />
    <path d="M2375 1140 l8 -13 -19 7 -19 7 13 -12 12 -13 11 11 11 11 -13 7 -12
8 8 -13z" />
    <path d="M2038 1133 l12 -5 13 5 12 5 -25 0 -25 0 13 -5z" />
    <path d="M7673 1133 l7 -6 7 6 6 7 -13 0 -13 0 6 -7z" />
    <path d="M8118 1133 l13 -5 6 6 6 6 -19 -1 -19 -1 13 -5z" />
    <path d="M2515 1119 l50 -8 272 2 272 3 7 7 7 7 -329 -1 -329 -1 50 -9z" />
    <path d="M7350 1119 l45 -8 88 0 88 -1 -6 10 -6 10 -127 -1 -127 -2 45 -8z" />
    <path d="M7615 1120 l-6 -10 15 0 15 0 6 10 6 10 -15 0 -15 0 -6 -10z" />
    <path d="M7753 1123 l17 -5 13 5 12 5 -30 0 -30 0 18 -5z" />
    <path d="M7173 1113 l27 -4 23 4 22 4 -50 0 -50 0 28 -4z" />
    <path d="M4513 1103 l177 -3 178 3 177 2 -355 0 -355 0 178 -2z" />
    <path d="M5483 1103 l138 -4 132 4 132 3 -270 0 -270 0 138 -3z" />
  </g>
  <g transform="translate(0.000000,687.000000) scale(0.100000,-0.100000)" fill="#727b81" stroke="none">
    <path d="M3985 3550 l-6 -10 6 -10 6 -10 120 0 119 0 0 20 0 20 -15 0 -15 0 0
-10 0 -10 -95 0 -95 0 0 10 0 10 -9 0 -10 0 -6 -10z m15 -5 l0 -5 -5 0 -5 0 0
5 0 5 5 0 5 0 0 -5z" />
    <path d="M3790 3448 l0 -8 1190 -2 1190 -3 0 7 0 8 -1190 2 -1190 3 0 -7z" />
    <path d="M5563 3123 l7 -6 7 6 6 7 -13 0 -13 0 6 -7z" />
    <path d="M5773 3123 l7 -6 7 6 6 7 -13 0 -13 0 6 -7z" />
    <path d="M4990 3116 l0 -4 18 -13 17 -14 -14 18 -13 17 -4 0 -4 0 0 -4z" />
    <path d="M5489 3083 l-14 -18 18 14 17 13 0 4 0 4 -4 0 -4 0 -13 -17z" />
    <path d="M5585 3090 l6 -10 5 0 5 0 -6 10 -6 10 -5 0 -5 0 6 -10z" />
    <path d="M5730 3090 l0 -13 7 6 6 7 -6 7 -7 6 0 -13z" />
    <path d="M5351 3054 l1 -19 5 13 5 13 -6 6 -6 6 1 -19z" />
    <path d="M5380 3050 l0 -13 7 6 6 7 -6 7 -7 6 0 -13z" />
    <path d="M5731 3024 l1 -19 5 13 5 13 -6 6 -6 6 1 -19z" />
    <path d="M5834 3018 l-7 -11 11 7 12 7 0 5 0 4 -4 0 -5 0 -7 -12z" />
    <path d="M4940 3010 l0 -13 7 6 6 7 -6 7 -7 6 0 -13z" />
    <path d="M5330 2995 l0 -5 5 0 5 0 0 5 0 5 -5 0 -5 0 0 -5z" />
    <path d="M5650 2965 l0 -5 5 0 5 0 0 5 0 5 -5 0 -5 0 0 -5z" />
    <path d="M5696 2923 l-7 -18 12 12 13 13 -6 5 -6 6 -6 -18z" />
    <path d="M5730 2931 l0 -10 10 -6 10 -6 -6 15 -6 16 -4 0 -4 0 0 -9z" />
    <path d="M5010 2915 l0 -5 5 0 5 0 0 5 0 5 -5 0 -5 0 0 -5z" />
    <path d="M5130 2915 l0 -5 5 0 5 0 0 5 0 5 -5 0 -5 0 0 -5z" />
    <path d="M5538 2913 l13 -5 6 6 6 6 -19 -1 -19 -1 13 -5z" />
    <path d="M4990 2900 l0 -13 7 6 6 7 -6 7 -7 6 0 -13z" />
  </g>
  <g transform="translate(0.000000,687.000000) scale(0.100000,-0.100000)" fill="#413313" stroke="none">
    <path d="M2683 4803 l7 -6 7 6 6 7 -13 0 -13 0 6 -7z" />
    <path d="M5947 4803 l461 -3 469 3 468 2 -930 0 -930 0 462 -2z" />
    <path d="M2630 4795 l0 -5 5 0 5 0 0 5 0 5 -5 0 -5 0 0 -5z" />
    <path d="M7390 4795 l0 -5 5 0 5 0 0 5 0 5 -5 0 -5 0 0 -5z" />
    <path d="M2580 4775 l0 -5 5 0 5 0 0 5 0 5 -5 0 -5 0 0 -5z" />
    <path d="M7483 4753 l7 -6 7 6 6 7 -13 0 -13 0 6 -7z" />
    <path d="M2480 4695 l0 -5 5 0 5 0 0 5 0 5 -5 0 -5 0 0 -5z" />
    <path d="M7560 4675 l0 -5 5 0 5 0 0 5 0 5 -5 0 -5 0 0 -5z" />
    <path d="M2420 4565 l0 -5 5 0 5 0 0 5 0 5 -5 0 -5 0 0 -5z" />
    <path d="M7610 4530 l0 -13 7 6 6 7 -6 7 -7 6 0 -13z" />
    <path d="M7614 1910 l0 -125 3 63 4 62 -4 63 -3 62 0 -125z" />
    <path d="M2420 1755 l0 -5 5 0 5 0 0 5 0 5 -5 0 -5 0 0 -5z" />
    <path d="M7600 1735 l0 -5 5 0 5 0 0 5 0 5 -5 0 -5 0 0 -5z" />
    <path d="M7594 1708 l-7 -11 11 7 12 7 0 5 0 4 -4 0 -5 0 -7 -12z" />
    <path d="M2460 1650 l0 -13 7 6 6 7 -6 7 -7 6 0 -13z" />
    <path d="M2500 1605 l0 -5 5 0 5 0 0 5 0 5 -5 0 -5 0 0 -5z" />
    <path d="M7493 1573 l7 -6 7 6 6 7 -13 0 -13 0 6 -7z" />
    <path d="M2543 1563 l7 -6 7 6 6 7 -13 0 -13 0 6 -7z" />
    <path d="M7463 1553 l7 -6 7 6 6 7 -13 0 -13 0 6 -7z" />
    <path d="M7440 1545 l0 -5 5 0 5 0 0 5 0 5 -5 0 -5 0 0 -5z" />
    <path d="M2615 1530 l6 -10 5 0 5 0 -6 10 -6 10 -5 0 -5 0 6 -10z" />
    <path d="M7880 1405 l0 -5 5 0 5 0 0 5 0 5 -5 0 -5 0 0 -5z" />
    <path d="M7820 1255 l0 -5 5 0 5 0 0 5 0 5 -5 0 -5 0 0 -5z" />
    <path d="M2235 1220 l6 -10 5 0 5 0 -6 10 -6 10 -5 0 -5 0 6 -10z" />
    <path d="M2310 1160 l0 -13 7 6 6 7 -6 7 -7 6 0 -13z" />
    <path d="M2370 1145 l0 -5 5 0 5 0 0 5 0 5 -5 0 -5 0 0 -5z" />
    <path d="M7665 1140 l6 -10 5 0 5 0 -6 10 -6 10 -5 0 -5 0 6 -10z" />
  </g>
  <g transform="translate(0.000000,687.000000) scale(0.100000,-0.100000)" fill="#b3b8bb" stroke="none">
    <path d="M3783 3685 l0 -10 701 3 701 2 270 3 270 2 -971 5 -971 5 0 -10z" />
    <path d="M3780 3450 l0 -10 10 0 10 0 0 10 0 10 -10 0 -10 0 0 -10z" />
    <path d="M5103 3123 l7 -6 7 6 6 7 -13 0 -13 0 6 -7z" />
    <path d="M5474 3108 l-7 -11 11 7 12 7 0 5 0 4 -4 0 -5 0 -7 -12z" />
    <path d="M5600 3115 l0 -5 5 0 5 0 0 5 0 5 -5 0 -5 0 0 -5z" />
    <path d="M4803 3103 l7 -6 7 6 6 7 -13 0 -13 0 6 -7z" />
    <path d="M5115 3090 l6 -10 5 0 5 0 -6 10 -6 10 -5 0 -5 0 6 -10z" />
    <path d="M5376 3087 l6 -18 6 6 6 5 -13 13 -12 12 7 -18z" />
    <path d="M5783 3093 l7 -6 7 6 6 7 -13 0 -13 0 6 -7z" />
    <path d="M5445 3079 l-7 -10 5 -5 5 -5 5 16 6 15 -4 0 -4 0 -6 -11z" />
    <path d="M5850 3060 l0 -13 7 6 6 7 -6 7 -7 6 0 -13z" />
    <path d="M5460 3030 l0 -13 7 6 6 7 -6 7 -7 6 0 -13z" />
    <path d="M5620 3030 l0 -13 7 6 6 7 -6 7 -7 6 0 -13z" />
    <path d="M5840 3030 l0 -13 7 6 6 7 -6 7 -7 6 0 -13z" />
    <path d="M5773 3013 l7 -6 7 6 6 7 -13 0 -13 0 6 -7z" />
    <path d="M4868 2993 l22 -4 23 4 22 4 -45 0 -45 0 23 -4z" />
    <path d="M5790 2996 l0 -4 15 -12 15 -13 -6 17 -6 16 -9 0 -9 0 0 -4z" />
    <path d="M5751 2987 l4 -3 20 -14 20 -15 -14 18 -13 17 -11 0 -10 0 4 -3z" />
    <path d="M4944 2938 l-7 -11 11 7 12 7 0 5 0 4 -4 0 -5 0 -7 -12z" />
    <path d="M4821 2924 l1 -19 5 13 5 13 -6 6 -6 6 1 -19z" />
    <path d="M5155 2930 l6 -10 5 0 5 0 -6 10 -6 10 -5 0 -5 0 6 -10z" />
    <path d="M5330 2936 l0 -4 18 -13 17 -14 -14 18 -13 17 -4 0 -4 0 0 -4z" />
    <path d="M5375 2930 l6 -10 5 0 5 0 -6 10 -6 10 -5 0 -5 0 6 -10z" />
    <path d="M5629 2923 l-14 -18 18 14 17 13 0 4 0 4 -4 0 -4 0 -13 -17z" />
    <path d="M5690 2915 l0 -5 5 0 5 0 0 5 0 5 -5 0 -5 0 0 -5z" />
    <path d="M5743 2913 l7 -6 7 6 6 7 -13 0 -13 0 6 -7z" />
    <path d="M5860 2915 l0 -5 5 0 5 0 0 5 0 5 -5 0 -5 0 0 -5z" />
    <path d="M5290 2900 l0 -13 7 6 6 7 -6 7 -7 6 0 -13z" />
  </g>
  <g transform="translate(0.000000,687.000000) scale(0.100000,-0.100000)" fill="#4dc5e4" stroke="none">
    <path d="M2670 4625 l0 -5 5 0 5 0 0 5 0 5 -5 0 -5 0 0 -5z" />
    <path d="M2589 4523 l-14 -18 18 14 17 13 0 4 0 4 -4 0 -4 0 -13 -17z" />
    <path d="M5784 3850 l0 -155 3 78 4 77 -4 78 -3 77 0 -155z" />
    <path d="M6162 3490 l0 -35 5 18 4 17 -4 18 -5 17 0 -35z" />
    <path d="M6162 2983 l-2 -473 -182 -3 -183 -2 183 -3 183 -2 4 13 5 12 -2 465
-3 465 -3 -472z" />
    <path d="M5780 2505 l0 -5 5 0 5 0 0 5 0 5 -5 0 -5 0 0 -5z" />
    <path d="M5784 2270 l0 -225 3 113 4 112 -4 113 -3 112 0 -225z" />
    <path d="M2585 1800 l6 -10 5 0 5 0 -6 10 -6 10 -5 0 -5 0 6 -10z" />
    <path d="M7400 1735 l0 -5 5 0 5 0 0 5 0 5 -5 0 -5 0 0 -5z" />
  </g>
  <g transform="translate(0.000000,687.000000) scale(0.100000,-0.100000)" fill="#0a1d22" stroke="none">
    <path d="M2650 4625 l0 -5 5 0 5 0 0 5 0 5 -5 0 -5 0 0 -5z" />
    <path d="M7390 4615 l0 -5 5 0 5 0 0 5 0 5 -5 0 -5 0 0 -5z" />
    <path d="M7420 4585 l0 -5 5 0 5 0 0 5 0 5 -5 0 -5 0 0 -5z" />
    <path d="M7440 4545 l0 -5 5 0 5 0 0 5 0 5 -5 0 -5 0 0 -5z" />
    <path d="M3780 3669 l0 -10 10 6 10 6 0 5 0 4 -10 0 -10 0 0 -11z" />
    <path d="M3780 3461 l0 -10 10 -6 10 -6 0 10 0 10 -10 6 -10 6 0 -10z" />
    <path d="M2585 2485 l0 -690 2 348 3 348 -3 342 -2 342 0 -690z" />
    <path d="M5810 3115 l0 -5 5 0 5 0 0 5 0 5 -5 0 -5 0 0 -5z" />
    <path d="M5370 3095 l0 -5 5 0 5 0 0 5 0 5 -5 0 -5 0 0 -5z" />
    <path d="M5573 3093 l7 -6 7 6 6 7 -13 0 -13 0 6 -7z" />
    <path d="M5620 3095 l0 -5 5 0 5 0 0 5 0 5 -5 0 -5 0 0 -5z" />
    <path d="M4852 3065 l0 -30 5 18 5 17 -5 13 -5 12 0 -30z" />
    <path d="M5816 3067 l6 -18 6 6 6 5 -13 13 -12 12 7 -18z" />
    <path d="M5440 3065 l0 -5 5 0 5 0 0 5 0 5 -5 0 -5 0 0 -5z" />
    <path d="M5340 3030 l0 -13 7 6 6 7 -6 7 -7 6 0 -13z" />
    <path d="M5840 3035 l0 -5 5 0 5 0 0 5 0 5 -5 0 -5 0 0 -5z" />
    <path d="M4850 3025 l0 -5 5 0 5 0 0 5 0 5 -5 0 -5 0 0 -5z" />
    <path d="M5134 3008 l-7 -11 11 7 12 7 0 5 0 4 -4 0 -5 0 -7 -12z" />
    <path d="M4850 2995 l0 -5 5 0 5 0 0 5 0 5 -5 0 -5 0 0 -5z" />
    <path d="M5085 2980 l6 -10 5 0 5 0 -6 10 -6 10 -5 0 -5 0 6 -10z" />
    <path d="M5430 2985 l0 -5 5 0 5 0 0 5 0 5 -5 0 -5 0 0 -5z" />
    <path d="M4852 2955 l0 -30 5 18 5 17 -5 13 -5 12 0 -30z" />
    <path d="M5593 2933 l7 -6 7 6 6 7 -13 0 -13 0 6 -7z" />
    <path d="M5350 2916 l0 -4 18 -13 17 -14 -14 18 -13 17 -4 0 -4 0 0 -4z" />
    <path d="M5010 2895 l0 -5 5 0 5 0 0 5 0 5 -5 0 -5 0 0 -5z" />
    <path d="M5500 2896 l0 -4 16 -6 15 -6 -6 10 -6 10 -10 0 -9 0 0 -4z" />
    <path d="M5750 2895 l0 -5 5 0 5 0 0 5 0 5 -5 0 -5 0 0 -5z" />
    <path d="M2600 1745 l0 -5 5 0 5 0 0 5 0 5 -5 0 -5 0 0 -5z" />
    <path d="M7400 1715 l0 -5 5 0 5 0 0 5 0 5 -5 0 -5 0 0 -5z" />
    <path d="M7370 1695 l0 -5 5 0 5 0 0 5 0 5 -5 0 -5 0 0 -5z" />
    <path d="M2690 1685 l0 -5 5 0 5 0 0 5 0 5 -5 0 -5 0 0 -5z" />
    <path d="M7340 1685 l0 -5 5 0 5 0 0 5 0 5 -5 0 -5 0 0 -5z" />
  </g>
  <g transform="translate(0.000000,687.000000) scale(0.100000,-0.100000)" fill="#dfaf43" stroke="none">
    <path d="M7410 4795 l0 -5 5 0 5 0 0 5 0 5 -5 0 -5 0 0 -5z" />
    <path d="M2410 4535 l0 -5 5 0 5 0 0 5 0 5 -5 0 -5 0 0 -5z" />
    <path d="M2540 1565 l0 -5 5 0 5 0 0 5 0 5 -5 0 -5 0 0 -5z" />
    <path d="M7470 1555 l0 -5 5 0 5 0 0 5 0 5 -5 0 -5 0 0 -5z" />
    <path d="M2170 1305 l0 -5 5 0 5 0 0 5 0 5 -5 0 -5 0 0 -5z" />
    <path d="M7850 1295 l0 -5 5 0 5 0 0 5 0 5 -5 0 -5 0 0 -5z" />
    <path d="M2180 1285 l0 -5 5 0 5 0 0 5 0 5 -5 0 -5 0 0 -5z" />
    <path d="M7770 1195 l0 -5 5 0 5 0 0 5 0 5 -5 0 -5 0 0 -5z" />
    <path d="M2128 1173 l22 -4 23 4 22 4 -45 0 -45 0 23 -4z" />
    <path d="M2270 1175 l0 -5 5 0 5 0 0 5 0 5 -5 0 -5 0 0 -5z" />
    <path d="M7750 1175 l0 -5 5 0 5 0 0 5 0 5 -5 0 -5 0 0 -5z" />
    <path d="M7938 1173 l22 -4 23 4 22 4 -45 0 -45 0 23 -4z" />
    <path d="M1878 1163 l12 -5 13 5 12 5 -25 0 -25 0 13 -5z" />
    <path d="M2290 1165 l0 -5 5 0 5 0 0 5 0 5 -5 0 -5 0 0 -5z" />
    <path d="M8223 1163 l17 -5 13 5 12 5 -30 0 -30 0 18 -5z" />
    <path d="M1765 1150 l6 -10 10 0 10 0 -6 10 -6 10 -10 0 -10 0 6 -10z" />
    <path d="M2310 1155 l0 -5 5 0 5 0 0 5 0 5 -5 0 -5 0 0 -5z" />
    <path d="M7720 1155 l0 -5 5 0 5 0 0 5 0 5 -5 0 -5 0 0 -5z" />
    <path d="M8355 1150 l-6 -10 10 0 10 0 6 10 6 10 -10 0 -10 0 -6 -10z" />
    <path d="M2330 1145 l0 -5 5 0 5 0 0 5 0 5 -5 0 -5 0 0 -5z" />
    <path d="M7700 1145 l0 -5 5 0 5 0 0 5 0 5 -5 0 -5 0 0 -5z" />
    <path d="M1933 1133 l17 -4 18 4 17 5 -35 0 -35 0 18 -5z" />
    <path d="M7670 1135 l0 -5 5 0 5 0 0 5 0 5 -5 0 -5 0 0 -5z" />
    <path d="M8203 1133 l17 -5 13 5 12 5 -30 0 -30 0 18 -5z" />
    <path d="M2243 1123 l27 -4 23 4 22 4 -50 0 -50 0 28 -4z" />
    <path d="M7893 1123 l27 -4 28 4 27 4 -55 0 -55 0 28 -4z" />
    <path d="M2713 1113 l37 -4 38 4 37 4 -75 0 -75 0 38 -4z" />
    <path d="M7418 1113 l43 -4 37 4 37 4 -80 0 -80 0 43 -4z" />
    <path d="M3683 1103 l78 -4 72 4 72 3 -150 0 -150 0 78 -3z" />
    <path d="M6383 1103 l88 -4 82 4 82 3 -170 0 -170 0 88 -3z" />
  </g>
  <g transform="translate(0.000000,687.000000) scale(0.100000,-0.100000)" fill="#08171c" stroke="none">
    <path d="M7350 4635 l0 -5 5 0 5 0 0 5 0 5 -5 0 -5 0 0 -5z" />
    <path d="M2585 3840 l0 -685 2 343 3 342 -3 343 -2 342 0 -685z" />
    <path d="M5695 3100 l6 -10 5 0 4 0 0 10 0 10 -11 0 -10 0 6 -10z" />
    <path d="M5260 3095 l0 -5 5 0 5 0 0 5 0 5 -5 0 -5 0 0 -5z" />
    <path d="M5503 3093 l7 -6 7 6 6 7 -13 0 -13 0 6 -7z" />
    <path d="M5260 3025 l0 -5 5 0 5 0 0 5 0 5 -5 0 -5 0 0 -5z" />
    <path d="M5795 2990 l6 -10 5 0 5 0 -6 10 -6 10 -5 0 -5 0 6 -10z" />
    <path d="M5145 2940 l6 -10 5 0 5 0 -6 10 -6 10 -5 0 -5 0 6 -10z" />
    <path d="M5480 2940 l0 -13 7 6 6 7 -6 7 -7 6 0 -13z" />
    <path d="M5050 2895 l0 -5 5 0 5 0 0 5 0 5 -5 0 -5 0 0 -5z" />
    <path d="M5230 2895 l0 -5 5 0 5 0 0 5 0 5 -5 0 -5 0 0 -5z" />
    <path d="M2580 1805 l0 -5 5 0 5 0 0 5 0 5 -5 0 -5 0 0 -5z" />
    <path d="M7420 1735 l0 -5 5 0 5 0 0 5 0 5 -5 0 -5 0 0 -5z" />
  </g>
  <g transform="translate(0.000000,687.000000) scale(0.100000,-0.100000)" fill="#f1f5f7" stroke="none">
    <path d="M3775 3691 l-5 -10 8 -5 9 -5 0 14 0 15 -3 0 -3 0 -6 -9z" />
    <path d="M3785 2970 l0 -465 2 232 3 233 -3 232 -2 233 0 -465z" />
    <path d="M4396 3187 l6 -18 6 6 6 5 -13 13 -12 12 7 -18z" />
    <path d="M4436 3117 l6 -18 6 6 6 5 -13 13 -12 12 7 -18z" />
    <path d="M4963 3123 l7 -6 7 6 6 7 -13 0 -13 0 6 -7z" />
    <path d="M5133 3113 l7 -6 7 6 6 7 -13 0 -13 0 6 -7z" />
    <path d="M5010 3095 l0 -5 5 0 5 0 0 5 0 5 -5 0 -5 0 0 -5z" />
    <path d="M5780 3095 l0 -5 5 0 5 0 0 5 0 5 -5 0 -5 0 0 -5z" />
    <path d="M4800 3085 l0 -5 5 0 5 0 0 5 0 5 -5 0 -5 0 0 -5z" />
    <path d="M4970 3085 l0 -5 5 0 5 0 0 5 0 5 -5 0 -5 0 0 -5z" />
    <path d="M4990 3085 l0 -5 5 0 5 0 0 5 0 5 -5 0 -5 0 0 -5z" />
    <path d="M5210 3085 l0 -5 5 0 5 0 0 5 0 5 -5 0 -5 0 0 -5z" />
    <path d="M5680 3085 l0 -5 5 0 5 0 0 5 0 5 -5 0 -5 0 0 -5z" />
    <path d="M5750 3075 l0 -5 5 0 5 0 0 5 0 5 -5 0 -5 0 0 -5z" />
    <path d="M5790 3075 l0 -5 5 0 5 0 0 5 0 5 -5 0 -5 0 0 -5z" />
    <path d="M5810 3075 l0 -5 5 0 5 0 0 5 0 5 -5 0 -5 0 0 -5z" />
    <path d="M5470 3060 l0 -13 7 6 6 7 -6 7 -7 6 0 -13z" />
    <path d="M4476 3047 l6 -18 6 6 6 5 -13 13 -12 12 7 -18z" />
    <path d="M5344 3038 l-7 -11 11 7 12 7 0 5 0 4 -4 0 -5 0 -7 -12z" />
    <path d="M5750 3035 l0 -5 5 0 5 0 0 5 0 5 -5 0 -5 0 0 -5z" />
    <path d="M4960 3010 l0 -13 7 6 6 7 -6 7 -7 6 0 -13z" />
    <path d="M5120 3000 l-15 -10 12 0 12 0 6 10 6 10 -3 0 -3 0 -15 -10z" />
    <path d="M4330 2990 l0 -13 7 6 6 7 -6 7 -7 6 0 -13z" />
    <path d="M4516 2977 l6 -18 6 6 6 5 -13 13 -12 12 7 -18z" />
    <path d="M5060 2985 l0 -5 5 0 5 0 0 5 0 5 -5 0 -5 0 0 -5z" />
    <path d="M5273 2983 l7 -6 7 6 6 7 -13 0 -13 0 6 -7z" />
    <path d="M5750 2985 l0 -5 5 0 5 0 0 5 0 5 -5 0 -5 0 0 -5z" />
    <path d="M5750 2965 l0 -5 5 0 5 0 0 5 0 5 -5 0 -5 0 0 -5z" />
    <path d="M4963 2943 l7 -6 7 6 6 7 -13 0 -13 0 6 -7z" />
    <path d="M5480 2945 l0 -5 5 0 5 0 0 5 0 5 -5 0 -5 0 0 -5z" />
    <path d="M5640 2940 l0 -13 7 6 6 7 -6 7 -7 6 0 -13z" />
    <path d="M4920 2935 l0 -5 5 0 5 0 0 5 0 5 -5 0 -5 0 0 -5z" />
    <path d="M5330 2935 l0 -5 5 0 5 0 0 5 0 5 -5 0 -5 0 0 -5z" />
    <path d="M5584 2928 l-7 -11 11 7 12 7 0 5 0 4 -4 0 -5 0 -7 -12z" />
    <path d="M5750 2935 l0 -5 5 0 5 0 0 5 0 5 -5 0 -5 0 0 -5z" />
    <path d="M5860 2935 l0 -5 5 0 5 0 0 5 0 5 -5 0 -5 0 0 -5z" />
    <path d="M4970 2925 l0 -5 5 0 5 0 0 5 0 5 -5 0 -5 0 0 -5z" />
    <path d="M4556 2907 l6 -18 6 6 6 5 -13 13 -12 12 7 -18z" />
    <path d="M5750 2915 l0 -5 5 0 5 0 0 5 0 5 -5 0 -5 0 0 -5z" />
    <path d="M5470 2905 l0 -5 5 0 5 0 0 5 0 5 -5 0 -5 0 0 -5z" />
    <path d="M5140 2895 l0 -5 5 0 5 0 0 5 0 5 -5 0 -5 0 0 -5z" />
    <path d="M4360 2880 l0 -13 7 6 6 7 -6 7 -7 6 0 -13z" />
    <path d="M5520 2885 l0 -5 5 0 5 0 0 5 0 5 -5 0 -5 0 0 -5z" />
    <path d="M5560 2885 l0 -5 5 0 5 0 0 5 0 5 -5 0 -5 0 0 -5z" />
    <path d="M4596 2837 l6 -18 6 6 6 5 -13 13 -12 12 7 -18z" />
    <path d="M4329 2793 l-14 -18 18 14 17 13 0 4 0 4 -4 0 -4 0 -13 -17z" />
    <path d="M4636 2767 l6 -18 6 6 6 5 -13 13 -12 12 7 -18z" />
    <path d="M4364 2758 l-7 -11 11 7 12 7 0 5 0 4 -4 0 -5 0 -7 -12z" />
    <path d="M4676 2697 l6 -18 6 6 6 5 -13 13 -12 12 7 -18z" />
  </g>
  <g transform="translate(0.000000,687.000000) scale(0.100000,-0.100000)" fill="#ecb947" stroke="none">
    <path d="M2550 4765 l0 -5 5 0 5 0 0 5 0 5 -5 0 -5 0 0 -5z" />
    <path d="M2494 4718 l-7 -11 11 7 12 7 0 5 0 4 -4 0 -5 0 -7 -12z" />
    <path d="M7600 1715 l0 -5 5 0 5 0 0 5 0 5 -5 0 -5 0 0 -5z" />
    <path d="M7550 1625 l0 -5 5 0 5 0 0 5 0 5 -5 0 -5 0 0 -5z" />
    <path d="M7500 1575 l0 -5 5 0 5 0 0 5 0 5 -5 0 -5 0 0 -5z" />
    <path d="M2620 1525 l0 -5 5 0 5 0 0 5 0 5 -5 0 -5 0 0 -5z" />
    <path d="M7890 1465 l0 -5 5 0 5 0 0 5 0 5 -5 0 -5 0 0 -5z" />
    <path d="M7890 1440 l0 -13 7 6 6 7 -6 7 -7 6 0 -13z" />
    <path d="M2140 1395 l0 -5 5 0 5 0 0 5 0 5 -5 0 -5 0 0 -5z" />
    <path d="M7880 1375 l0 -5 5 0 5 0 0 5 0 5 -5 0 -5 0 0 -5z" />
    <path d="M2150 1355 l0 -5 5 0 5 0 0 5 0 5 -5 0 -5 0 0 -5z" />
    <path d="M7860 1315 l0 -5 5 0 5 0 0 5 0 5 -5 0 -5 0 0 -5z" />
    <path d="M2068 1173 l22 -4 18 4 17 5 -40 -1 -40 0 23 -4z" />
    <path d="M8008 1173 l22 -4 18 4 17 5 -40 -1 -40 0 23 -4z" />
    <path d="M1848 1163 l12 -5 13 5 12 5 -25 0 -25 0 13 -5z" />
    <path d="M8258 1163 l13 -5 6 6 6 6 -19 -1 -19 -1 13 -5z" />
    <path d="M8364 1148 l-7 -11 11 7 12 7 0 5 0 4 -4 0 -5 0 -7 -12z" />
    <path d="M1893 1133 l17 -5 13 5 12 5 -30 0 -30 0 18 -5z" />
    <path d="M8238 1133 l12 -5 13 5 12 5 -25 0 -25 0 13 -5z" />
    <path d="M2178 1123 l22 -4 18 4 17 5 -40 -1 -40 0 23 -4z" />
    <path d="M7978 1123 l22 -4 18 4 17 5 -40 -1 -40 0 23 -4z" />
    <path d="M2613 1113 l27 -4 28 4 27 4 -55 0 -55 0 28 -4z" />
    <path d="M7543 1113 l27 -4 23 4 22 4 -50 0 -50 0 28 -4z" />
    <path d="M3453 1103 l57 -4 58 4 57 3 -115 0 -115 0 58 -3z" />
    <path d="M6663 1103 l47 -4 48 4 47 3 -95 0 -95 0 48 -3z" />
  </g>
  <g transform="translate(0.000000,687.000000) scale(0.100000,-0.100000)" fill="#ffd2d2" stroke="none">
    <path d="M4346 3234 l-6 -17 13 11 14 12 8 -8 8 -7 -7 13 -7 12 -9 0 -8 0 -6
-16z" />
    <path d="M4405 3170 l6 -10 5 0 5 0 -6 10 -6 10 -5 0 -5 0 6 -10z" />
    <path d="M4304 3158 l-7 -11 11 7 12 7 0 5 0 4 -4 0 -5 0 -7 -12z" />
    <path d="M4445 3100 l6 -10 5 0 5 0 -6 10 -6 10 -5 0 -5 0 6 -10z" />
    <path d="M4264 3088 l-7 -11 11 7 12 7 0 5 0 4 -4 0 -5 0 -7 -12z" />
    <path d="M4372 3020 l0 -25 5 13 5 12 -5 13 -5 12 0 -25z" />
    <path d="M4485 3030 l6 -10 5 0 5 0 -6 10 -6 10 -5 0 -5 0 6 -10z" />
    <path d="M4224 3018 l-7 -11 11 7 12 7 0 5 0 4 -4 0 -5 0 -7 -12z" />
    <path d="M4332 2970 l0 -25 5 13 5 12 -5 13 -5 12 0 -25z" />
    <path d="M4525 2960 l6 -10 5 0 5 0 -6 10 -6 10 -5 0 -5 0 6 -10z" />
    <path d="M4184 2948 l-7 -11 11 7 12 7 0 5 0 4 -4 0 -5 0 -7 -12z" />
    <path d="M4565 2890 l6 -10 5 0 5 0 -6 10 -6 10 -5 0 -5 0 6 -10z" />
    <path d="M4144 2878 l-7 -11 11 7 12 7 0 5 0 4 -4 0 -5 0 -7 -12z" />
    <path d="M4360 2856 l0 -24 -12 -5 -13 -5 18 -1 17 -1 0 30 0 30 -5 0 -5 0 0
-24z" />
    <path d="M4605 2820 l6 -10 5 0 5 0 -6 10 -6 10 -5 0 -5 0 6 -10z" />
    <path d="M4104 2808 l-7 -11 11 7 12 7 0 5 0 4 -4 0 -5 0 -7 -12z" />
    <path d="M4333 2753 l7 -6 7 6 6 7 -13 0 -13 0 6 -7z" />
    <path d="M4360 2755 l0 -5 5 0 5 0 0 5 0 5 -5 0 -5 0 0 -5z" />
    <path d="M4645 2750 l6 -10 5 0 5 0 -6 10 -6 10 -5 0 -5 0 6 -10z" />
    <path d="M4064 2738 l-7 -11 11 7 12 7 0 5 0 4 -4 0 -5 0 -7 -12z" />
    <path d="M4685 2680 l6 -10 5 0 5 0 -6 10 -6 10 -5 0 -5 0 6 -10z" />
    <path d="M4027 2673 l-7 -6 0 -9 0 -8 343 2 342 3 -338 2 -338 3 6 10 6 10 -4
0 -4 0 -6 -7z" />
  </g>
  <g transform="translate(0.000000,687.000000) scale(0.100000,-0.100000)" fill="#8f999e" stroke="none">
    <path d="M3170 4015 l0 -5 5 0 5 0 0 5 0 5 -5 0 -5 0 0 -5z" />
    <path d="M3782 3568 l-2 -117 8 -4 7 -5 -3 81 -2 82 -3 40 -4 40 -1 -117z" />
    <path d="M4000 3550 l0 -11 -10 6 -10 6 0 -10 0 -11 125 0 125 0 0 14 0 14
-115 1 -115 2 0 -11z" />
    <path d="M4803 3123 l7 -6 7 6 6 7 -13 0 -13 0 6 -7z" />
    <path d="M5093 3123 l7 -6 7 6 6 7 -13 0 -13 0 6 -7z" />
    <path d="M5313 3123 l7 -6 7 6 6 7 -13 0 -13 0 6 -7z" />
    <path d="M5513 3123 l7 -6 7 6 6 7 -13 0 -13 0 6 -7z" />
    <path d="M5835 3100 l6 -10 5 0 5 0 -6 10 -6 10 -5 0 -5 0 6 -10z" />
    <path d="M5510 3095 l0 -5 5 0 5 0 0 5 0 5 -5 0 -5 0 0 -5z" />
    <path d="M5570 3095 l0 -5 5 0 5 0 0 5 0 5 -5 0 -5 0 0 -5z" />
    <path d="M5474 3068 l-7 -11 11 7 12 7 0 5 0 4 -4 0 -5 0 -7 -12z" />
    <path d="M5640 3075 l0 -5 5 0 5 0 0 5 0 5 -5 0 -5 0 0 -5z" />
    <path d="M5131 3054 l1 -19 5 13 5 13 -6 6 -6 6 1 -19z" />
    <path d="M5460 3035 l0 -5 5 0 5 0 0 5 0 5 -5 0 -5 0 0 -5z" />
    <path d="M5620 3035 l0 -5 5 0 5 0 0 5 0 5 -5 0 -5 0 0 -5z" />
    <path d="M5810 3035 l0 -5 5 0 5 0 0 5 0 5 -5 0 -5 0 0 -5z" />
    <path d="M5780 3015 l0 -5 5 0 5 0 0 5 0 5 -5 0 -5 0 0 -5z" />
    <path d="M5800 2985 l0 -5 5 0 5 0 0 5 0 5 -5 0 -5 0 0 -5z" />
    <path d="M5130 2965 l0 -5 5 0 5 0 0 5 0 5 -5 0 -5 0 0 -5z" />
    <path d="M5320 2955 l0 -5 5 0 5 0 0 5 0 5 -5 0 -5 0 0 -5z" />
    <path d="M5830 2945 l0 -5 5 0 5 0 0 5 0 5 -5 0 -5 0 0 -5z" />
    <path d="M4820 2935 l0 -5 5 0 5 0 0 5 0 5 -5 0 -5 0 0 -5z" />
    <path d="M5500 2925 l0 -5 5 0 5 0 0 5 0 5 -5 0 -5 0 0 -5z" />
    <path d="M5580 2925 l0 -5 5 0 5 0 0 5 0 5 -5 0 -5 0 0 -5z" />
    <path d="M5050 2915 l0 -5 5 0 5 0 0 5 0 5 -5 0 -5 0 0 -5z" />
    <path d="M5190 2900 l0 -13 7 6 6 7 -6 7 -7 6 0 -13z" />
    <path d="M5830 2895 l0 -5 5 0 5 0 0 5 0 5 -5 0 -5 0 0 -5z" />
  </g>
  <g transform="translate(0.000000,687.000000) scale(0.100000,-0.100000)" fill="#6d7072" stroke="none">
    <path d="M4053 3553 l58 -4 52 4 52 3 -110 0 -110 0 58 -3z" />
    <path d="M4220 3555 l0 -5 5 0 5 0 0 5 0 5 -5 0 -5 0 0 -5z" />
    <path d="M3790 3445 l0 -5 5 0 5 0 0 5 0 5 -5 0 -5 0 0 -5z" />
    <path d="M4848 3123 l42 -4 43 4 42 4 -85 0 -85 0 43 -4z" />
    <path d="M5008 3123 l13 -5 6 6 6 6 -19 -1 -19 -1 13 -5z" />
    <path d="M5083 3123 l7 -6 7 6 6 7 -13 0 -13 0 6 -7z" />
    <path d="M5228 3123 l13 -5 6 6 6 6 -19 -1 -19 -1 13 -5z" />
    <path d="M5298 3123 l13 -5 6 6 6 6 -19 -1 -19 -1 13 -5z" />
    <path d="M5683 3123 l7 -6 7 6 6 7 -13 0 -13 0 6 -7z" />
    <path d="M5763 3123 l7 -6 7 6 6 7 -13 0 -13 0 6 -7z" />
    <path d="M5350 3115 l0 -5 5 0 5 0 0 5 0 5 -5 0 -5 0 0 -5z" />
    <path d="M4810 3105 l0 -5 5 0 5 0 0 5 0 5 -5 0 -5 0 0 -5z" />
    <path d="M5220 3105 l0 -5 5 0 5 0 0 5 0 5 -5 0 -5 0 0 -5z" />
    <path d="M5700 3017 l5 -92 3 84 3 84 -8 8 -8 8 5 -92z" />
    <path d="M5110 3095 l0 -5 5 0 5 0 0 5 0 5 -5 0 -5 0 0 -5z" />
    <path d="M5732 3060 l0 -35 5 18 4 17 -4 18 -5 17 0 -35z" />
    <path d="M5380 3075 l0 -5 5 0 5 0 0 5 0 5 -5 0 -5 0 0 -5z" />
    <path d="M5130 3045 l0 -5 5 0 5 0 0 5 0 5 -5 0 -5 0 0 -5z" />
    <path d="M5160 3045 l0 -5 5 0 5 0 0 5 0 5 -5 0 -5 0 0 -5z" />
    <path d="M5430 3045 l0 -5 5 0 5 0 0 5 0 5 -5 0 -5 0 0 -5z" />
    <path d="M4940 3005 l0 -5 5 0 5 0 0 5 0 5 -5 0 -5 0 0 -5z" />
    <path d="M5350 3005 l0 -5 5 0 5 0 0 5 0 5 -5 0 -5 0 0 -5z" />
    <path d="M5110 2995 l0 -5 5 0 5 0 0 5 0 5 -5 0 -5 0 0 -5z" />
    <path d="M5732 2960 l0 -35 5 18 4 17 -4 18 -5 17 0 -35z" />
    <path d="M5460 2975 l0 -5 5 0 5 0 0 5 0 5 -5 0 -5 0 0 -5z" />
    <path d="M5620 2975 l0 -5 5 0 5 0 0 5 0 5 -5 0 -5 0 0 -5z" />
    <path d="M5780 2965 l0 -5 5 0 5 0 0 5 0 5 -5 0 -5 0 0 -5z" />
    <path d="M4953 2943 l7 -6 7 6 6 7 -13 0 -13 0 6 -7z" />
    <path d="M5440 2945 l0 -5 5 0 5 0 0 5 0 5 -5 0 -5 0 0 -5z" />
    <path d="M5370 2935 l0 -5 5 0 5 0 0 5 0 5 -5 0 -5 0 0 -5z" />
    <path d="M5230 2915 l0 -5 5 0 5 0 0 5 0 5 -5 0 -5 0 0 -5z" />
    <path d="M5350 2915 l0 -5 5 0 5 0 0 5 0 5 -5 0 -5 0 0 -5z" />
    <path d="M5530 2915 l0 -5 5 0 5 0 0 5 0 5 -5 0 -5 0 0 -5z" />
    <path d="M5550 2915 l0 -5 5 0 5 0 0 5 0 5 -5 0 -5 0 0 -5z" />
    <path d="M4990 2905 l0 -5 5 0 5 0 0 5 0 5 -5 0 -5 0 0 -5z" />
    <path d="M5500 2895 l0 -5 5 0 5 0 0 5 0 5 -5 0 -5 0 0 -5z" />
  </g>
  <g transform="translate(0.000000,687.000000) scale(0.100000,-0.100000)" fill="#606060" stroke="none">
    <path d="M3293 4283 l7 -6 7 6 6 7 -13 0 -13 0 6 -7z" />
    <path d="M3351 4286 l4 -3 25 -12 25 -12 -19 15 -20 16 -10 0 -9 0 4 -4z" />
    <path d="M3416 4237 l6 -18 6 6 6 5 -13 13 -12 12 7 -18z" />
    <path d="M3220 4210 l0 -13 7 6 6 7 -6 7 -7 6 0 -13z" />
    <path d="M3220 4154 l0 -10 16 -20 15 -19 -12 25 -12 25 -3 4 -4 4 0 -9z" />
    <path d="M3416 4123 l-7 -18 12 12 13 13 -6 5 -6 6 -6 -18z" />
    <path d="M3267 4089 l13 -13 5 6 6 6 -18 6 -18 7 12 -12z" />
    <path d="M3380 4090 l-15 -10 12 0 12 0 6 10 6 10 -3 0 -3 0 -15 -10z" />
    <path d="M3980 3540 l0 -13 7 6 6 7 -6 7 -7 6 0 -13z" />
    <path d="M4960 3125 l0 -5 5 0 5 0 0 5 0 5 -5 0 -5 0 0 -5z" />
    <path d="M4994 3118 l-7 -11 11 7 12 7 0 5 0 4 -4 0 -5 0 -7 -12z" />
    <path d="M5038 3123 l22 -4 18 4 17 5 -40 -1 -40 0 23 -4z" />
    <path d="M5220 3125 l0 -5 5 0 5 0 0 5 0 5 -5 0 -5 0 0 -5z" />
    <path d="M5253 3123 l17 -4 18 4 17 5 -35 0 -35 0 18 -5z" />
    <path d="M5520 3125 l0 -5 5 0 5 0 0 5 0 5 -5 0 -5 0 0 -5z" />
    <path d="M5560 3125 l0 -5 5 0 5 0 0 5 0 5 -5 0 -5 0 0 -5z" />
    <path d="M5708 3123 l22 -4 23 4 22 4 -45 0 -45 0 23 -4z" />
    <path d="M5130 3115 l0 -5 5 0 5 0 0 5 0 5 -5 0 -5 0 0 -5z" />
    <path d="M5470 3105 l0 -5 5 0 5 0 0 5 0 5 -5 0 -5 0 0 -5z" />
    <path d="M5830 3105 l0 -5 5 0 5 0 0 5 0 5 -5 0 -5 0 0 -5z" />
    <path d="M5330 3095 l0 -5 5 0 5 0 0 5 0 5 -5 0 -5 0 0 -5z" />
    <path d="M5450 3085 l0 -5 5 0 5 0 0 5 0 5 -5 0 -5 0 0 -5z" />
    <path d="M5160 3075 l0 -5 5 0 5 0 0 5 0 5 -5 0 -5 0 0 -5z" />
    <path d="M5470 3065 l0 -5 5 0 5 0 0 5 0 5 -5 0 -5 0 0 -5z" />
    <path d="M5610 3065 l0 -5 5 0 5 0 0 5 0 5 -5 0 -5 0 0 -5z" />
    <path d="M5380 3055 l0 -5 5 0 5 0 0 5 0 5 -5 0 -5 0 0 -5z" />
    <path d="M5350 3045 l0 -5 5 0 5 0 0 5 0 5 -5 0 -5 0 0 -5z" />
    <path d="M5370 3025 l0 -5 5 0 5 0 0 5 0 5 -5 0 -5 0 0 -5z" />
    <path d="M5100 3015 l0 -5 5 0 5 0 0 5 0 5 -5 0 -5 0 0 -5z" />
    <path d="M5320 3015 l0 -5 5 0 5 0 0 5 0 5 -5 0 -5 0 0 -5z" />
    <path d="M5730 3015 l0 -5 5 0 5 0 0 5 0 5 -5 0 -5 0 0 -5z" />
    <path d="M5130 3005 l0 -5 5 0 5 0 0 5 0 5 -5 0 -5 0 0 -5z" />
    <path d="M5080 2985 l0 -5 5 0 5 0 0 5 0 5 -5 0 -5 0 0 -5z" />
    <path d="M5730 2985 l0 -5 5 0 5 0 0 5 0 5 -5 0 -5 0 0 -5z" />
    <path d="M5340 2975 l0 -5 5 0 5 0 0 5 0 5 -5 0 -5 0 0 -5z" />
    <path d="M5640 2945 l0 -5 5 0 5 0 0 5 0 5 -5 0 -5 0 0 -5z" />
    <path d="M5150 2935 l0 -5 5 0 5 0 0 5 0 5 -5 0 -5 0 0 -5z" />
    <path d="M5700 2935 l0 -5 5 0 5 0 0 5 0 5 -5 0 -5 0 0 -5z" />
    <path d="M5810 2925 l0 -5 5 0 5 0 0 5 0 5 -5 0 -5 0 0 -5z" />
    <path d="M4820 2915 l0 -5 5 0 5 0 0 5 0 5 -5 0 -5 0 0 -5z" />
    <path d="M4878 2913 l22 -4 23 4 22 4 -45 0 -45 0 23 -4z" />
    <path d="M5210 2900 l0 -13 7 6 6 7 -6 7 -7 6 0 -13z" />
    <path d="M5580 2895 l0 -5 5 0 5 0 0 5 0 5 -5 0 -5 0 0 -5z" />
  </g>
  <g transform="translate(0.000000,687.000000) scale(0.100000,-0.100000)" fill="#f4c149" stroke="none">
    <path d="M7490 4755 l0 -5 5 0 5 0 0 5 0 5 -5 0 -5 0 0 -5z" />
    <path d="M2490 4715 l0 -5 5 0 5 0 0 5 0 5 -5 0 -5 0 0 -5z" />
    <path d="M2410 1775 l0 -5 5 0 5 0 0 5 0 5 -5 0 -5 0 0 -5z" />
    <path d="M2460 1645 l0 -5 5 0 5 0 0 5 0 5 -5 0 -5 0 0 -5z" />
    <path d="M2660 1515 l0 -5 5 0 5 0 0 5 0 5 -5 0 -5 0 0 -5z" />
    <path d="M7370 1515 l0 -5 5 0 5 0 0 5 0 5 -5 0 -5 0 0 -5z" />
    <path d="M7890 1435 l0 -5 5 0 5 0 0 5 0 5 -5 0 -5 0 0 -5z" />
    <path d="M7840 1275 l0 -5 5 0 5 0 0 5 0 5 -5 0 -5 0 0 -5z" />
    <path d="M2043 1173 l7 -6 7 6 6 7 -13 0 -13 0 6 -7z" />
    <path d="M8053 1173 l7 -6 7 6 6 7 -13 0 -13 0 6 -7z" />
    <path d="M1840 1165 l0 -5 5 0 5 0 0 5 0 5 -5 0 -5 0 0 -5z" />
    <path d="M8270 1165 l0 -5 5 0 5 0 0 5 0 5 -5 0 -5 0 0 -5z" />
    <path d="M1760 1155 l0 -5 5 0 5 0 0 5 0 5 -5 0 -5 0 0 -5z" />
    <path d="M1880 1135 l0 -5 5 0 5 0 0 5 0 5 -5 0 -5 0 0 -5z" />
    <path d="M8263 1133 l7 -6 7 6 6 7 -13 0 -13 0 6 -7z" />
    <path d="M2138 1123 l12 -5 13 5 12 5 -25 0 -25 0 13 -5z" />
    <path d="M8028 1123 l13 -5 6 6 6 6 -19 -1 -19 -1 13 -5z" />
    <path d="M2553 1113 l17 -4 18 4 17 5 -35 0 -35 0 18 -5z" />
    <path d="M7608 1113 l12 -5 13 5 12 5 -25 0 -25 0 13 -5z" />
    <path d="M3318 1103 l32 -4 33 4 32 4 -65 0 -65 0 33 -4z" />
    <path d="M6808 1103 l22 -4 18 4 17 5 -40 -1 -40 0 23 -4z" />
    <path d="M6873 1103 l7 -6 7 6 6 7 -13 0 -13 0 6 -7z" />
  </g>
  <g transform="translate(0.000000,687.000000) scale(0.100000,-0.100000)" fill="#ff6161" stroke="none">
    <path d="M4354 3238 l-7 -11 11 7 12 7 0 5 0 4 -4 0 -5 0 -7 -12z" />
    <path d="M4390 3195 l0 -5 5 0 5 0 0 5 0 5 -5 0 -5 0 0 -5z" />
    <path d="M4400 3175 l0 -5 5 0 5 0 0 5 0 5 -5 0 -5 0 0 -5z" />
    <path d="M4310 3165 l0 -5 5 0 5 0 0 5 0 5 -5 0 -5 0 0 -5z" />
    <path d="M4430 3125 l0 -5 5 0 5 0 0 5 0 5 -5 0 -5 0 0 -5z" />
    <path d="M4322 3085 l0 -30 5 18 5 17 -5 13 -5 12 0 -30z" />
    <path d="M4380 3105 l0 -5 5 0 5 0 0 5 0 5 -5 0 -5 0 0 -5z" />
    <path d="M4440 3105 l0 -5 5 0 5 0 0 5 0 5 -5 0 -5 0 0 -5z" />
    <path d="M4270 3095 l0 -5 5 0 5 0 0 5 0 5 -5 0 -5 0 0 -5z" />
    <path d="M4470 3055 l0 -5 5 0 5 0 0 5 0 5 -5 0 -5 0 0 -5z" />
    <path d="M4480 3035 l0 -5 5 0 5 0 0 5 0 5 -5 0 -5 0 0 -5z" />
    <path d="M4230 3025 l0 -5 5 0 5 0 0 5 0 5 -5 0 -5 0 0 -5z" />
    <path d="M4372 2970 l0 -25 5 13 5 12 -5 13 -5 12 0 -25z" />
    <path d="M4510 2985 l0 -5 5 0 5 0 0 5 0 5 -5 0 -5 0 0 -5z" />
    <path d="M4520 2965 l0 -5 5 0 5 0 0 5 0 5 -5 0 -5 0 0 -5z" />
    <path d="M4190 2955 l0 -5 5 0 5 0 0 5 0 5 -5 0 -5 0 0 -5z" />
    <path d="M4332 2910 l0 -25 5 13 5 12 -5 13 -5 12 0 -25z" />
    <path d="M4550 2915 l0 -5 5 0 5 0 0 5 0 5 -5 0 -5 0 0 -5z" />
    <path d="M4560 2895 l0 -5 5 0 5 0 0 5 0 5 -5 0 -5 0 0 -5z" />
    <path d="M4150 2885 l0 -5 5 0 5 0 0 5 0 5 -5 0 -5 0 0 -5z" />
    <path d="M4590 2845 l0 -5 5 0 5 0 0 5 0 5 -5 0 -5 0 0 -5z" />
    <path d="M4360 2830 l0 -13 7 6 6 7 -6 7 -7 6 0 -13z" />
    <path d="M4600 2825 l0 -5 5 0 5 0 0 5 0 5 -5 0 -5 0 0 -5z" />
    <path d="M4110 2815 l0 -5 5 0 5 0 0 5 0 5 -5 0 -5 0 0 -5z" />
    <path d="M4350 2806 l0 -4 16 -6 15 -6 -6 10 -6 10 -10 0 -9 0 0 -4z" />
    <path d="M4320 2780 l0 -13 7 6 6 7 -6 7 -7 6 0 -13z" />
    <path d="M4630 2775 l0 -5 5 0 5 0 0 5 0 5 -5 0 -5 0 0 -5z" />
    <path d="M4330 2755 l0 -5 5 0 5 0 0 5 0 5 -5 0 -5 0 0 -5z" />
    <path d="M4640 2755 l0 -5 5 0 5 0 0 5 0 5 -5 0 -5 0 0 -5z" />
    <path d="M4070 2745 l0 -5 5 0 5 0 0 5 0 5 -5 0 -5 0 0 -5z" />
    <path d="M4670 2705 l0 -5 5 0 5 0 0 5 0 5 -5 0 -5 0 0 -5z" />
    <path d="M4680 2685 l0 -5 5 0 5 0 0 5 0 5 -5 0 -5 0 0 -5z" />
    <path d="M4030 2675 l0 -5 5 0 5 0 0 5 0 5 -5 0 -5 0 0 -5z" />
  </g>
  <g transform="translate(0.000000,687.000000) scale(0.100000,-0.100000)" fill="#ffa2a2" stroke="none">
    <path d="M4380 3215 l0 -5 5 0 5 0 0 5 0 5 -5 0 -5 0 0 -5z" />
    <path d="M4330 3205 l0 -5 5 0 5 0 0 5 0 5 -5 0 -5 0 0 -5z" />
    <path d="M4320 3185 l0 -5 5 0 5 0 0 5 0 5 -5 0 -5 0 0 -5z" />
    <path d="M4420 3145 l0 -5 5 0 5 0 0 5 0 5 -5 0 -5 0 0 -5z" />
    <path d="M4290 3135 l0 -5 5 0 5 0 0 5 0 5 -5 0 -5 0 0 -5z" />
    <path d="M4280 3115 l0 -5 5 0 5 0 0 5 0 5 -5 0 -5 0 0 -5z" />
    <path d="M4320 3105 l0 -5 5 0 5 0 0 5 0 5 -5 0 -5 0 0 -5z" />
    <path d="M4460 3075 l0 -5 5 0 5 0 0 5 0 5 -5 0 -5 0 0 -5z" />
    <path d="M4250 3065 l0 -5 5 0 5 0 0 5 0 5 -5 0 -5 0 0 -5z" />
    <path d="M4240 3045 l0 -5 5 0 5 0 0 5 0 5 -5 0 -5 0 0 -5z" />
    <path d="M4371 2994 l1 -19 5 13 5 13 -6 6 -6 6 1 -19z" />
    <path d="M4500 3005 l0 -5 5 0 5 0 0 5 0 5 -5 0 -5 0 0 -5z" />
    <path d="M4210 2995 l0 -5 5 0 5 0 0 5 0 5 -5 0 -5 0 0 -5z" />
    <path d="M4200 2975 l0 -5 5 0 5 0 0 5 0 5 -5 0 -5 0 0 -5z" />
    <path d="M4332 2940 l0 -25 5 13 5 12 -5 13 -5 12 0 -25z" />
    <path d="M4540 2935 l0 -5 5 0 5 0 0 5 0 5 -5 0 -5 0 0 -5z" />
    <path d="M4170 2925 l0 -5 5 0 5 0 0 5 0 5 -5 0 -5 0 0 -5z" />
    <path d="M4160 2905 l0 -5 5 0 5 0 0 5 0 5 -5 0 -5 0 0 -5z" />
    <path d="M4580 2865 l0 -5 5 0 5 0 0 5 0 5 -5 0 -5 0 0 -5z" />
    <path d="M4130 2855 l0 -5 5 0 5 0 0 5 0 5 -5 0 -5 0 0 -5z" />
    <path d="M4360 2840 l0 -13 7 6 6 7 -6 7 -7 6 0 -13z" />
    <path d="M4120 2835 l0 -5 5 0 5 0 0 5 0 5 -5 0 -5 0 0 -5z" />
    <path d="M4343 2803 l7 -6 7 6 6 7 -13 0 -13 0 6 -7z" />
    <path d="M4370 2795 l0 -5 5 0 5 0 0 5 0 5 -5 0 -5 0 0 -5z" />
    <path d="M4620 2795 l0 -5 5 0 5 0 0 5 0 5 -5 0 -5 0 0 -5z" />
    <path d="M4090 2785 l0 -5 5 0 5 0 0 5 0 5 -5 0 -5 0 0 -5z" />
    <path d="M4080 2765 l0 -5 5 0 5 0 0 5 0 5 -5 0 -5 0 0 -5z" />
    <path d="M4660 2725 l0 -5 5 0 5 0 0 5 0 5 -5 0 -5 0 0 -5z" />
    <path d="M4050 2715 l0 -5 5 0 5 0 0 5 0 5 -5 0 -5 0 0 -5z" />
    <path d="M4040 2695 l0 -5 5 0 5 0 0 5 0 5 -5 0 -5 0 0 -5z" />
    <path d="M4030 2655 l0 -5 5 0 5 0 0 5 0 5 -5 0 -5 0 0 -5z" />
    <path d="M4690 2655 l0 -5 5 0 5 0 0 5 0 5 -5 0 -5 0 0 -5z" />
  </g>
  <g transform="translate(0.000000,687.000000) scale(0.100000,-0.100000)" fill="#ca383b" stroke="none">
    <path d="M3313 4283 l17 -4 18 4 17 5 -35 0 -35 0 18 -5z" />
    <path d="M3249 4253 l-24 -28 28 24 27 24 0 4 0 3 -3 0 -4 0 -24 -27z" />
    <path d="M3370 4275 l0 -5 5 0 5 0 0 5 0 5 -5 0 -5 0 0 -5z" />
    <path d="M3390 4266 l0 -4 18 -13 17 -14 -14 18 -13 17 -4 0 -4 0 0 -4z" />
    <path d="M3420 4225 l0 -5 5 0 5 0 0 5 0 5 -5 0 -5 0 0 -5z" />
    <path d="M3222 4180 l0 -35 5 18 4 17 -4 18 -5 17 0 -35z" />
    <path d="M3432 4180 l0 -35 5 18 4 17 -4 18 -5 17 0 -35z" />
    <path d="M3230 4135 l0 -5 5 0 5 0 0 5 0 5 -5 0 -5 0 0 -5z" />
    <path d="M3420 4135 l0 -5 5 0 5 0 0 5 0 5 -5 0 -5 0 0 -5z" />
    <path d="M3240 4116 l0 -4 18 -13 17 -14 -14 18 -13 17 -4 0 -4 0 0 -4z" />
    <path d="M3399 4103 l-14 -18 18 14 17 13 0 4 0 4 -4 0 -4 0 -13 -17z" />
    <path d="M3280 4085 l0 -5 5 0 5 0 0 5 0 5 -5 0 -5 0 0 -5z" />
    <path d="M3370 4085 l0 -5 5 0 5 0 0 5 0 5 -5 0 -5 0 0 -5z" />
    <path d="M3313 4073 l17 -4 18 4 17 5 -35 0 -35 0 18 -5z" />
  </g>
  <g transform="translate(0.000000,687.000000) scale(0.100000,-0.100000)" fill="#9f3e42" stroke="none">
    <path d="M3300 4285 l0 -5 5 0 5 0 0 5 0 5 -5 0 -5 0 0 -5z" />
    <path d="M3350 4285 l0 -5 5 0 5 0 0 5 0 5 -5 0 -5 0 0 -5z" />
    <path d="M3270 4275 l0 -5 5 0 5 0 0 5 0 5 -5 0 -5 0 0 -5z" />
    <path d="M3410 4245 l0 -5 5 0 5 0 0 5 0 5 -5 0 -5 0 0 -5z" />
    <path d="M3230 4235 l0 -5 5 0 5 0 0 5 0 5 -5 0 -5 0 0 -5z" />
    <path d="M3220 4205 l0 -5 5 0 5 0 0 5 0 5 -5 0 -5 0 0 -5z" />
    <path d="M3430 4205 l0 -5 5 0 5 0 0 5 0 5 -5 0 -5 0 0 -5z" />
    <path d="M3220 4155 l0 -5 5 0 5 0 0 5 0 5 -5 0 -5 0 0 -5z" />
    <path d="M3430 4155 l0 -5 5 0 5 0 0 5 0 5 -5 0 -5 0 0 -5z" />
    <path d="M3240 4115 l0 -5 5 0 5 0 0 5 0 5 -5 0 -5 0 0 -5z" />
    <path d="M3410 4115 l0 -5 5 0 5 0 0 5 0 5 -5 0 -5 0 0 -5z" />
    <path d="M3260 4095 l0 -5 5 0 5 0 0 5 0 5 -5 0 -5 0 0 -5z" />
    <path d="M3390 4095 l0 -5 5 0 5 0 0 5 0 5 -5 0 -5 0 0 -5z" />
    <path d="M3300 4075 l0 -5 5 0 5 0 0 5 0 5 -5 0 -5 0 0 -5z" />
    <path d="M3350 4075 l0 -5 5 0 5 0 0 5 0 5 -5 0 -5 0 0 -5z" />
    <path d="M3883 3593 l7 -6 7 6 6 7 -13 0 -13 0 6 -7z" />
    <path d="M3860 3585 l0 -5 5 0 5 0 0 5 0 5 -5 0 -5 0 0 -5z" />
    <path d="M3940 3560 l0 -13 7 6 6 7 -6 7 -7 6 0 -13z" />
    <path d="M3890 3495 l0 -5 5 0 5 0 0 5 0 5 -5 0 -5 0 0 -5z" />
  </g>
  <g transform="translate(0.000000,687.000000) scale(0.100000,-0.100000)" fill="#b9191c" stroke="none">
    <path d="M3893 3593 l7 -6 7 6 6 7 -13 0 -13 0 6 -7z" />
    <path d="M3920 3585 l0 -5 5 0 5 0 0 5 0 5 -5 0 -5 0 0 -5z" />
    <path d="M3941 3544 l1 -19 5 13 5 13 -6 6 -6 6 1 -19z" />
    <path d="M3850 3525 l0 -5 5 0 5 0 0 5 0 5 -5 0 -5 0 0 -5z" />
    <path d="M3924 3508 l-7 -11 11 7 12 7 0 5 0 4 -4 0 -5 0 -7 -12z" />
    <path d="M3870 3505 l0 -5 5 0 5 0 0 5 0 5 -5 0 -5 0 0 -5z" />
  </g>
  <g transform="translate(0.000000,687.000000) scale(0.100000,-0.100000)" fill="#fed679" stroke="none">
    <path d="M0 6865 l0 -5 5 0 5 0 0 5 0 5 -5 0 -5 0 0 -5z" />
    <path d="M9590 6865 l0 -5 5 0 5 0 0 5 0 5 -5 0 -5 0 0 -5z" />
    <path d="M0 5 l0 -5 5 0 5 0 0 5 0 5 -5 0 -5 0 0 -5z" />
    <path d="M9590 5 l0 -5 5 0 5 0 0 5 0 5 -5 0 -5 0 0 -5z" />
  </g>
</svg>